<?xml version="1.0" encoding="UTF-8" standalone="no"?>
<!DOCTYPE svg PUBLIC "-//W3C//DTD SVG 1.1//EN" "http://www.w3.org/Graphics/SVG/1.1/DTD/svg11.dtd">
<svg xmlns="http://www.w3.org/2000/svg" version="1.1" viewBox="0.00 0.00 1491.00 2109.00">
<g stroke-width="2.00" fill="none" stroke-linecap="butt">
<path stroke="#937a54" vector-effect="non-scaling-stroke" d="
  M 891.09 376.66
  Q 889.10 376.35 886.47 374.42
  Q 884.03 372.62 878.17 369.67
  Q 875.62 368.38 872.80 366.69
  Q 867.83 363.73 867.53 363.56
  Q 849.49 353.49 829.24 346.27
  Q 823.47 344.21 819.02 343.18
  C 814.30 342.09 808.61 339.99 803.25 339.28
  C 798.61 338.65 793.82 337.11 789.56 336.42
  Q 789.52 336.41 768.77 332.87
  Q 755.23 330.57 747.86 330.35
  Q 733.04 329.90 720.68 331.25
  C 717.29 331.63 712.32 333.19 709.74 333.60
  C 702.91 334.68 696.14 335.63 689.52 337.48
  Q 684.77 338.82 680.25 339.77
  C 677.01 340.45 673.66 342.20 670.46 343.11
  Q 667.80 343.87 663.06 345.54
  Q 639.87 353.69 614.63 368.84
  Q 584.74 386.78 563.48 405.02
  C 561.26 406.93 560.25 408.33 558.30 409.68
  C 555.82 411.40 553.19 414.29 550.54 416.47"
/>
<path stroke="#b4a88f" vector-effect="non-scaling-stroke" d="
  M 550.54 416.47
  L 560.41 407.57
  A 0.83 0.80 74.0 0 0 560.68 407.06
  Q 560.79 406.35 561.44 405.91
  Q 562.93 404.90 565.02 402.98
  A 0.09 0.09 0.0 0 0 564.95 402.82
  Q 564.68 402.85 564.65 402.83
  A 0.37 0.34 38.3 0 1 564.56 402.28
  L 566.29 400.55"
/>
<path stroke="#c5b38c" vector-effect="non-scaling-stroke" d="
  M 566.29 400.55
  L 571.73 395.26"
/>
<path stroke="#b3ab99" vector-effect="non-scaling-stroke" d="
  M 566.29 400.55
  L 562.10 403.04"
/>
<path stroke="#817262" vector-effect="non-scaling-stroke" d="
  M 978.74 461.63
  Q 981.25 466.85 983.14 469.37
  Q 986.07 473.29 989.22 477.49
  Q 991.98 481.16 994.15 485.03
  Q 997.04 490.17 999.02 492.60
  A 8.06 7.49 -78.9 0 1 1000.10 494.34
  Q 1002.41 499.49 1004.54 501.89
  A 5.25 5.24 -75.0 0 1 1005.60 503.73
  Q 1006.12 505.27 1007.65 507.61
  Q 1009.14 509.89 1010.20 511.94
  Q 1013.77 518.85 1017.41 525.50
  Q 1019.11 528.62 1024.46 538.50
  Q 1026.30 541.90 1028.77 547.84
  C 1030.28 551.46 1032.39 554.95 1033.83 559.24
  A 3.82 3.42 -72.8 0 0 1034.10 559.83
  L 1035.74 562.70
  A 4.56 4.34 -70.1 0 1 1036.14 563.61
  C 1037.50 568.04 1039.98 572.65 1041.54 576.73
  Q 1044.08 583.38 1046.44 588.13
  Q 1047.96 591.18 1048.32 592.40
  A 1.32 0.02 74.3 0 0 1048.63 593.43
  Q 1053.91 606.78 1055.58 612.60
  Q 1057.53 619.45 1059.26 622.49
  A 3.22 3.10 25.5 0 1 1059.61 623.42
  Q 1061.24 631.56 1064.00 638.49
  C 1065.19 641.46 1065.83 646.45 1068.11 650.16
  A 4.08 4.02 24.9 0 1 1068.65 651.60
  C 1069.93 659.12 1072.66 666.32 1074.18 673.98
  Q 1074.82 677.19 1077.05 683.63
  A 5.62 5.22 -60.0 0 1 1077.32 684.81
  Q 1078.45 694.82 1080.34 700.72
  Q 1081.18 703.36 1081.50 706.00
  Q 1081.86 708.98 1081.87 709.00
  Q 1086.01 732.35 1087.33 744.09
  Q 1088.05 750.60 1088.20 751.45
  C 1089.29 757.70 1089.32 762.93 1090.42 768.98
  Q 1091.51 774.96 1091.94 779.15
  Q 1092.23 782.03 1094.43 799.17
  Q 1094.73 801.51 1095.28 803.79"
/>
<path stroke="#6e5e4f" vector-effect="non-scaling-stroke" d="
  M 1094.77 881.50
  Q 1094.25 887.41 1092.81 892.04
  A 9.90 9.70 -35.0 0 0 1092.41 894.18
  Q 1092.12 898.05 1091.15 903.23
  Q 1090.49 906.74 1089.45 908.82
  A 4.40 4.32 -28.8 0 0 1089.02 910.25
  Q 1088.00 919.10 1084.29 930.06
  C 1081.67 937.83 1079.47 944.89 1074.35 960.90
  Q 1070.29 973.62 1064.62 985.82"
/>
<path stroke="#503a23" vector-effect="non-scaling-stroke" d="
  M 1064.62 985.82
  C 1065.75 973.51 1065.63 962.49 1056.04 953.37"
/>
<path stroke="#684e2f" vector-effect="non-scaling-stroke" d="
  M 1056.04 953.37
  Q 1063.14 928.81 1065.04 920.33
  Q 1071.41 891.89 1072.43 862.68"
/>
<path stroke="#6d5231" vector-effect="non-scaling-stroke" d="
  M 1072.43 862.68
  Q 1072.76 855.14 1073.01 847.57
  Q 1073.28 839.64 1073.01 832.44
  Q 1071.96 803.86 1068.33 775.44"
/>
<path stroke="#715533" vector-effect="non-scaling-stroke" d="
  M 1068.33 775.44
  Q 1063.71 732.05 1054.05 689.42"
/>
<path stroke="#755936" vector-effect="non-scaling-stroke" d="
  M 1054.05 689.42
  Q 1052.58 681.45 1050.47 673.52
  Q 1041.49 639.69 1029.08 606.95"
/>
<path stroke="#7d5f35" vector-effect="non-scaling-stroke" d="
  M 1029.08 606.95
  C 1019.59 582.42 1010.46 563.05 998.08 538.26
  Q 994.05 530.20 989.66 522.85
  C 982.40 510.73 978.15 503.38 971.50 493.54
  Q 965.29 484.34 961.86 479.64
  Q 954.61 469.68 940.91 453.91
  Q 921.45 431.50 896.80 411.77
  Q 887.84 404.60 877.37 397.82
  Q 862.31 388.06 857.19 385.09
  Q 819.10 363.06 775.97 356.18
  C 732.46 349.23 688.21 357.90 649.21 377.48
  Q 632.88 385.68 628.23 388.52
  Q 605.68 402.33 585.89 418.65
  Q 584.26 420.00 572.36 430.62
  Q 565.12 437.08 559.36 443.13
  Q 547.44 455.64 536.68 468.79
  C 526.87 480.76 517.81 493.97 510.20 505.44
  Q 500.09 520.69 490.97 537.97
  Q 485.16 549.00 482.01 554.58
  C 477.31 562.94 472.95 572.42 468.67 581.43"
/>
<path stroke="#755936" vector-effect="non-scaling-stroke" d="
  M 468.67 581.43
  Q 457.80 603.51 449.07 628.58
  Q 438.28 659.58 430.48 687.23"
/>
<path stroke="#715533" vector-effect="non-scaling-stroke" d="
  M 430.48 687.23
  Q 426.83 699.64 425.42 705.69
  C 422.09 720.05 419.34 730.69 417.24 743.02
  Q 415.87 751.05 414.57 759.65
  Q 413.63 765.90 413.06 771.95"
/>
<path stroke="#6d5231" vector-effect="non-scaling-stroke" d="
  M 413.06 771.95
  Q 409.55 799.44 408.77 807.75
  Q 407.67 819.34 407.03 839.70"
/>
<path stroke="#684e2f" vector-effect="non-scaling-stroke" d="
  M 407.03 839.70
  L 407.19 851.50"
/>
<path stroke="#523a22" vector-effect="non-scaling-stroke" d="
  M 407.19 851.50
  Q 398.19 833.09 395.77 812.64
  Q 394.77 804.20 393.63 791.62
  Q 393.35 788.47 392.64 786.29
  C 391.21 781.86 387.49 786.98 386.40 788.35"
/>
<path stroke="#817262" vector-effect="non-scaling-stroke" d="
  M 386.40 788.35
  L 391.64 752.28
  A 2.89 2.83 -30.4 0 1 391.82 751.62
  Q 394.39 745.38 394.41 737.98
  A 4.58 4.55 -39.1 0 1 394.51 737.03
  Q 398.31 718.81 399.65 713.13
  Q 400.03 711.53 401.01 706.35
  C 402.20 700.01 402.85 698.18 404.34 691.41
  Q 405.65 685.47 407.70 680.91
  A 3.86 3.59 62.6 0 0 407.98 679.90
  Q 408.97 672.12 411.50 665.65
  Q 412.44 663.24 413.45 659.56
  Q 414.20 656.84 414.97 653.32
  C 415.28 651.86 416.29 649.78 417.14 647.89
  A 4.33 4.08 65.1 0 0 417.44 646.99
  Q 418.60 641.67 419.95 638.74
  Q 422.83 632.51 423.66 628.12
  A 2.22 1.82 66.0 0 1 423.74 627.83
  L 432.03 607.54
  A 1.27 0.89 -50.7 0 0 432.08 607.38
  Q 433.09 602.39 435.20 598.70
  A 6.72 6.17 71.6 0 0 435.67 597.65
  Q 437.43 592.53 439.86 588.74
  A 5.03 4.96 71.1 0 0 440.36 587.70
  Q 443.41 578.52 448.00 570.20
  C 449.22 567.99 450.19 565.77 451.07 563.09
  Q 451.71 561.15 453.48 557.81
  Q 458.73 547.94 459.63 545.97
  Q 461.64 541.53 463.90 538.83
  A 2.70 2.68 -18.2 0 0 464.48 537.69
  Q 465.14 534.92 467.22 532.62
  A 3.29 3.26 75.3 0 0 467.86 531.51
  Q 468.94 528.27 470.53 525.89
  C 474.19 520.43 477.85 513.08 479.72 510.06
  C 481.70 506.84 483.23 505.07 484.77 502.04
  Q 485.77 500.09 488.49 497.02
  A 3.56 3.20 80.7 0 0 488.99 496.24
  Q 490.45 493.01 491.97 491.42
  A 2.69 2.66 -13.7 0 0 492.55 490.48
  Q 493.09 489.03 493.89 487.62
  Q 499.68 477.43 505.77 469.91
  Q 507.77 467.43 510.41 463.80
  Q 513.95 458.92 514.82 457.55
  Q 517.10 453.93 521.70 448.39
  Q 526.14 443.06 531.85 436.09
  Q 537.39 429.34 550.54 416.47"
/>
<path stroke="#73685c" vector-effect="non-scaling-stroke" d="
  M 386.40 788.35
  Q 385.81 798.46 385.26 808.70
  C 385.11 811.56 384.63 816.56 383.96 819.81
  Q 383.46 822.23 383.68 828.19
  Q 383.84 832.65 383.48 841.00
  Q 383.34 844.16 383.43 865.25
  Q 383.43 867.32 384.26 870.24
  Q 384.97 872.74 385.85 885.90
  A 4.28 4.27 35.5 0 0 385.97 886.61
  Q 387.42 892.35 387.42 897.83
  A 5.55 5.36 40.2 0 0 387.55 899.10
  Q 388.93 905.71 389.57 909.86
  Q 390.36 914.96 391.86 920.95
  Q 395.32 934.79 396.47 939.88
  A 2.72 2.66 22.5 0 0 396.89 940.86
  Q 397.67 942.00 397.66 943.48
  A 1.49 1.47 36.5 0 0 397.73 943.93
  L 404.71 966.55"
/>
<path stroke="#71685e" vector-effect="non-scaling-stroke" d="
  M 404.71 966.55
  L 413.95 991.34
  A 1.00 0.66 33.7 0 0 414.00 991.46
  Q 416.97 996.64 418.08 1002.16"
/>
<path stroke="#5e534b" vector-effect="non-scaling-stroke" d="
  M 999.66 1089.32
  Q 1007.11 1079.57 1014.78 1070.13
  C 1015.92 1068.73 1016.79 1066.65 1017.75 1065.72
  Q 1022.62 1061.03 1026.09 1055.83
  C 1028.80 1051.77 1032.95 1046.18 1035.91 1040.78
  Q 1037.72 1037.49 1039.93 1034.96
  A 1.99 1.97 -11.0 0 0 1040.23 1034.52
  L 1052.81 1010.35
  A 1.08 0.28 -75.7 0 0 1052.87 1010.24
  C 1054.90 1007.32 1056.22 1003.94 1057.41 1001.64
  Q 1061.42 993.87 1064.62 985.82"
/>
<path stroke="#927444" vector-effect="non-scaling-stroke" d="
  M 1029.08 606.95
  Q 1030.34 619.46 1030.89 622.92
  C 1037.42 664.23 1043.62 701.77 1043.89 743.05"
/>
<path stroke="#957848" vector-effect="non-scaling-stroke" d="
  M 1043.89 743.05
  L 1042.02 751.10
  A 0.34 0.33 49.2 0 1 1041.36 751.05
  L 1039.93 734.12
  A 0.09 0.09 0.0 0 0 1039.84 734.04
  L 1039.72 734.03
  A 0.35 0.35 0.0 0 0 1039.37 734.35
  Q 1037.98 749.55 1037.42 754.29
  Q 1032.32 797.09 1028.90 826.46
  Q 1025.12 858.79 1014.20 885.63
  Q 1006.92 903.54 986.47 941.72
  Q 985.79 942.99 984.81 943.82
  A 0.42 0.42 0.0 0 1 984.14 943.62
  Q 983.98 943.11 984.59 940.40
  Q 986.16 933.39 988.05 926.45"
/>
<path stroke="#997c4c" vector-effect="non-scaling-stroke" d="
  M 988.05 926.45
  L 992.04 915.75"
/>
<path stroke="#9d7d48" vector-effect="non-scaling-stroke" d="
  M 992.04 915.75
  Q 1001.65 897.71 1007.66 874.27
  Q 1012.82 854.16 1015.39 837.02
  Q 1025.29 771.21 1025.56 769.50
  Q 1029.86 742.25 1029.71 717.78
  Q 1029.59 699.63 1027.69 689.18
  Q 1025.40 676.60 1021.03 648.84
  C 1015.98 616.83 1005.55 587.16 991.09 556.56
  C 980.83 534.85 969.59 514.68 955.60 496.62
  Q 938.03 473.95 916.26 451.06
  C 902.86 436.97 889.65 425.87 874.73 414.75
  C 849.87 396.23 821.83 384.36 791.73 377.60
  C 770.33 372.79 750.39 370.79 729.43 373.21
  C 689.12 377.87 648.60 395.47 615.90 418.76
  C 603.23 427.79 590.47 439.06 577.77 450.53
  C 534.50 489.62 503.00 539.47 482.80 594.78
  Q 467.25 637.36 462.89 689.51
  Q 461.60 705.08 464.27 720.91
  C 466.70 735.28 471.44 748.29 483.30 757.22"
/>
<path stroke="#6f5530" vector-effect="non-scaling-stroke" d="
  M 483.30 757.22
  L 485.42 765.65
  A 3.14 3.11 46.0 0 1 485.40 767.28
  C 479.34 789.01 477.89 814.27 485.03 835.76
  C 486.86 841.26 488.76 847.67 491.69 853.02
  Q 498.42 865.28 509.09 874.39"
/>
<path stroke="#997c4c" vector-effect="non-scaling-stroke" d="
  M 509.09 874.39
  L 498.05 897.01"
/>
<path stroke="#957848" vector-effect="non-scaling-stroke" d="
  M 498.05 897.01
  C 492.38 901.32 489.50 905.06 489.50 912.38
  Q 489.51 918.39 489.80 924.41
  Q 489.87 925.99 489.35 926.83
  A 0.95 0.95 0.0 0 1 487.81 926.92
  Q 484.97 923.42 482.81 918.68
  Q 478.43 909.09 475.29 899.76
  Q 471.34 887.99 464.02 867.09
  Q 461.67 860.39 459.07 845.20"
/>
<path stroke="#927444" vector-effect="non-scaling-stroke" d="
  M 459.07 845.20
  Q 456.26 829.96 453.05 814.80
  Q 447.90 790.48 447.12 784.41
  Q 445.17 769.26 444.19 751.90
  C 442.78 727.06 441.71 702.79 444.36 678.30
  Q 445.91 663.95 450.54 644.12
  Q 457.94 612.36 468.67 581.43"
/>
<path stroke="#5a4429" vector-effect="non-scaling-stroke" d="
  M 407.19 851.50
  Q 407.47 864.08 408.10 869.38
  C 409.44 880.58 410.11 892.04 412.04 902.98
  Q 414.28 915.64 420.41 939.84
  Q 423.43 951.75 431.78 972.66"
/>
<path stroke="#42301e" vector-effect="non-scaling-stroke" d="
  M 431.78 972.66
  Q 418.30 966.98 404.88 963.50
  A 0.32 0.32 0.0 0 0 404.48 963.84
  L 404.71 966.55"
/>
<path stroke="#755c39" vector-effect="non-scaling-stroke" d="
  M 1072.43 862.68
  Q 1065.37 881.91 1058.55 901.19
  C 1050.84 923.02 1044.46 939.23 1034.01 956.69
  Q 1027.80 967.07 1012.07 993.16
  Q 996.79 1018.50 974.32 1042.81
  Q 959.48 1058.87 956.45 1061.94
  Q 952.21 1066.24 942.55 1073.38
  Q 913.91 1094.56 881.92 1108.54
  C 860.06 1118.10 836.16 1124.62 812.46 1129.02
  Q 770.88 1136.73 730.04 1137.21
  C 705.56 1137.50 682.53 1135.18 658.94 1129.74
  Q 613.13 1119.19 571.27 1095.52
  C 521.87 1067.58 483.41 1023.12 458.40 973.14
  Q 446.73 949.83 437.69 931.30
  C 423.96 903.18 414.17 871.14 407.03 839.70"
/>
<path stroke="#7e633d" vector-effect="non-scaling-stroke" d="
  M 1068.33 775.44
  Q 1063.91 805.39 1059.86 835.32
  Q 1057.99 849.15 1051.38 879.42
  C 1046.87 900.05 1042.15 920.70 1033.47 940.08
  Q 1019.21 971.91 1000.08 1001.09
  C 983.36 1026.61 964.02 1048.17 938.75 1065.98
  C 913.78 1083.58 887.32 1098.34 858.21 1108.15
  Q 837.22 1115.23 811.55 1120.15
  C 776.04 1126.97 740.04 1130.75 705.47 1128.19
  C 674.34 1125.89 642.51 1117.62 613.67 1106.78
  Q 556.12 1085.15 513.06 1040.25
  Q 508.91 1035.91 496.67 1022.11
  A 0.94 0.76 2.0 0 0 496.45 1021.92
  L 495.01 1020.92
  A 5.98 5.79 88.7 0 1 493.54 1019.47
  Q 479.41 999.58 467.44 979.17
  C 456.06 959.77 448.71 939.66 441.99 919.49
  Q 437.75 906.79 433.03 886.78
  Q 419.65 830.09 413.06 771.95"
/>
<path stroke="#71685e" vector-effect="non-scaling-stroke" d="
  M 915.11 1154.92
  C 913.14 1155.04 911.53 1156.84 909.44 1157.42
  A 0.87 0.71 17.0 0 0 909.22 1157.51
  L 883.53 1169.61
  A 0.83 0.81 -88.6 0 0 883.14 1169.99
  Q 882.99 1170.26 882.97 1170.55"
/>
<path stroke="#837050" vector-effect="non-scaling-stroke" d="
  M 868.79 1176.42
  Q 865.21 1176.63 862.39 1177.87
  Q 858.74 1179.46 855.52 1180.02
  Q 852.18 1180.60 845.27 1183.81"
/>
<path stroke="#71685e" vector-effect="non-scaling-stroke" d="
  M 678.03 1192.34
  L 678.87 1192.29
  A 0.13 0.13 0.0 0 0 678.88 1192.04
  L 666.78 1190.07
  A 1.32 1.25 66.4 0 1 666.28 1189.86
  Q 665.49 1189.29 663.99 1189.39
  Q 662.62 1189.48 659.64 1188.59
  Q 658.95 1188.39 656.40 1188.14
  Q 656.35 1188.13 656.30 1188.12
  L 638.94 1183.87
  A 0.20 0.17 49.7 0 1 638.88 1183.86
  Q 633.84 1181.98 626.79 1179.98
  C 622.24 1178.68 618.78 1177.07 614.96 1176.18
  Q 612.70 1175.66 606.28 1172.84
  Q 602.47 1171.17 597.26 1169.64
  A 3.72 3.45 -18.5 0 1 596.40 1169.25
  Q 594.55 1168.06 592.05 1167.48
  A 6.12 5.82 -23.8 0 1 590.88 1167.06
  Q 583.14 1163.22 575.87 1160.71
  C 575.37 1160.53 575.13 1159.94 574.60 1159.62
  Q 568.15 1155.77 561.18 1153.14"
/>
<path stroke="#523f28" vector-effect="non-scaling-stroke" d="
  M 437.13 986.01
  Q 459.17 1035.01 496.08 1073.79
  Q 500.57 1078.51 503.76 1081.46
  C 510.37 1087.57 517.24 1094.37 523.54 1099.59
  C 540.68 1113.78 559.50 1126.27 579.60 1136.27
  Q 591.45 1142.17 595.53 1143.92
  Q 631.28 1159.17 669.38 1166.61
  Q 679.21 1168.53 694.60 1170.43
  Q 711.70 1172.55 720.01 1172.88
  Q 765.58 1174.70 811.46 1166.23
  C 821.14 1164.44 831.09 1161.82 842.96 1158.64
  Q 867.04 1152.18 891.48 1140.04
  Q 914.10 1128.80 936.13 1113.41
  Q 961.82 1095.46 984.69 1071.69
  Q 991.76 1064.34 1001.46 1052.47
  Q 1007.46 1045.11 1012.77 1037.23"
/>
<path stroke="#8e7349" vector-effect="non-scaling-stroke" d="
  M 459.07 845.20
  Q 458.65 860.94 459.00 870.21
  C 459.96 895.18 470.54 917.98 482.83 941.25
  Q 495.12 964.51 510.32 986.55
  Q 524.17 1006.64 544.20 1025.40
  C 570.35 1049.89 594.18 1067.78 624.73 1079.72
  C 644.55 1087.47 665.53 1091.92 687.08 1095.17
  C 734.84 1102.38 781.00 1097.95 828.40 1086.29
  Q 875.73 1074.64 914.52 1047.42
  Q 923.06 1041.44 934.88 1031.99
  A 0.07 0.07 0.0 0 1 934.98 1032.08
  L 932.86 1035.38
  A 0.08 0.08 0.0 0 0 932.98 1035.48
  Q 945.33 1025.06 955.58 1013.56
  Q 974.77 992.05 991.02 967.74
  Q 1009.74 939.72 1019.91 905.58
  C 1035.63 852.77 1043.81 798.67 1043.89 743.05"
/>
<path stroke="#866a42" vector-effect="non-scaling-stroke" d="
  M 1054.05 689.42
  C 1055.98 718.56 1056.22 746.64 1054.26 776.63
  Q 1052.65 801.33 1051.15 823.52
  C 1049.69 845.14 1044.81 867.36 1038.58 889.23
  Q 1033.34 907.66 1028.08 920.51
  Q 1022.19 934.92 1011.90 954.62
  C 1001.35 974.84 991.33 991.84 977.96 1008.47
  Q 963.40 1026.56 946.86 1042.36
  C 912.31 1075.36 867.79 1094.79 821.75 1105.43
  C 769.41 1117.52 712.99 1121.37 660.43 1108.17
  Q 640.11 1103.06 617.82 1094.67
  C 593.01 1085.33 571.27 1071.94 550.60 1055.14
  Q 550.55 1055.10 550.62 1055.07
  A 0.13 0.12 -41.4 0 1 550.75 1055.07
  Q 561.75 1062.80 572.69 1070.04
  C 598.22 1086.94 627.30 1097.67 657.10 1105.49
  C 693.71 1115.10 731.90 1116.28 769.38 1112.41
  Q 769.41 1112.41 769.40 1112.36
  A 0.12 0.12 0.0 0 0 769.27 1112.26
  Q 751.09 1113.59 730.11 1113.70
  Q 691.45 1113.90 655.12 1104.10
  C 633.92 1098.38 609.15 1090.12 590.12 1079.14
  C 550.16 1056.08 516.24 1024.04 489.92 985.63
  Q 475.39 964.43 467.00 946.38
  Q 457.28 925.49 447.74 898.87
  C 442.48 884.20 439.20 870.16 437.65 855.26
  Q 434.59 825.81 432.00 798.33
  C 430.96 787.29 430.18 774.07 429.99 765.14
  Q 429.18 726.24 430.48 687.23"
/>
<path stroke="#58432b" vector-effect="non-scaling-stroke" d="
  M 1056.04 953.37
  Q 1040.11 998.10 1012.77 1037.23"
/>
<path stroke="#6b5334" vector-effect="non-scaling-stroke" d="
  M 1012.77 1037.23
  C 999.31 1052.95 988.88 1063.45 973.96 1075.06
  C 940.45 1101.12 906.52 1124.27 867.04 1137.57
  Q 842.41 1145.87 804.49 1152.16
  Q 771.44 1157.65 737.58 1158.63
  C 711.89 1159.38 689.10 1159.00 666.50 1154.42
  Q 624.07 1145.82 582.41 1126.33
  C 563.75 1117.60 548.38 1107.78 531.80 1095.08
  C 508.22 1077.01 485.46 1055.77 468.85 1031.51
  Q 446.14 998.37 437.13 986.01"
/>
<path stroke="#58432b" vector-effect="non-scaling-stroke" d="
  M 437.13 986.01
  L 431.78 972.66"
/>
<path stroke="#806a49" vector-effect="non-scaling-stroke" d="
  M 634.60 701.21
  L 619.67 713.25
  A 0.38 0.38 0.0 0 0 619.70 713.87
  Q 634.16 723.59 643.65 737.63
  C 657.89 758.67 661.43 785.96 656.31 810.99"
/>
<path stroke="#7c6545" vector-effect="non-scaling-stroke" d="
  M 656.31 810.99
  C 653.42 829.72 646.19 848.13 634.17 862.91"
/>
<path stroke="#786141" vector-effect="non-scaling-stroke" d="
  M 634.17 862.91
  Q 622.28 876.95 605.39 884.26"
/>
<path stroke="#735c3c" vector-effect="non-scaling-stroke" d="
  M 605.39 884.26
  Q 583.82 893.95 560.02 892.40"
/>
<path stroke="#6f5838" vector-effect="non-scaling-stroke" d="
  M 560.02 892.40
  Q 550.61 891.71 541.37 889.59
  C 530.08 887.00 517.94 882.10 509.09 874.39"
/>
<path stroke="#957b51" vector-effect="non-scaling-stroke" d="
  M 498.05 897.01
  C 502.01 925.33 512.45 946.20 526.08 974.64
  C 529.99 982.78 535.49 991.99 538.78 997.93
  C 539.61 999.44 539.98 1000.75 540.47 1001.90
  A 4.74 4.55 -77.5 0 0 541.14 1003.00
  Q 543.56 1005.99 546.73 1009.09
  Q 564.01 1025.97 583.22 1040.53
  A 0.37 0.37 0.0 0 0 583.71 1039.98
  L 580.61 1036.88
  A 0.40 0.39 -18.3 0 1 580.95 1036.21
  Q 581.97 1036.36 582.56 1036.72
  Q 596.53 1045.05 602.21 1048.32
  C 629.51 1064.00 661.73 1073.14 693.34 1077.14
  C 744.78 1083.65 798.23 1078.62 847.07 1060.89
  Q 890.00 1045.30 922.72 1014.45
  Q 940.68 997.51 956.85 977.59
  Q 970.45 960.83 979.52 943.46
  Q 983.91 935.04 988.05 926.45"
/>
<path stroke="#9e8458" vector-effect="non-scaling-stroke" d="
  M 560.02 892.40
  Q 558.97 892.47 558.09 892.63
  Q 557.26 892.78 556.43 893.47
  Q 537.34 909.45 534.76 911.64
  Q 519.94 924.19 524.22 943.02
  C 527.22 956.21 533.70 968.71 541.57 979.96
  C 551.51 994.16 565.98 1006.88 580.91 1019.52
  Q 607.23 1041.80 639.01 1053.72
  Q 639.03 1053.73 639.03 1053.66
  A 0.09 0.04 25.1 0 0 638.98 1053.60
  L 615.82 1042.88
  A 1.93 1.93 0.0 0 1 614.91 1042.03
  L 614.88 1041.96
  A 0.25 0.25 0.0 0 1 615.20 1041.83
  Q 629.74 1047.75 636.89 1050.42
  Q 657.42 1058.10 683.96 1062.20
  Q 709.23 1066.10 730.00 1066.02
  Q 776.73 1065.86 824.21 1052.30
  C 852.83 1044.13 880.96 1031.00 903.30 1012.27
  C 927.73 991.77 949.95 967.23 965.18 937.76"
/>
<path stroke="#9d8050" vector-effect="non-scaling-stroke" d="
  M 992.04 915.75
  L 990.26 911.95
  A 1.32 1.32 0.0 0 0 988.26 911.45
  Q 986.17 913.02 984.50 915.78
  Q 981.43 920.84 973.59 934.47
  C 972.83 935.79 970.28 939.87 968.20 940.75
  A 1.02 1.02 0.0 0 1 967.22 940.65
  Q 965.90 939.74 965.18 937.76"
/>
<path stroke="#a28554" vector-effect="non-scaling-stroke" d="
  M 965.18 937.76
  Q 966.31 932.40 966.16 926.62
  Q 966.05 922.27 962.58 921.10
  Q 956.94 919.20 951.22 917.45
  Q 936.55 912.97 922.77 904.94
  Q 914.93 900.37 911.63 892.18"
/>
<path stroke="#735934" vector-effect="non-scaling-stroke" d="
  M 911.63 892.18
  C 935.42 884.87 955.35 869.10 965.38 846.11
  C 972.94 828.77 977.76 809.71 975.57 790.98
  Q 974.28 779.95 972.92 773.27
  A 0.92 0.92 0.0 0 1 973.51 772.22
  Q 976.05 771.31 977.51 769.05"
/>
<path stroke="#a58650" vector-effect="non-scaling-stroke" d="
  M 977.51 769.05
  Q 983.51 763.97 987.85 759.36
  C 1004.82 741.36 1008.23 716.47 1008.34 692.19
  C 1008.45 670.32 1005.92 645.59 1001.03 624.99
  Q 993.77 594.39 978.12 563.35
  Q 971.31 549.85 960.32 531.09
  C 941.78 499.43 917.80 471.38 890.57 447.31
  C 868.93 428.17 843.18 411.22 815.74 402.14
  C 788.39 393.09 758.51 388.64 729.96 391.74
  C 710.22 393.88 690.47 399.22 671.57 406.07
  C 655.61 411.86 642.66 418.57 629.42 427.76
  C 597.56 449.85 569.05 475.78 545.58 506.56
  C 519.87 540.28 500.43 580.99 489.37 621.50
  C 484.81 638.16 480.46 656.63 478.59 674.26
  C 476.49 694.03 479.13 712.17 494.45 725.84
  C 501.26 731.91 508.46 737.67 514.98 745.83"
/>
<path stroke="#735934" vector-effect="non-scaling-stroke" d="
  M 514.98 745.83
  Q 502.72 749.68 485.44 752.42
  Q 482.42 752.90 483.30 757.22"
/>
<path stroke="#7c6440" vector-effect="non-scaling-stroke" d="
  M 912.14 739.86
  L 888.22 729.61"
/>
<path stroke="#b89e6d" vector-effect="non-scaling-stroke" d="
  M 888.22 729.61
  Q 902.96 723.44 917.91 717.84
  C 927.09 714.41 934.58 711.13 941.11 705.21
  C 951.46 695.80 956.14 681.62 957.47 667.68
  C 960.11 640.08 953.28 614.32 940.48 589.77
  C 925.58 561.19 910.39 535.40 889.03 513.44
  Q 877.25 501.33 863.84 489.75
  Q 851.44 479.05 841.14 472.58
  C 820.21 459.43 795.63 449.80 770.83 447.52
  Q 754.50 446.02 731.14 448.17
  Q 684.02 452.51 646.63 475.80
  C 620.25 492.22 598.68 509.74 580.16 534.45
  Q 573.06 543.91 561.27 562.90
  Q 551.25 579.02 544.46 592.62
  Q 531.25 619.06 532.38 648.67
  C 532.92 662.97 537.15 677.18 548.32 686.01
  Q 556.95 692.83 568.02 697.76
  Q 582.81 704.34 597.60 711.22"
/>
<path stroke="#7c6440" vector-effect="non-scaling-stroke" d="
  M 597.60 711.22
  Q 574.55 724.31 550.03 734.04"
/>
<path stroke="#836d4a" vector-effect="non-scaling-stroke" d="
  M 864.99 717.34
  L 847.43 706.23"
/>
<path stroke="#c4ad7d" vector-effect="non-scaling-stroke" d="
  M 847.43 706.23
  Q 848.71 705.81 849.47 706.92
  A 0.16 0.16 0.0 0 0 849.71 706.95
  A 0.18 0.17 50.6 0 0 849.73 706.70
  C 844.86 701.08 838.07 696.91 832.71 692.44
  A 0.33 0.33 0.0 0 1 832.86 691.86
  Q 848.08 688.91 859.83 685.65
  C 873.12 681.96 884.93 674.85 890.80 662.52
  Q 897.13 649.21 895.37 633.50
  Q 890.70 591.84 862.80 560.50
  C 842.94 538.18 818.60 520.83 791.49 512.26
  C 772.73 506.33 752.36 505.51 732.75 508.45
  C 710.93 511.72 691.47 515.77 673.85 524.30
  C 642.17 539.64 617.48 564.97 600.64 595.76
  C 589.86 615.47 584.05 638.93 598.22 658.20
  C 601.43 662.56 606.49 667.22 611.22 672.05
  Q 619.93 680.96 619.62 693.63"
/>
<path stroke="#836d4a" vector-effect="non-scaling-stroke" d="
  M 619.62 693.63
  L 611.74 699.98"
/>
<path stroke="#5a4429" vector-effect="non-scaling-stroke" d="
  M 645.46 692.32
  L 634.12 681.76"
/>
<path stroke="#7d694a" vector-effect="non-scaling-stroke" d="
  M 673.56 923.36
  Q 667.43 928.06 661.55 933.31
  C 657.98 936.49 654.76 940.10 655.62 945.15
  C 656.55 950.52 664.86 954.12 669.12 950.36
  Q 671.43 948.32 673.79 946.26"
/>
<path stroke="#c1aa7b" vector-effect="non-scaling-stroke" d="
  M 673.79 946.26
  Q 673.21 947.10 673.18 947.91
  A 0.41 0.41 0.0 0 0 673.71 948.31
  Q 675.48 947.75 677.15 946.34
  Q 685.19 939.54 690.98 936.25
  C 696.25 933.26 701.23 932.27 706.45 930.90
  Q 708.51 930.36 709.04 928.11"
/>
<path stroke="#7d694a" vector-effect="non-scaling-stroke" d="
  M 709.04 928.11
  C 724.37 926.58 740.00 929.32 752.26 939.22
  Q 759.86 945.36 764.47 950.36
  C 766.69 952.78 769.31 954.63 772.15 953.65
  Q 778.77 951.38 779.45 944.04
  A 3.81 3.60 -51.1 0 0 779.35 942.77
  Q 778.33 938.71 775.79 936.21
  Q 772.77 933.24 765.82 927.37"
/>
<path stroke="#b79f71" vector-effect="non-scaling-stroke" d="
  M 826.51 878.47
  Q 815.05 870.74 808.25 862.25
  C 797.05 848.27 791.02 829.86 785.78 812.00
  Q 784.62 808.03 782.92 805.35
  A 0.84 0.84 0.0 0 0 781.60 805.22
  C 780.27 806.60 780.30 812.53 780.38 814.75
  Q 781.06 833.53 788.61 851.69
  C 791.88 859.55 797.38 872.73 801.30 884.71
  Q 803.44 891.25 814.15 923.09
  Q 817.26 932.34 818.49 942.08
  C 819.46 949.77 818.21 957.34 813.64 963.00
  C 796.64 984.08 765.11 992.83 739.60 995.14
  Q 710.93 997.72 684.79 986.31
  C 676.33 982.61 668.42 978.60 661.26 973.24
  Q 656.05 969.33 654.52 966.60
  Q 651.40 961.06 644.97 949.91
  Q 636.66 935.52 639.18 918.20
  Q 640.03 912.37 641.96 901.45
  C 642.32 899.39 642.78 894.92 640.50 893.61
  C 637.14 891.67 638.23 887.78 639.01 884.58
  Q 640.11 880.09 642.25 874.45
  Q 645.21 866.62 653.61 845.70
  Q 658.04 834.66 659.79 822.39
  C 660.37 818.32 660.57 813.22 656.31 810.99"
/>
<path stroke="#765d38" vector-effect="non-scaling-stroke" d="
  M 977.51 769.05
  Q 979.45 763.99 977.01 759.84
  A 2.44 2.37 -1.8 0 0 975.97 758.89
  Q 972.48 757.19 968.82 756.40
  Q 960.58 754.61 952.20 752.55"
/>
<path stroke="#ab8e58" vector-effect="non-scaling-stroke" d="
  M 952.20 752.55
  C 968.85 743.96 983.30 733.61 989.95 715.74
  C 994.61 703.22 994.98 689.00 994.19 674.84
  C 992.98 653.22 989.50 632.01 982.50 611.57
  C 973.11 584.15 960.22 558.42 944.88 533.43
  Q 933.39 514.71 919.70 498.89
  C 904.55 481.38 887.71 464.95 869.48 450.82
  C 828.39 418.97 774.44 402.00 722.58 409.18
  Q 676.40 415.57 637.78 441.03
  Q 597.40 467.65 565.39 504.41
  Q 536.24 537.89 517.99 580.63
  C 506.01 608.70 496.46 639.68 494.92 670.53
  C 493.97 689.57 499.05 705.94 515.85 716.10
  Q 524.77 721.51 530.94 725.01
  Q 538.52 729.31 542.06 737.06"
/>
<path stroke="#765d38" vector-effect="non-scaling-stroke" d="
  M 542.06 737.06
  L 514.98 745.83"
/>
<path stroke="#af9669" vector-effect="non-scaling-stroke" d="
  M 833.27 882.47
  C 829.90 896.39 839.59 907.77 847.25 919.25
  C 855.11 931.06 859.71 942.79 857.91 956.13
  C 855.88 971.28 845.26 980.41 832.61 987.75
  C 782.41 1016.89 724.28 1027.25 669.84 1003.94
  C 655.63 997.85 640.25 989.84 627.93 981.19
  C 616.38 973.08 605.33 962.01 605.07 947.28
  C 604.84 934.91 610.53 922.56 616.00 911.19
  C 623.55 895.50 629.52 879.58 634.17 862.91"
/>
<path stroke="#a78d60" vector-effect="non-scaling-stroke" d="
  M 852.47 890.75
  C 862.15 902.17 872.06 912.32 883.97 919.35
  Q 892.27 924.25 900.81 928.87
  Q 904.52 930.87 907.88 934.01
  C 916.62 942.18 914.77 955.00 910.38 965.02
  C 902.99 981.90 888.67 993.30 872.03 1003.55
  A 0.20 0.19 -31.2 0 1 871.76 1003.49
  L 871.75 1003.49
  Q 871.75 1003.48 871.75 1003.47
  L 877.10 998.72
  A 0.33 0.33 0.0 0 0 876.72 998.19
  Q 862.55 1006.10 853.55 1010.99
  C 827.32 1025.23 800.01 1033.68 770.33 1038.27
  C 748.59 1041.63 728.92 1043.41 708.13 1041.31
  Q 670.66 1037.53 636.56 1022.19
  C 615.71 1012.81 595.77 998.15 583.68 978.74
  C 574.10 963.36 570.43 941.07 582.60 925.96
  C 587.13 920.33 592.60 914.87 596.38 908.70
  Q 603.25 897.50 605.39 884.26"
/>
<path stroke="#806a49" vector-effect="non-scaling-stroke" d="
  M 888.22 729.61
  L 864.99 717.34"
/>
<path stroke="#bea677" vector-effect="non-scaling-stroke" d="
  M 864.99 717.34
  Q 870.13 711.87 875.07 708.82
  C 881.94 704.57 895.54 698.36 904.83 690.77
  C 925.26 674.07 929.59 649.39 923.87 624.68
  Q 910.97 568.96 870.66 528.02
  C 853.60 510.69 833.76 498.05 812.04 488.21
  Q 801.78 483.56 792.30 481.54
  Q 765.37 475.80 737.31 476.62
  C 701.66 477.66 670.49 490.01 641.71 510.09
  C 620.31 525.03 604.47 543.13 589.58 564.56
  C 580.01 578.32 571.51 591.72 566.68 605.69
  C 560.12 624.67 557.71 650.18 571.19 666.98
  Q 577.88 675.31 587.93 682.23
  Q 595.87 687.70 611.74 699.98"
/>
<path stroke="#806a49" vector-effect="non-scaling-stroke" d="
  M 611.74 699.98
  L 597.60 711.22"
/>
<path stroke="#79613c" vector-effect="non-scaling-stroke" d="
  M 952.20 752.55
  Q 932.01 747.38 912.14 739.86"
/>
<path stroke="#b19560" vector-effect="non-scaling-stroke" d="
  M 912.14 739.86
  Q 928.08 733.62 943.97 727.73
  Q 955.90 723.30 963.19 716.51
  C 974.68 705.81 978.67 690.80 978.90 675.51
  C 979.61 628.09 958.79 585.59 934.57 544.88
  Q 923.69 526.61 909.12 510.64
  Q 890.19 489.91 870.78 472.90
  Q 854.11 458.28 834.55 447.55
  C 817.01 437.93 798.20 430.11 778.95 427.13
  Q 766.68 425.23 752.65 425.36
  C 720.69 425.68 689.17 430.89 661.34 445.73
  Q 625.07 465.07 592.47 495.76
  C 572.44 514.62 555.61 537.12 541.67 561.03
  C 526.00 587.88 514.99 618.55 511.32 649.85
  Q 509.53 665.08 512.15 677.71
  C 514.91 690.97 523.19 699.63 534.89 705.48
  Q 544.86 710.47 556.85 715.67
  Q 558.26 716.28 569.32 722.19
  A 0.31 0.31 0.0 0 1 569.34 722.72
  Q 562.44 727.00 554.11 729.76
  Q 550.46 730.98 550.03 734.04"
/>
<path stroke="#79613c" vector-effect="non-scaling-stroke" d="
  M 550.03 734.04
  L 542.06 737.06"
/>
<path stroke="#85704f" vector-effect="non-scaling-stroke" d="
  M 847.43 706.23
  Q 831.81 694.71 816.62 682.65
  Q 813.37 680.07 810.14 679.43
  Q 807.92 678.99 806.32 680.18
  C 802.59 682.94 798.90 688.80 803.11 692.78
  C 806.97 696.42 811.60 699.06 816.45 702.98
  Q 823.89 708.99 831.70 714.50"
/>
<path stroke="#c1aa7b" vector-effect="non-scaling-stroke" d="
  M 831.70 714.50
  Q 828.93 715.40 826.44 713.82
  Q 824.42 712.55 816.15 706.81
  A 1.07 1.05 54.3 0 0 815.29 706.66
  Q 801.66 710.44 793.02 722.72
  Q 777.49 744.81 765.59 768.55
  C 754.40 790.89 751.69 816.46 755.21 842.13
  C 757.82 861.19 760.54 879.67 758.91 897.97
  A 13.76 13.54 57.6 0 1 758.18 901.35
  C 756.81 905.24 756.18 907.31 758.00 911.82
  Q 761.22 919.82 765.82 927.37"
/>
<path stroke="#837050" vector-effect="non-scaling-stroke" d="
  M 765.82 927.37
  C 743.88 908.96 713.11 906.81 686.60 916.05
  Q 681.86 917.70 673.56 923.36"
/>
<path stroke="#c1aa7b" vector-effect="non-scaling-stroke" d="
  M 673.56 923.36
  Q 677.21 912.86 678.92 906.00
  C 681.24 896.68 684.36 880.52 687.40 869.39
  C 692.47 850.82 697.46 831.36 696.34 814.02
  Q 695.42 799.79 690.80 786.44
  C 682.99 763.87 672.02 743.98 659.10 724.08
  Q 649.47 709.24 634.60 701.21"
/>
<path stroke="#85704f" vector-effect="non-scaling-stroke" d="
  M 634.60 701.21
  L 645.46 692.32"
/>
<path stroke="#9b845c" vector-effect="non-scaling-stroke" d="
  M 645.46 692.32
  C 651.78 686.19 641.82 675.03 634.12 681.76"
/>
<path stroke="#85704f" vector-effect="non-scaling-stroke" d="
  M 634.12 681.76
  L 619.62 693.63"
/>
<path stroke="#735c3c" vector-effect="non-scaling-stroke" d="
  M 911.63 892.18
  C 892.81 897.67 871.08 896.60 852.47 890.75"
/>
<path stroke="#786141" vector-effect="non-scaling-stroke" d="
  M 852.47 890.75
  Q 842.41 887.58 833.27 882.47"
/>
<path stroke="#7c6545" vector-effect="non-scaling-stroke" d="
  M 833.27 882.47
  L 826.51 878.47"
/>
<path stroke="#806a49" vector-effect="non-scaling-stroke" d="
  M 826.51 878.47
  Q 818.15 872.39 814.01 867.73
  Q 804.78 857.35 797.50 841.27
  Q 788.19 820.72 786.77 794.50
  C 785.89 778.32 791.56 761.05 799.45 747.19
  C 806.96 734.00 819.42 722.91 832.56 715.92
  A 0.48 0.48 0.0 0 0 832.72 715.22
  Q 832.39 714.76 831.70 714.50"
/>
<path stroke="#837050" vector-effect="non-scaling-stroke" d="
  M 709.04 928.11
  C 694.66 929.34 683.87 936.18 673.79 946.26"
/>
<path stroke="#cab487" vector-effect="non-scaling-stroke" d="
  M 727.66 752.21
  Q 732.38 750.49 735.65 747.29
  Q 744.77 738.33 752.87 725.87
  C 762.85 710.53 770.77 696.71 781.66 683.00
  Q 796.69 664.08 818.64 658.14
  C 837.23 653.10 863.27 650.35 858.54 623.25
  C 855.31 604.78 842.98 586.66 828.96 574.86
  Q 814.68 562.83 798.33 552.54
  Q 772.45 536.23 742.33 540.61
  Q 724.06 543.26 702.62 550.58
  Q 682.23 557.54 667.06 570.75
  Q 651.72 584.10 639.11 601.10
  C 630.70 612.45 625.86 626.89 630.36 640.23
  Q 633.38 649.22 640.89 657.75
  C 647.85 665.65 655.51 673.60 662.64 682.62
  Q 668.15 689.59 671.19 693.83
  Q 694.56 726.41 702.88 737.55
  C 708.02 744.44 717.31 755.97 727.66 752.21"
/>
<path stroke="#847359" vector-effect="non-scaling-stroke" d="
  M 851.7472 800.7675
  A 13.41 12.99 -19.8 0 0 834.7298 793.0880
  A 13.41 12.99 -19.8 0 0 826.5128 809.8525
  A 13.41 12.99 -19.8 0 0 843.5302 817.5320
  A 13.41 12.99 -19.8 0 0 851.7472 800.7675"
/>
<path stroke="#553c21" vector-effect="non-scaling-stroke" d="
  M 815.42 840.42
  Q 823.59 850.74 824.97 852.05
  Q 838.43 864.81 856.16 871.08
  Q 856.80 871.31 865.25 873.80
  C 873.02 876.09 880.67 876.00 888.86 875.82
  Q 895.86 875.66 902.90 873.42
  Q 911.31 870.74 917.40 868.12
  A 0.68 0.66 74.3 0 0 917.79 867.40
  Q 916.61 859.49 913.77 852.70
  A 0.56 0.55 69.3 0 1 914.10 851.96
  Q 919.71 850.02 920.38 843.43
  A 1.95 1.93 36.0 0 0 920.22 842.45
  C 918.33 838.16 913.72 836.78 909.16 836.04
  C 903.48 835.11 900.56 838.99 897.74 843.06
  A 1.32 1.29 8.8 0 1 897.04 843.56
  Q 880.29 848.45 861.20 843.75
  C 843.54 839.40 831.51 836.59 815.57 840.00
  A 0.26 0.26 0.0 0 0 815.42 840.42"
/>
<path stroke="#847359" vector-effect="non-scaling-stroke" d="
  M 595.7906 799.9758
  A 11.10 10.82 -177.5 0 0 606.4080 811.2697
  A 11.10 10.82 -177.5 0 0 617.9694 800.9442
  A 11.10 10.82 -177.5 0 0 607.3520 789.6503
  A 11.10 10.82 -177.5 0 0 595.7906 799.9758"
/>
<path stroke="#553c21" vector-effect="non-scaling-stroke" d="
  M 523.03 843.39
  Q 518.14 846.21 514.73 850.37
  A 0.71 0.70 -42.7 0 0 514.69 851.21
  Q 516.17 853.42 518.85 855.83
  Q 523.51 860.02 525.11 861.05
  C 529.33 863.78 536.18 867.09 542.71 869.03
  Q 550.33 871.29 551.03 871.43
  C 564.38 874.19 576.95 873.59 589.56 869.18
  C 597.21 866.51 605.31 863.91 611.44 858.25
  C 614.49 855.44 618.96 852.82 621.69 849.58
  C 625.08 845.57 627.44 840.83 629.90 835.74
  A 0.42 0.42 0.0 0 0 629.59 835.14
  Q 615.53 832.86 605.38 835.03
  C 590.36 838.23 577.28 841.06 562.84 835.91
  Q 557.97 834.17 548.82 829.29"
/>
<path stroke="#847359" vector-effect="non-scaling-stroke" d="
  M 548.82 829.29
  C 547.89 820.03 541.09 811.18 531.40 811.49
  Q 524.12 811.73 518.97 817.04
  Q 514.15 822.00 514.43 829.51
  Q 514.79 838.93 523.03 843.39"
/>
<path stroke="#957f5e" vector-effect="non-scaling-stroke" d="
  M 548.82 829.29
  Q 547.20 839.83 538.48 844.05
  C 533.23 846.60 528.11 845.94 523.03 843.39"
/>
</g>
<path fill="#c6b081" d="
  M 891.09 376.66
  Q 889.10 376.35 886.47 374.42
  Q 884.03 372.62 878.17 369.67
  Q 875.62 368.38 872.80 366.69
  Q 867.83 363.73 867.53 363.56
  Q 849.49 353.49 829.24 346.27
  Q 823.47 344.21 819.02 343.18
  C 814.30 342.09 808.61 339.99 803.25 339.28
  C 798.61 338.65 793.82 337.11 789.56 336.42
  Q 789.52 336.41 768.77 332.87
  Q 755.23 330.57 747.86 330.35
  Q 733.04 329.90 720.68 331.25
  C 717.29 331.63 712.32 333.19 709.74 333.60
  C 702.91 334.68 696.14 335.63 689.52 337.48
  Q 684.77 338.82 680.25 339.77
  C 677.01 340.45 673.66 342.20 670.46 343.11
  Q 667.80 343.87 663.06 345.54
  Q 639.87 353.69 614.63 368.84
  Q 584.74 386.78 563.48 405.02
  C 561.26 406.93 560.25 408.33 558.30 409.68
  C 555.82 411.40 553.19 414.29 550.54 416.47
  L 560.41 407.57
  A 0.83 0.80 74.0 0 0 560.68 407.06
  Q 560.79 406.35 561.44 405.91
  Q 562.93 404.90 565.02 402.98
  A 0.09 0.09 0.0 0 0 564.95 402.82
  Q 564.68 402.85 564.65 402.83
  A 0.37 0.34 38.3 0 1 564.56 402.28
  L 566.29 400.55
  L 571.73 395.26
  C 579.51 389.75 587.08 384.09 595.00 378.79
  C 599.50 375.78 605.05 373.24 609.45 370.01
  Q 612.32 367.91 615.31 366.25
  C 620.02 363.65 623.52 360.78 628.35 358.08
  Q 632.52 355.76 635.60 353.51
  A 9.74 9.68 18.1 0 1 638.44 352.08
  Q 642.03 350.96 644.87 348.96
  A 1.69 1.65 -72.2 0 1 645.21 348.78
  L 657.86 343.31
  A 1.39 0.61 -39.7 0 1 658.07 343.25
  Q 664.22 341.88 668.17 339.63
  C 670.81 338.12 673.35 338.06 676.14 337.16
  Q 683.77 334.68 686.49 333.71
  A 8.39 7.98 -56.3 0 1 688.39 333.28
  Q 694.46 332.63 699.32 331.48
  Q 703.86 330.40 710.30 330.04
  Q 731.60 328.86 748.65 328.68
  C 754.61 328.62 759.01 328.94 765.61 329.40
  Q 769.39 329.66 772.36 330.10
  Q 782.25 331.56 789.97 332.70
  C 791.33 332.90 792.71 333.55 793.97 333.69
  Q 799.25 334.27 805.61 336.49
  A 5.55 5.31 -29.6 0 0 806.64 336.75
  Q 809.95 337.25 812.09 338.00
  Q 812.80 338.25 817.56 339.48
  Q 821.15 340.41 823.67 341.75
  A 3.63 3.53 63.4 0 0 824.79 342.14
  Q 829.27 342.95 833.89 345.74
  Q 835.14 346.50 839.02 347.37
  A 4.25 3.77 61.4 0 1 839.99 347.72
  C 846.54 351.05 851.07 352.75 856.65 355.95
  Q 860.47 358.15 870.17 363.12
  Q 876.99 366.63 891.09 376.66
  Z"
/>
<path fill="#604427" d="
  M 891.09 376.66
  Q 898.50 382.08 905.98 387.45
  Q 913.97 393.17 920.51 398.69
  Q 932.38 408.68 936.30 412.45
  Q 957.27 432.65 978.74 461.63
  Q 981.25 466.85 983.14 469.37
  Q 986.07 473.29 989.22 477.49
  Q 991.98 481.16 994.15 485.03
  Q 997.04 490.17 999.02 492.60
  A 8.06 7.49 -78.9 0 1 1000.10 494.34
  Q 1002.41 499.49 1004.54 501.89
  A 5.25 5.24 -75.0 0 1 1005.60 503.73
  Q 1006.12 505.27 1007.65 507.61
  Q 1009.14 509.89 1010.20 511.94
  Q 1013.77 518.85 1017.41 525.50
  Q 1019.11 528.62 1024.46 538.50
  Q 1026.30 541.90 1028.77 547.84
  C 1030.28 551.46 1032.39 554.95 1033.83 559.24
  A 3.82 3.42 -72.8 0 0 1034.10 559.83
  L 1035.74 562.70
  A 4.56 4.34 -70.1 0 1 1036.14 563.61
  C 1037.50 568.04 1039.98 572.65 1041.54 576.73
  Q 1044.08 583.38 1046.44 588.13
  Q 1047.96 591.18 1048.32 592.40
  A 1.32 0.02 74.3 0 0 1048.63 593.43
  Q 1053.91 606.78 1055.58 612.60
  Q 1057.53 619.45 1059.26 622.49
  A 3.22 3.10 25.5 0 1 1059.61 623.42
  Q 1061.24 631.56 1064.00 638.49
  C 1065.19 641.46 1065.83 646.45 1068.11 650.16
  A 4.08 4.02 24.9 0 1 1068.65 651.60
  C 1069.93 659.12 1072.66 666.32 1074.18 673.98
  Q 1074.82 677.19 1077.05 683.63
  A 5.62 5.22 -60.0 0 1 1077.32 684.81
  Q 1078.45 694.82 1080.34 700.72
  Q 1081.18 703.36 1081.50 706.00
  Q 1081.86 708.98 1081.87 709.00
  Q 1086.01 732.35 1087.33 744.09
  Q 1088.05 750.60 1088.20 751.45
  C 1089.29 757.70 1089.32 762.93 1090.42 768.98
  Q 1091.51 774.96 1091.94 779.15
  Q 1092.23 782.03 1094.43 799.17
  Q 1094.73 801.51 1095.28 803.79
  Q 1098.57 836.03 1096.36 868.35
  Q 1096.10 872.14 1094.77 881.50
  Q 1094.25 887.41 1092.81 892.04
  A 9.90 9.70 -35.0 0 0 1092.41 894.18
  Q 1092.12 898.05 1091.15 903.23
  Q 1090.49 906.74 1089.45 908.82
  A 4.40 4.32 -28.8 0 0 1089.02 910.25
  Q 1088.00 919.10 1084.29 930.06
  C 1081.67 937.83 1079.47 944.89 1074.35 960.90
  Q 1070.29 973.62 1064.62 985.82
  C 1065.75 973.51 1065.63 962.49 1056.04 953.37
  Q 1063.14 928.81 1065.04 920.33
  Q 1071.41 891.89 1072.43 862.68
  Q 1072.76 855.14 1073.01 847.57
  Q 1073.28 839.64 1073.01 832.44
  Q 1071.96 803.86 1068.33 775.44
  Q 1063.71 732.05 1054.05 689.42
  Q 1052.58 681.45 1050.47 673.52
  Q 1041.49 639.69 1029.08 606.95
  C 1019.59 582.42 1010.46 563.05 998.08 538.26
  Q 994.05 530.20 989.66 522.85
  C 982.40 510.73 978.15 503.38 971.50 493.54
  Q 965.29 484.34 961.86 479.64
  Q 954.61 469.68 940.91 453.91
  Q 921.45 431.50 896.80 411.77
  Q 887.84 404.60 877.37 397.82
  Q 862.31 388.06 857.19 385.09
  Q 819.10 363.06 775.97 356.18
  C 732.46 349.23 688.21 357.90 649.21 377.48
  Q 632.88 385.68 628.23 388.52
  Q 605.68 402.33 585.89 418.65
  Q 584.26 420.00 572.36 430.62
  Q 565.12 437.08 559.36 443.13
  Q 547.44 455.64 536.68 468.79
  C 526.87 480.76 517.81 493.97 510.20 505.44
  Q 500.09 520.69 490.97 537.97
  Q 485.16 549.00 482.01 554.58
  C 477.31 562.94 472.95 572.42 468.67 581.43
  Q 457.80 603.51 449.07 628.58
  Q 438.28 659.58 430.48 687.23
  Q 426.83 699.64 425.42 705.69
  C 422.09 720.05 419.34 730.69 417.24 743.02
  Q 415.87 751.05 414.57 759.65
  Q 413.63 765.90 413.06 771.95
  Q 409.55 799.44 408.77 807.75
  Q 407.67 819.34 407.03 839.70
  L 407.19 851.50
  Q 398.19 833.09 395.77 812.64
  Q 394.77 804.20 393.63 791.62
  Q 393.35 788.47 392.64 786.29
  C 391.21 781.86 387.49 786.98 386.40 788.35
  L 391.64 752.28
  A 2.89 2.83 -30.4 0 1 391.82 751.62
  Q 394.39 745.38 394.41 737.98
  A 4.58 4.55 -39.1 0 1 394.51 737.03
  Q 398.31 718.81 399.65 713.13
  Q 400.03 711.53 401.01 706.35
  C 402.20 700.01 402.85 698.18 404.34 691.41
  Q 405.65 685.47 407.70 680.91
  A 3.86 3.59 62.6 0 0 407.98 679.90
  Q 408.97 672.12 411.50 665.65
  Q 412.44 663.24 413.45 659.56
  Q 414.20 656.84 414.97 653.32
  C 415.28 651.86 416.29 649.78 417.14 647.89
  A 4.33 4.08 65.1 0 0 417.44 646.99
  Q 418.60 641.67 419.95 638.74
  Q 422.83 632.51 423.66 628.12
  A 2.22 1.82 66.0 0 1 423.74 627.83
  L 432.03 607.54
  A 1.27 0.89 -50.7 0 0 432.08 607.38
  Q 433.09 602.39 435.20 598.70
  A 6.72 6.17 71.6 0 0 435.67 597.65
  Q 437.43 592.53 439.86 588.74
  A 5.03 4.96 71.1 0 0 440.36 587.70
  Q 443.41 578.52 448.00 570.20
  C 449.22 567.99 450.19 565.77 451.07 563.09
  Q 451.71 561.15 453.48 557.81
  Q 458.73 547.94 459.63 545.97
  Q 461.64 541.53 463.90 538.83
  A 2.70 2.68 -18.2 0 0 464.48 537.69
  Q 465.14 534.92 467.22 532.62
  A 3.29 3.26 75.3 0 0 467.86 531.51
  Q 468.94 528.27 470.53 525.89
  C 474.19 520.43 477.85 513.08 479.72 510.06
  C 481.70 506.84 483.23 505.07 484.77 502.04
  Q 485.77 500.09 488.49 497.02
  A 3.56 3.20 80.7 0 0 488.99 496.24
  Q 490.45 493.01 491.97 491.42
  A 2.69 2.66 -13.7 0 0 492.55 490.48
  Q 493.09 489.03 493.89 487.62
  Q 499.68 477.43 505.77 469.91
  Q 507.77 467.43 510.41 463.80
  Q 513.95 458.92 514.82 457.55
  Q 517.10 453.93 521.70 448.39
  Q 526.14 443.06 531.85 436.09
  Q 537.39 429.34 550.54 416.47
  C 553.19 414.29 555.82 411.40 558.30 409.68
  C 560.25 408.33 561.26 406.93 563.48 405.02
  Q 584.74 386.78 614.63 368.84
  Q 639.87 353.69 663.06 345.54
  Q 667.80 343.87 670.46 343.11
  C 673.66 342.20 677.01 340.45 680.25 339.77
  Q 684.77 338.82 689.52 337.48
  C 696.14 335.63 702.91 334.68 709.74 333.60
  C 712.32 333.19 717.29 331.63 720.68 331.25
  Q 733.04 329.90 747.86 330.35
  Q 755.23 330.57 768.77 332.87
  Q 789.52 336.41 789.56 336.42
  C 793.82 337.11 798.61 338.65 803.25 339.28
  C 808.61 339.99 814.30 342.09 819.02 343.18
  Q 823.47 344.21 829.24 346.27
  Q 849.49 353.49 867.53 363.56
  Q 867.83 363.73 872.80 366.69
  Q 875.62 368.38 878.17 369.67
  Q 884.03 372.62 886.47 374.42
  Q 889.10 376.35 891.09 376.66
  Z"
/>
<path fill="#997943" d="
  M 1029.08 606.95
  Q 1030.34 619.46 1030.89 622.92
  C 1037.42 664.23 1043.62 701.77 1043.89 743.05
  L 1042.02 751.10
  A 0.34 0.33 49.2 0 1 1041.36 751.05
  L 1039.93 734.12
  A 0.09 0.09 0.0 0 0 1039.84 734.04
  L 1039.72 734.03
  A 0.35 0.35 0.0 0 0 1039.37 734.35
  Q 1037.98 749.55 1037.42 754.29
  Q 1032.32 797.09 1028.90 826.46
  Q 1025.12 858.79 1014.20 885.63
  Q 1006.92 903.54 986.47 941.72
  Q 985.79 942.99 984.81 943.82
  A 0.42 0.42 0.0 0 1 984.14 943.62
  Q 983.98 943.11 984.59 940.40
  Q 986.16 933.39 988.05 926.45
  L 992.04 915.75
  Q 1001.65 897.71 1007.66 874.27
  Q 1012.82 854.16 1015.39 837.02
  Q 1025.29 771.21 1025.56 769.50
  Q 1029.86 742.25 1029.71 717.78
  Q 1029.59 699.63 1027.69 689.18
  Q 1025.40 676.60 1021.03 648.84
  C 1015.98 616.83 1005.55 587.16 991.09 556.56
  C 980.83 534.85 969.59 514.68 955.60 496.62
  Q 938.03 473.95 916.26 451.06
  C 902.86 436.97 889.65 425.87 874.73 414.75
  C 849.87 396.23 821.83 384.36 791.73 377.60
  C 770.33 372.79 750.39 370.79 729.43 373.21
  C 689.12 377.87 648.60 395.47 615.90 418.76
  C 603.23 427.79 590.47 439.06 577.77 450.53
  C 534.50 489.62 503.00 539.47 482.80 594.78
  Q 467.25 637.36 462.89 689.51
  Q 461.60 705.08 464.27 720.91
  C 466.70 735.28 471.44 748.29 483.30 757.22
  L 485.42 765.65
  A 3.14 3.11 46.0 0 1 485.40 767.28
  C 479.34 789.01 477.89 814.27 485.03 835.76
  C 486.86 841.26 488.76 847.67 491.69 853.02
  Q 498.42 865.28 509.09 874.39
  L 498.05 897.01
  C 492.38 901.32 489.50 905.06 489.50 912.38
  Q 489.51 918.39 489.80 924.41
  Q 489.87 925.99 489.35 926.83
  A 0.95 0.95 0.0 0 1 487.81 926.92
  Q 484.97 923.42 482.81 918.68
  Q 478.43 909.09 475.29 899.76
  Q 471.34 887.99 464.02 867.09
  Q 461.67 860.39 459.07 845.20
  Q 456.26 829.96 453.05 814.80
  Q 447.90 790.48 447.12 784.41
  Q 445.17 769.26 444.19 751.90
  C 442.78 727.06 441.71 702.79 444.36 678.30
  Q 445.91 663.95 450.54 644.12
  Q 457.94 612.36 468.67 581.43
  C 472.95 572.42 477.31 562.94 482.01 554.58
  Q 485.16 549.00 490.97 537.97
  Q 500.09 520.69 510.20 505.44
  C 517.81 493.97 526.87 480.76 536.68 468.79
  Q 547.44 455.64 559.36 443.13
  Q 565.12 437.08 572.36 430.62
  Q 584.26 420.00 585.89 418.65
  Q 605.68 402.33 628.23 388.52
  Q 632.88 385.68 649.21 377.48
  C 688.21 357.90 732.46 349.23 775.97 356.18
  Q 819.10 363.06 857.19 385.09
  Q 862.31 388.06 877.37 397.82
  Q 887.84 404.60 896.80 411.77
  Q 921.45 431.50 940.91 453.91
  Q 954.61 469.68 961.86 479.64
  Q 965.29 484.34 971.50 493.54
  C 978.15 503.38 982.40 510.73 989.66 522.85
  Q 994.05 530.20 998.08 538.26
  C 1010.46 563.05 1019.59 582.42 1029.08 606.95
  Z"
/>
<path fill="#a1814c" d="
  M 992.04 915.75
  L 990.26 911.95
  A 1.32 1.32 0.0 0 0 988.26 911.45
  Q 986.17 913.02 984.50 915.78
  Q 981.43 920.84 973.59 934.47
  C 972.83 935.79 970.28 939.87 968.20 940.75
  A 1.02 1.02 0.0 0 1 967.22 940.65
  Q 965.90 939.74 965.18 937.76
  Q 966.31 932.40 966.16 926.62
  Q 966.05 922.27 962.58 921.10
  Q 956.94 919.20 951.22 917.45
  Q 936.55 912.97 922.77 904.94
  Q 914.93 900.37 911.63 892.18
  C 935.42 884.87 955.35 869.10 965.38 846.11
  C 972.94 828.77 977.76 809.71 975.57 790.98
  Q 974.28 779.95 972.92 773.27
  A 0.92 0.92 0.0 0 1 973.51 772.22
  Q 976.05 771.31 977.51 769.05
  Q 983.51 763.97 987.85 759.36
  C 1004.82 741.36 1008.23 716.47 1008.34 692.19
  C 1008.45 670.32 1005.92 645.59 1001.03 624.99
  Q 993.77 594.39 978.12 563.35
  Q 971.31 549.85 960.32 531.09
  C 941.78 499.43 917.80 471.38 890.57 447.31
  C 868.93 428.17 843.18 411.22 815.74 402.14
  C 788.39 393.09 758.51 388.64 729.96 391.74
  C 710.22 393.88 690.47 399.22 671.57 406.07
  C 655.61 411.86 642.66 418.57 629.42 427.76
  C 597.56 449.85 569.05 475.78 545.58 506.56
  C 519.87 540.28 500.43 580.99 489.37 621.50
  C 484.81 638.16 480.46 656.63 478.59 674.26
  C 476.49 694.03 479.13 712.17 494.45 725.84
  C 501.26 731.91 508.46 737.67 514.98 745.83
  Q 502.72 749.68 485.44 752.42
  Q 482.42 752.90 483.30 757.22
  C 471.44 748.29 466.70 735.28 464.27 720.91
  Q 461.60 705.08 462.89 689.51
  Q 467.25 637.36 482.80 594.78
  C 503.00 539.47 534.50 489.62 577.77 450.53
  C 590.47 439.06 603.23 427.79 615.90 418.76
  C 648.60 395.47 689.12 377.87 729.43 373.21
  C 750.39 370.79 770.33 372.79 791.73 377.60
  C 821.83 384.36 849.87 396.23 874.73 414.75
  C 889.65 425.87 902.86 436.97 916.26 451.06
  Q 938.03 473.95 955.60 496.62
  C 969.59 514.68 980.83 534.85 991.09 556.56
  C 1005.55 587.16 1015.98 616.83 1021.03 648.84
  Q 1025.40 676.60 1027.69 689.18
  Q 1029.59 699.63 1029.71 717.78
  Q 1029.86 742.25 1025.56 769.50
  Q 1025.29 771.21 1015.39 837.02
  Q 1012.82 854.16 1007.66 874.27
  Q 1001.65 897.71 992.04 915.75
  Z"
/>
<path fill="#a88a54" d="
  M 977.51 769.05
  Q 979.45 763.99 977.01 759.84
  A 2.44 2.37 -1.8 0 0 975.97 758.89
  Q 972.48 757.19 968.82 756.40
  Q 960.58 754.61 952.20 752.55
  C 968.85 743.96 983.30 733.61 989.95 715.74
  C 994.61 703.22 994.98 689.00 994.19 674.84
  C 992.98 653.22 989.50 632.01 982.50 611.57
  C 973.11 584.15 960.22 558.42 944.88 533.43
  Q 933.39 514.71 919.70 498.89
  C 904.55 481.38 887.71 464.95 869.48 450.82
  C 828.39 418.97 774.44 402.00 722.58 409.18
  Q 676.40 415.57 637.78 441.03
  Q 597.40 467.65 565.39 504.41
  Q 536.24 537.89 517.99 580.63
  C 506.01 608.70 496.46 639.68 494.92 670.53
  C 493.97 689.57 499.05 705.94 515.85 716.10
  Q 524.77 721.51 530.94 725.01
  Q 538.52 729.31 542.06 737.06
  L 514.98 745.83
  C 508.46 737.67 501.26 731.91 494.45 725.84
  C 479.13 712.17 476.49 694.03 478.59 674.26
  C 480.46 656.63 484.81 638.16 489.37 621.50
  C 500.43 580.99 519.87 540.28 545.58 506.56
  C 569.05 475.78 597.56 449.85 629.42 427.76
  C 642.66 418.57 655.61 411.86 671.57 406.07
  C 690.47 399.22 710.22 393.88 729.96 391.74
  C 758.51 388.64 788.39 393.09 815.74 402.14
  C 843.18 411.22 868.93 428.17 890.57 447.31
  C 917.80 471.38 941.78 499.43 960.32 531.09
  Q 971.31 549.85 978.12 563.35
  Q 993.77 594.39 1001.03 624.99
  C 1005.92 645.59 1008.45 670.32 1008.34 692.19
  C 1008.23 716.47 1004.82 741.36 987.85 759.36
  Q 983.51 763.97 977.51 769.05
  Z"
/>
<path fill="#c4b596" d="
  M 571.73 395.26
  L 566.29 400.55
  L 562.10 403.04
  Q 566.36 398.46 571.73 395.26
  Z"
/>
<path fill="#a2a09c" d="
  M 566.29 400.55
  L 564.56 402.28
  A 0.37 0.34 38.3 0 0 564.65 402.83
  Q 564.68 402.85 564.95 402.82
  A 0.09 0.09 0.0 0 1 565.02 402.98
  Q 562.93 404.90 561.44 405.91
  Q 560.79 406.35 560.68 407.06
  A 0.83 0.80 74.0 0 1 560.41 407.57
  L 550.54 416.47
  Q 537.39 429.34 531.85 436.09
  Q 526.14 443.06 521.70 448.39
  Q 517.10 453.93 514.82 457.55
  Q 513.95 458.92 510.41 463.80
  Q 507.77 467.43 505.77 469.91
  Q 499.68 477.43 493.89 487.62
  Q 493.09 489.03 492.55 490.48
  A 2.69 2.66 -13.7 0 1 491.97 491.42
  Q 490.45 493.01 488.99 496.24
  A 3.56 3.20 80.7 0 1 488.49 497.02
  Q 485.77 500.09 484.77 502.04
  C 483.23 505.07 481.70 506.84 479.72 510.06
  C 477.85 513.08 474.19 520.43 470.53 525.89
  Q 468.94 528.27 467.86 531.51
  A 3.29 3.26 75.3 0 1 467.22 532.62
  Q 465.14 534.92 464.48 537.69
  A 2.70 2.68 -18.2 0 1 463.90 538.83
  Q 461.64 541.53 459.63 545.97
  Q 458.73 547.94 453.48 557.81
  Q 451.71 561.15 451.07 563.09
  C 450.19 565.77 449.22 567.99 448.00 570.20
  Q 443.41 578.52 440.36 587.70
  A 5.03 4.96 71.1 0 1 439.86 588.74
  Q 437.43 592.53 435.67 597.65
  A 6.72 6.17 71.6 0 1 435.20 598.70
  Q 433.09 602.39 432.08 607.38
  A 1.27 0.89 -50.7 0 1 432.03 607.54
  L 423.74 627.83
  A 2.22 1.82 66.0 0 0 423.66 628.12
  Q 422.83 632.51 419.95 638.74
  Q 418.60 641.67 417.44 646.99
  A 4.33 4.08 65.1 0 1 417.14 647.89
  C 416.29 649.78 415.28 651.86 414.97 653.32
  Q 414.20 656.84 413.45 659.56
  Q 412.44 663.24 411.50 665.65
  Q 408.97 672.12 407.98 679.90
  A 3.86 3.59 62.6 0 1 407.70 680.91
  Q 405.65 685.47 404.34 691.41
  C 402.85 698.18 402.20 700.01 401.01 706.35
  Q 400.03 711.53 399.65 713.13
  Q 398.31 718.81 394.51 737.03
  A 4.58 4.55 -39.1 0 0 394.41 737.98
  Q 394.39 745.38 391.82 751.62
  A 2.89 2.83 -30.4 0 0 391.64 752.28
  L 386.40 788.35
  Q 385.81 798.46 385.26 808.70
  C 385.11 811.56 384.63 816.56 383.96 819.81
  Q 383.46 822.23 383.68 828.19
  Q 383.84 832.65 383.48 841.00
  Q 383.34 844.16 383.43 865.25
  Q 383.43 867.32 384.26 870.24
  Q 384.97 872.74 385.85 885.90
  A 4.28 4.27 35.5 0 0 385.97 886.61
  Q 387.42 892.35 387.42 897.83
  A 5.55 5.36 40.2 0 0 387.55 899.10
  Q 388.93 905.71 389.57 909.86
  Q 390.36 914.96 391.86 920.95
  Q 395.32 934.79 396.47 939.88
  A 2.72 2.66 22.5 0 0 396.89 940.86
  Q 397.67 942.00 397.66 943.48
  A 1.49 1.47 36.5 0 0 397.73 943.93
  L 404.71 966.55
  L 413.95 991.34
  A 1.00 0.66 33.7 0 0 414.00 991.46
  Q 416.97 996.64 418.08 1002.16
  Q 411.58 988.85 408.20 979.56
  Q 406.67 975.34 405.51 972.33
  Q 403.86 968.03 401.78 962.65
  Q 399.94 957.88 398.45 952.84
  Q 393.50 936.10 390.04 921.07
  C 389.38 918.20 389.14 914.93 388.19 911.88
  Q 387.90 910.94 387.43 908.21
  Q 384.18 889.50 383.17 870.89
  Q 382.80 864.06 382.01 855.08
  Q 381.40 848.03 381.64 839.25
  C 381.73 835.86 381.02 831.33 381.71 827.41
  Q 382.15 824.86 382.14 822.57
  Q 382.10 818.23 382.13 807.21
  A 1.35 1.29 -29.1 0 1 382.36 806.47
  Q 382.40 806.41 382.44 806.36
  A 0.36 0.36 0.0 0 0 382.51 806.18
  L 383.65 788.72
  A 1.47 1.23 -39.9 0 1 383.70 788.44
  Q 384.80 784.60 384.63 781.30
  A 3.00 2.95 -37.1 0 1 384.80 780.15
  Q 384.93 779.76 385.30 774.70
  Q 385.59 770.74 386.16 767.04
  Q 386.38 765.59 387.81 759.51
  Q 389.05 754.22 389.06 749.69
  C 389.07 746.74 389.66 744.68 389.83 741.47
  A 3.77 3.71 56.6 0 1 390.03 740.46
  Q 392.95 732.05 393.80 722.52
  A 5.77 5.21 58.7 0 1 394.00 721.47
  Q 397.54 709.96 399.71 697.11
  A 3.66 3.61 60.6 0 1 399.90 696.41
  Q 402.25 690.17 402.74 684.51
  A 4.93 4.51 59.2 0 1 402.94 683.54
  L 406.89 671.20
  A 2.04 1.65 -39.0 0 0 406.98 670.78
  Q 407.71 663.68 410.62 656.75
  A 6.29 5.71 65.4 0 0 410.91 655.84
  Q 412.52 648.65 413.37 647.12
  Q 415.83 642.69 417.21 636.57
  A 4.47 4.39 64.5 0 1 417.54 635.61
  Q 420.04 630.43 421.73 624.67
  C 422.59 621.76 424.03 619.06 425.13 616.92
  A 3.69 3.65 -29.8 0 0 425.53 615.48
  Q 425.86 610.79 427.32 607.93
  Q 430.70 601.28 431.55 597.02
  A 3.14 3.01 66.9 0 1 431.89 596.12
  Q 434.14 592.12 434.16 592.09
  A 2.68 2.60 -18.5 0 0 434.71 591.03
  Q 436.06 585.61 439.19 580.17
  A 4.17 4.00 -24.3 0 0 439.64 579.05
  Q 440.70 574.83 442.97 571.63
  A 3.63 3.52 -19.3 0 0 443.42 570.73
  Q 444.65 566.99 445.14 566.07
  Q 450.85 555.52 455.67 544.80
  Q 457.13 541.54 459.10 538.33
  C 459.51 537.66 459.24 537.02 459.66 536.41
  Q 462.46 532.36 463.65 529.46
  A 0.20 0.06 -43.4 0 1 463.69 529.39
  L 467.14 524.69
  A 1.36 1.35 62.6 0 0 467.40 523.86
  Q 467.39 522.98 468.45 521.18
  Q 473.71 512.24 475.17 510.15
  Q 476.16 508.73 476.60 507.37
  A 2.24 1.99 -23.1 0 1 476.87 506.80
  L 490.05 486.30
  A 2.04 1.81 -8.0 0 1 490.39 485.90
  Q 492.51 483.99 493.49 481.76
  A 3.68 3.33 -18.2 0 1 493.90 481.04
  C 497.16 476.54 499.46 471.64 502.92 467.52
  Q 504.67 465.44 510.75 456.73
  C 517.59 446.95 526.17 439.01 534.19 430.34
  C 543.06 420.76 552.62 411.94 562.10 403.04
  L 566.29 400.55
  Z
  M 522.8423 443.2388
  A 3.44 0.32 -46.4 0 0 520.2383 445.5093
  A 3.44 0.32 -46.4 0 0 518.0977 448.2212
  A 3.44 0.32 -46.4 0 0 520.7017 445.9507
  A 3.44 0.32 -46.4 0 0 522.8423 443.2388
  Z"
/>
<path fill="#ae915c" d="
  M 952.20 752.55
  Q 932.01 747.38 912.14 739.86
  Q 928.08 733.62 943.97 727.73
  Q 955.90 723.30 963.19 716.51
  C 974.68 705.81 978.67 690.80 978.90 675.51
  C 979.61 628.09 958.79 585.59 934.57 544.88
  Q 923.69 526.61 909.12 510.64
  Q 890.19 489.91 870.78 472.90
  Q 854.11 458.28 834.55 447.55
  C 817.01 437.93 798.20 430.11 778.95 427.13
  Q 766.68 425.23 752.65 425.36
  C 720.69 425.68 689.17 430.89 661.34 445.73
  Q 625.07 465.07 592.47 495.76
  C 572.44 514.62 555.61 537.12 541.67 561.03
  C 526.00 587.88 514.99 618.55 511.32 649.85
  Q 509.53 665.08 512.15 677.71
  C 514.91 690.97 523.19 699.63 534.89 705.48
  Q 544.86 710.47 556.85 715.67
  Q 558.26 716.28 569.32 722.19
  A 0.31 0.31 0.0 0 1 569.34 722.72
  Q 562.44 727.00 554.11 729.76
  Q 550.46 730.98 550.03 734.04
  L 542.06 737.06
  Q 538.52 729.31 530.94 725.01
  Q 524.77 721.51 515.85 716.10
  C 499.05 705.94 493.97 689.57 494.92 670.53
  C 496.46 639.68 506.01 608.70 517.99 580.63
  Q 536.24 537.89 565.39 504.41
  Q 597.40 467.65 637.78 441.03
  Q 676.40 415.57 722.58 409.18
  C 774.44 402.00 828.39 418.97 869.48 450.82
  C 887.71 464.95 904.55 481.38 919.70 498.89
  Q 933.39 514.71 944.88 533.43
  C 960.22 558.42 973.11 584.15 982.50 611.57
  C 989.50 632.01 992.98 653.22 994.19 674.84
  C 994.98 689.00 994.61 703.22 989.95 715.74
  C 983.30 733.61 968.85 743.96 952.20 752.55
  Z"
/>
<path fill="#b49864" d="
  M 912.14 739.86
  L 888.22 729.61
  Q 902.96 723.44 917.91 717.84
  C 927.09 714.41 934.58 711.13 941.11 705.21
  C 951.46 695.80 956.14 681.62 957.47 667.68
  C 960.11 640.08 953.28 614.32 940.48 589.77
  C 925.58 561.19 910.39 535.40 889.03 513.44
  Q 877.25 501.33 863.84 489.75
  Q 851.44 479.05 841.14 472.58
  C 820.21 459.43 795.63 449.80 770.83 447.52
  Q 754.50 446.02 731.14 448.17
  Q 684.02 452.51 646.63 475.80
  C 620.25 492.22 598.68 509.74 580.16 534.45
  Q 573.06 543.91 561.27 562.90
  Q 551.25 579.02 544.46 592.62
  Q 531.25 619.06 532.38 648.67
  C 532.92 662.97 537.15 677.18 548.32 686.01
  Q 556.95 692.83 568.02 697.76
  Q 582.81 704.34 597.60 711.22
  Q 574.55 724.31 550.03 734.04
  Q 550.46 730.98 554.11 729.76
  Q 562.44 727.00 569.34 722.72
  A 0.31 0.31 0.0 0 0 569.32 722.19
  Q 558.26 716.28 556.85 715.67
  Q 544.86 710.47 534.89 705.48
  C 523.19 699.63 514.91 690.97 512.15 677.71
  Q 509.53 665.08 511.32 649.85
  C 514.99 618.55 526.00 587.88 541.67 561.03
  C 555.61 537.12 572.44 514.62 592.47 495.76
  Q 625.07 465.07 661.34 445.73
  C 689.17 430.89 720.69 425.68 752.65 425.36
  Q 766.68 425.23 778.95 427.13
  C 798.20 430.11 817.01 437.93 834.55 447.55
  Q 854.11 458.28 870.78 472.90
  Q 890.19 489.91 909.12 510.64
  Q 923.69 526.61 934.57 544.88
  C 958.79 585.59 979.61 628.09 978.90 675.51
  C 978.67 690.80 974.68 705.81 963.19 716.51
  Q 955.90 723.30 943.97 727.73
  Q 928.08 733.62 912.14 739.86
  Z"
/>
<path fill="#bba375" d="
  M 888.22 729.61
  L 864.99 717.34
  Q 870.13 711.87 875.07 708.82
  C 881.94 704.57 895.54 698.36 904.83 690.77
  C 925.26 674.07 929.59 649.39 923.87 624.68
  Q 910.97 568.96 870.66 528.02
  C 853.60 510.69 833.76 498.05 812.04 488.21
  Q 801.78 483.56 792.30 481.54
  Q 765.37 475.80 737.31 476.62
  C 701.66 477.66 670.49 490.01 641.71 510.09
  C 620.31 525.03 604.47 543.13 589.58 564.56
  C 580.01 578.32 571.51 591.72 566.68 605.69
  C 560.12 624.67 557.71 650.18 571.19 666.98
  Q 577.88 675.31 587.93 682.23
  Q 595.87 687.70 611.74 699.98
  L 597.60 711.22
  Q 582.81 704.34 568.02 697.76
  Q 556.95 692.83 548.32 686.01
  C 537.15 677.18 532.92 662.97 532.38 648.67
  Q 531.25 619.06 544.46 592.62
  Q 551.25 579.02 561.27 562.90
  Q 573.06 543.91 580.16 534.45
  C 598.68 509.74 620.25 492.22 646.63 475.80
  Q 684.02 452.51 731.14 448.17
  Q 754.50 446.02 770.83 447.52
  C 795.63 449.80 820.21 459.43 841.14 472.58
  Q 851.44 479.05 863.84 489.75
  Q 877.25 501.33 889.03 513.44
  C 910.39 535.40 925.58 561.19 940.48 589.77
  C 953.28 614.32 960.11 640.08 957.47 667.68
  C 956.14 681.62 951.46 695.80 941.11 705.21
  C 934.58 711.13 927.09 714.41 917.91 717.84
  Q 902.96 723.44 888.22 729.61
  Z"
/>
<path fill="#a2a09c" d="
  M 1095.28 803.79
  Q 1094.73 801.51 1094.43 799.17
  Q 1092.23 782.03 1091.94 779.15
  Q 1091.51 774.96 1090.42 768.98
  C 1089.32 762.93 1089.29 757.70 1088.20 751.45
  Q 1088.05 750.60 1087.33 744.09
  Q 1086.01 732.35 1081.87 709.00
  Q 1081.86 708.98 1081.50 706.00
  Q 1081.18 703.36 1080.34 700.72
  Q 1078.45 694.82 1077.32 684.81
  A 5.62 5.22 -60.0 0 0 1077.05 683.63
  Q 1074.82 677.19 1074.18 673.98
  C 1072.66 666.32 1069.93 659.12 1068.65 651.60
  A 4.08 4.02 24.9 0 0 1068.11 650.16
  C 1065.83 646.45 1065.19 641.46 1064.00 638.49
  Q 1061.24 631.56 1059.61 623.42
  A 3.22 3.10 25.5 0 0 1059.26 622.49
  Q 1057.53 619.45 1055.58 612.60
  Q 1053.91 606.78 1048.63 593.43
  A 1.32 0.02 74.3 0 1 1048.32 592.40
  Q 1047.96 591.18 1046.44 588.13
  Q 1044.08 583.38 1041.54 576.73
  C 1039.98 572.65 1037.50 568.04 1036.14 563.61
  A 4.56 4.34 -70.1 0 0 1035.74 562.70
  L 1034.10 559.83
  A 3.82 3.42 -72.8 0 1 1033.83 559.24
  C 1032.39 554.95 1030.28 551.46 1028.77 547.84
  Q 1026.30 541.90 1024.46 538.50
  Q 1019.11 528.62 1017.41 525.50
  Q 1013.77 518.85 1010.20 511.94
  Q 1009.14 509.89 1007.65 507.61
  Q 1006.12 505.27 1005.60 503.73
  A 5.25 5.24 -75.0 0 0 1004.54 501.89
  Q 1002.41 499.49 1000.10 494.34
  A 8.06 7.49 -78.9 0 0 999.02 492.60
  Q 997.04 490.17 994.15 485.03
  Q 991.98 481.16 989.22 477.49
  Q 986.07 473.29 983.14 469.37
  Q 981.25 466.85 978.74 461.63
  Q 985.88 470.60 997.49 487.76
  Q 1002.00 494.42 1002.23 495.53
  A 1.29 1.28 11.9 0 0 1002.77 496.35
  Q 1004.70 497.70 1005.35 501.29
  Q 1005.40 501.57 1005.76 501.66
  A 0.45 0.44 -6.4 0 1 1006.03 501.87
  Q 1013.66 514.87 1018.30 523.03
  C 1019.57 525.26 1020.45 528.29 1021.52 530.04
  Q 1023.90 533.94 1025.57 538.37
  A 6.15 6.11 18.2 0 0 1026.15 539.51
  Q 1028.13 542.49 1029.20 546.23
  A 3.20 2.99 -73.5 0 0 1029.69 547.21
  Q 1032.28 550.68 1033.06 553.94
  A 5.26 4.99 -67.7 0 0 1033.60 555.33
  Q 1035.42 558.55 1035.70 559.28
  Q 1036.78 562.02 1038.58 566.40
  C 1039.79 569.33 1042.75 573.84 1043.79 577.42
  C 1044.71 580.60 1046.62 583.59 1047.60 586.90
  Q 1047.97 588.12 1048.90 589.99
  Q 1050.73 593.63 1053.40 601.00
  Q 1060.94 621.86 1065.44 636.19
  Q 1066.49 639.55 1067.52 642.41
  Q 1068.95 646.36 1071.01 653.38
  Q 1075.38 668.23 1076.32 673.62
  Q 1076.82 676.43 1078.22 681.14
  C 1078.86 683.29 1079.53 688.25 1080.27 691.25
  Q 1082.25 699.33 1083.42 707.15
  Q 1084.43 713.93 1085.46 720.09
  Q 1088.31 737.12 1089.65 745.75
  Q 1094.10 774.60 1095.28 803.79
  Z"
/>
<path fill="#c1a978" d="
  M 864.99 717.34
  L 847.43 706.23
  Q 848.71 705.81 849.47 706.92
  A 0.16 0.16 0.0 0 0 849.71 706.95
  A 0.18 0.17 50.6 0 0 849.73 706.70
  C 844.86 701.08 838.07 696.91 832.71 692.44
  A 0.33 0.33 0.0 0 1 832.86 691.86
  Q 848.08 688.91 859.83 685.65
  C 873.12 681.96 884.93 674.85 890.80 662.52
  Q 897.13 649.21 895.37 633.50
  Q 890.70 591.84 862.80 560.50
  C 842.94 538.18 818.60 520.83 791.49 512.26
  C 772.73 506.33 752.36 505.51 732.75 508.45
  C 710.93 511.72 691.47 515.77 673.85 524.30
  C 642.17 539.64 617.48 564.97 600.64 595.76
  C 589.86 615.47 584.05 638.93 598.22 658.20
  C 601.43 662.56 606.49 667.22 611.22 672.05
  Q 619.93 680.96 619.62 693.63
  L 611.74 699.98
  Q 595.87 687.70 587.93 682.23
  Q 577.88 675.31 571.19 666.98
  C 557.71 650.18 560.12 624.67 566.68 605.69
  C 571.51 591.72 580.01 578.32 589.58 564.56
  C 604.47 543.13 620.31 525.03 641.71 510.09
  C 670.49 490.01 701.66 477.66 737.31 476.62
  Q 765.37 475.80 792.30 481.54
  Q 801.78 483.56 812.04 488.21
  C 833.76 498.05 853.60 510.69 870.66 528.02
  Q 910.97 568.96 923.87 624.68
  C 929.59 649.39 925.26 674.07 904.83 690.77
  C 895.54 698.36 881.94 704.57 875.07 708.82
  Q 870.13 711.87 864.99 717.34
  Z"
/>
<path fill="#c6b081" d="
  M 847.43 706.23
  Q 831.81 694.71 816.62 682.65
  Q 813.37 680.07 810.14 679.43
  Q 807.92 678.99 806.32 680.18
  C 802.59 682.94 798.90 688.80 803.11 692.78
  C 806.97 696.42 811.60 699.06 816.45 702.98
  Q 823.89 708.99 831.70 714.50
  Q 828.93 715.40 826.44 713.82
  Q 824.42 712.55 816.15 706.81
  A 1.07 1.05 54.3 0 0 815.29 706.66
  Q 801.66 710.44 793.02 722.72
  Q 777.49 744.81 765.59 768.55
  C 754.40 790.89 751.69 816.46 755.21 842.13
  C 757.82 861.19 760.54 879.67 758.91 897.97
  A 13.76 13.54 57.6 0 1 758.18 901.35
  C 756.81 905.24 756.18 907.31 758.00 911.82
  Q 761.22 919.82 765.82 927.37
  C 743.88 908.96 713.11 906.81 686.60 916.05
  Q 681.86 917.70 673.56 923.36
  Q 677.21 912.86 678.92 906.00
  C 681.24 896.68 684.36 880.52 687.40 869.39
  C 692.47 850.82 697.46 831.36 696.34 814.02
  Q 695.42 799.79 690.80 786.44
  C 682.99 763.87 672.02 743.98 659.10 724.08
  Q 649.47 709.24 634.60 701.21
  L 645.46 692.32
  C 651.78 686.19 641.82 675.03 634.12 681.76
  L 619.62 693.63
  Q 619.93 680.96 611.22 672.05
  C 606.49 667.22 601.43 662.56 598.22 658.20
  C 584.05 638.93 589.86 615.47 600.64 595.76
  C 617.48 564.97 642.17 539.64 673.85 524.30
  C 691.47 515.77 710.93 511.72 732.75 508.45
  C 752.36 505.51 772.73 506.33 791.49 512.26
  C 818.60 520.83 842.94 538.18 862.80 560.50
  Q 890.70 591.84 895.37 633.50
  Q 897.13 649.21 890.80 662.52
  C 884.93 674.85 873.12 681.96 859.83 685.65
  Q 848.08 688.91 832.86 691.86
  A 0.33 0.33 0.0 0 0 832.71 692.44
  C 838.07 696.91 844.86 701.08 849.73 706.70
  A 0.18 0.17 50.6 0 1 849.71 706.95
  A 0.16 0.16 0.0 0 1 849.47 706.92
  Q 848.71 705.81 847.43 706.23
  Z
  M 727.66 752.21
  Q 732.38 750.49 735.65 747.29
  Q 744.77 738.33 752.87 725.87
  C 762.85 710.53 770.77 696.71 781.66 683.00
  Q 796.69 664.08 818.64 658.14
  C 837.23 653.10 863.27 650.35 858.54 623.25
  C 855.31 604.78 842.98 586.66 828.96 574.86
  Q 814.68 562.83 798.33 552.54
  Q 772.45 536.23 742.33 540.61
  Q 724.06 543.26 702.62 550.58
  Q 682.23 557.54 667.06 570.75
  Q 651.72 584.10 639.11 601.10
  C 630.70 612.45 625.86 626.89 630.36 640.23
  Q 633.38 649.22 640.89 657.75
  C 647.85 665.65 655.51 673.60 662.64 682.62
  Q 668.15 689.59 671.19 693.83
  Q 694.56 726.41 702.88 737.55
  C 708.02 744.44 717.31 755.97 727.66 752.21
  Z"
/>
<path fill="#cdb88c" d="
  M 727.66 752.21
  C 717.31 755.97 708.02 744.44 702.88 737.55
  Q 694.56 726.41 671.19 693.83
  Q 668.15 689.59 662.64 682.62
  C 655.51 673.60 647.85 665.65 640.89 657.75
  Q 633.38 649.22 630.36 640.23
  C 625.86 626.89 630.70 612.45 639.11 601.10
  Q 651.72 584.10 667.06 570.75
  Q 682.23 557.54 702.62 550.58
  Q 724.06 543.26 742.33 540.61
  Q 772.45 536.23 798.33 552.54
  Q 814.68 562.83 828.96 574.86
  C 842.98 586.66 855.31 604.78 858.54 623.25
  C 863.27 650.35 837.23 653.10 818.64 658.14
  Q 796.69 664.08 781.66 683.00
  C 770.77 696.71 762.85 710.53 752.87 725.87
  Q 744.77 738.33 735.65 747.29
  Q 732.38 750.49 727.66 752.21
  Z"
/>
<path fill="#8a6e44" d="
  M 468.67 581.43
  Q 457.94 612.36 450.54 644.12
  Q 445.91 663.95 444.36 678.30
  C 441.71 702.79 442.78 727.06 444.19 751.90
  Q 445.17 769.26 447.12 784.41
  Q 447.90 790.48 453.05 814.80
  Q 456.26 829.96 459.07 845.20
  Q 458.65 860.94 459.00 870.21
  C 459.96 895.18 470.54 917.98 482.83 941.25
  Q 495.12 964.51 510.32 986.55
  Q 524.17 1006.64 544.20 1025.40
  C 570.35 1049.89 594.18 1067.78 624.73 1079.72
  C 644.55 1087.47 665.53 1091.92 687.08 1095.17
  C 734.84 1102.38 781.00 1097.95 828.40 1086.29
  Q 875.73 1074.64 914.52 1047.42
  Q 923.06 1041.44 934.88 1031.99
  A 0.07 0.07 0.0 0 1 934.98 1032.08
  L 932.86 1035.38
  A 0.08 0.08 0.0 0 0 932.98 1035.48
  Q 945.33 1025.06 955.58 1013.56
  Q 974.77 992.05 991.02 967.74
  Q 1009.74 939.72 1019.91 905.58
  C 1035.63 852.77 1043.81 798.67 1043.89 743.05
  C 1043.62 701.77 1037.42 664.23 1030.89 622.92
  Q 1030.34 619.46 1029.08 606.95
  Q 1041.49 639.69 1050.47 673.52
  Q 1052.58 681.45 1054.05 689.42
  C 1055.98 718.56 1056.22 746.64 1054.26 776.63
  Q 1052.65 801.33 1051.15 823.52
  C 1049.69 845.14 1044.81 867.36 1038.58 889.23
  Q 1033.34 907.66 1028.08 920.51
  Q 1022.19 934.92 1011.90 954.62
  C 1001.35 974.84 991.33 991.84 977.96 1008.47
  Q 963.40 1026.56 946.86 1042.36
  C 912.31 1075.36 867.79 1094.79 821.75 1105.43
  C 769.41 1117.52 712.99 1121.37 660.43 1108.17
  Q 640.11 1103.06 617.82 1094.67
  C 593.01 1085.33 571.27 1071.94 550.60 1055.14
  Q 550.55 1055.10 550.62 1055.07
  A 0.13 0.12 -41.4 0 1 550.75 1055.07
  Q 561.75 1062.80 572.69 1070.04
  C 598.22 1086.94 627.30 1097.67 657.10 1105.49
  C 693.71 1115.10 731.90 1116.28 769.38 1112.41
  Q 769.41 1112.41 769.40 1112.36
  A 0.12 0.12 0.0 0 0 769.27 1112.26
  Q 751.09 1113.59 730.11 1113.70
  Q 691.45 1113.90 655.12 1104.10
  C 633.92 1098.38 609.15 1090.12 590.12 1079.14
  C 550.16 1056.08 516.24 1024.04 489.92 985.63
  Q 475.39 964.43 467.00 946.38
  Q 457.28 925.49 447.74 898.87
  C 442.48 884.20 439.20 870.16 437.65 855.26
  Q 434.59 825.81 432.00 798.33
  C 430.96 787.29 430.18 774.07 429.99 765.14
  Q 429.18 726.24 430.48 687.23
  Q 438.28 659.58 449.07 628.58
  Q 457.80 603.51 468.67 581.43
  Z"
/>
<path fill="#44301c" d="
  M 847.43 706.23
  L 864.99 717.34
  L 888.22 729.61
  L 912.14 739.86
  Q 932.01 747.38 952.20 752.55
  Q 960.58 754.61 968.82 756.40
  Q 972.48 757.19 975.97 758.89
  A 2.44 2.37 -1.8 0 1 977.01 759.84
  Q 979.45 763.99 977.51 769.05
  Q 976.05 771.31 973.51 772.22
  A 0.92 0.92 0.0 0 0 972.92 773.27
  Q 974.28 779.95 975.57 790.98
  C 977.76 809.71 972.94 828.77 965.38 846.11
  C 955.35 869.10 935.42 884.87 911.63 892.18
  C 892.81 897.67 871.08 896.60 852.47 890.75
  Q 842.41 887.58 833.27 882.47
  L 826.51 878.47
  Q 818.15 872.39 814.01 867.73
  Q 804.78 857.35 797.50 841.27
  Q 788.19 820.72 786.77 794.50
  C 785.89 778.32 791.56 761.05 799.45 747.19
  C 806.96 734.00 819.42 722.91 832.56 715.92
  A 0.48 0.48 0.0 0 0 832.72 715.22
  Q 832.39 714.76 831.70 714.50
  Q 823.89 708.99 816.45 702.98
  C 811.60 699.06 806.97 696.42 803.11 692.78
  C 798.90 688.80 802.59 682.94 806.32 680.18
  Q 807.92 678.99 810.14 679.43
  Q 813.37 680.07 816.62 682.65
  Q 831.81 694.71 847.43 706.23
  Z
  M 851.7472 800.7675
  A 13.41 12.99 -19.8 0 0 834.7298 793.0880
  A 13.41 12.99 -19.8 0 0 826.5128 809.8525
  A 13.41 12.99 -19.8 0 0 843.5302 817.5320
  A 13.41 12.99 -19.8 0 0 851.7472 800.7675
  Z
  M 815.42 840.42
  Q 823.59 850.74 824.97 852.05
  Q 838.43 864.81 856.16 871.08
  Q 856.80 871.31 865.25 873.80
  C 873.02 876.09 880.67 876.00 888.86 875.82
  Q 895.86 875.66 902.90 873.42
  Q 911.31 870.74 917.40 868.12
  A 0.68 0.66 74.3 0 0 917.79 867.40
  Q 916.61 859.49 913.77 852.70
  A 0.56 0.55 69.3 0 1 914.10 851.96
  Q 919.71 850.02 920.38 843.43
  A 1.95 1.93 36.0 0 0 920.22 842.45
  C 918.33 838.16 913.72 836.78 909.16 836.04
  C 903.48 835.11 900.56 838.99 897.74 843.06
  A 1.32 1.29 8.8 0 1 897.04 843.56
  Q 880.29 848.45 861.20 843.75
  C 843.54 839.40 831.51 836.59 815.57 840.00
  A 0.26 0.26 0.0 0 0 815.42 840.42
  Z"
/>
<path fill="#705736" d="
  M 645.46 692.32
  L 634.12 681.76
  C 641.82 675.03 651.78 686.19 645.46 692.32
  Z"
/>
<path fill="#44301c" d="
  M 634.12 681.76
  L 645.46 692.32
  L 634.60 701.21
  L 619.67 713.25
  A 0.38 0.38 0.0 0 0 619.70 713.87
  Q 634.16 723.59 643.65 737.63
  C 657.89 758.67 661.43 785.96 656.31 810.99
  C 653.42 829.72 646.19 848.13 634.17 862.91
  Q 622.28 876.95 605.39 884.26
  Q 583.82 893.95 560.02 892.40
  Q 550.61 891.71 541.37 889.59
  C 530.08 887.00 517.94 882.10 509.09 874.39
  Q 498.42 865.28 491.69 853.02
  C 488.76 847.67 486.86 841.26 485.03 835.76
  C 477.89 814.27 479.34 789.01 485.40 767.28
  A 3.14 3.11 46.0 0 0 485.42 765.65
  L 483.30 757.22
  Q 482.42 752.90 485.44 752.42
  Q 502.72 749.68 514.98 745.83
  L 542.06 737.06
  L 550.03 734.04
  Q 574.55 724.31 597.60 711.22
  L 611.74 699.98
  L 619.62 693.63
  L 634.12 681.76
  Z
  M 595.7906 799.9758
  A 11.10 10.82 -177.5 0 0 606.4080 811.2697
  A 11.10 10.82 -177.5 0 0 617.9694 800.9442
  A 11.10 10.82 -177.5 0 0 607.3520 789.6503
  A 11.10 10.82 -177.5 0 0 595.7906 799.9758
  Z
  M 523.03 843.39
  Q 518.14 846.21 514.73 850.37
  A 0.71 0.70 -42.7 0 0 514.69 851.21
  Q 516.17 853.42 518.85 855.83
  Q 523.51 860.02 525.11 861.05
  C 529.33 863.78 536.18 867.09 542.71 869.03
  Q 550.33 871.29 551.03 871.43
  C 564.38 874.19 576.95 873.59 589.56 869.18
  C 597.21 866.51 605.31 863.91 611.44 858.25
  C 614.49 855.44 618.96 852.82 621.69 849.58
  C 625.08 845.57 627.44 840.83 629.90 835.74
  A 0.42 0.42 0.0 0 0 629.59 835.14
  Q 615.53 832.86 605.38 835.03
  C 590.36 838.23 577.28 841.06 562.84 835.91
  Q 557.97 834.17 548.82 829.29
  C 547.89 820.03 541.09 811.18 531.40 811.49
  Q 524.12 811.73 518.97 817.04
  Q 514.15 822.00 514.43 829.51
  Q 514.79 838.93 523.03 843.39
  Z"
/>
<path fill="#81663f" d="
  M 430.48 687.23
  Q 429.18 726.24 429.99 765.14
  C 430.18 774.07 430.96 787.29 432.00 798.33
  Q 434.59 825.81 437.65 855.26
  C 439.20 870.16 442.48 884.20 447.74 898.87
  Q 457.28 925.49 467.00 946.38
  Q 475.39 964.43 489.92 985.63
  C 516.24 1024.04 550.16 1056.08 590.12 1079.14
  C 609.15 1090.12 633.92 1098.38 655.12 1104.10
  Q 691.45 1113.90 730.11 1113.70
  Q 751.09 1113.59 769.27 1112.26
  A 0.12 0.12 0.0 0 1 769.40 1112.36
  Q 769.41 1112.41 769.38 1112.41
  C 731.90 1116.28 693.71 1115.10 657.10 1105.49
  C 627.30 1097.67 598.22 1086.94 572.69 1070.04
  Q 561.75 1062.80 550.75 1055.07
  A 0.13 0.12 -41.4 0 0 550.62 1055.07
  Q 550.55 1055.10 550.60 1055.14
  C 571.27 1071.94 593.01 1085.33 617.82 1094.67
  Q 640.11 1103.06 660.43 1108.17
  C 712.99 1121.37 769.41 1117.52 821.75 1105.43
  C 867.79 1094.79 912.31 1075.36 946.86 1042.36
  Q 963.40 1026.56 977.96 1008.47
  C 991.33 991.84 1001.35 974.84 1011.90 954.62
  Q 1022.19 934.92 1028.08 920.51
  Q 1033.34 907.66 1038.58 889.23
  C 1044.81 867.36 1049.69 845.14 1051.15 823.52
  Q 1052.65 801.33 1054.26 776.63
  C 1056.22 746.64 1055.98 718.56 1054.05 689.42
  Q 1063.71 732.05 1068.33 775.44
  Q 1063.91 805.39 1059.86 835.32
  Q 1057.99 849.15 1051.38 879.42
  C 1046.87 900.05 1042.15 920.70 1033.47 940.08
  Q 1019.21 971.91 1000.08 1001.09
  C 983.36 1026.61 964.02 1048.17 938.75 1065.98
  C 913.78 1083.58 887.32 1098.34 858.21 1108.15
  Q 837.22 1115.23 811.55 1120.15
  C 776.04 1126.97 740.04 1130.75 705.47 1128.19
  C 674.34 1125.89 642.51 1117.62 613.67 1106.78
  Q 556.12 1085.15 513.06 1040.25
  Q 508.91 1035.91 496.67 1022.11
  A 0.94 0.76 2.0 0 0 496.45 1021.92
  L 495.01 1020.92
  A 5.98 5.79 88.7 0 1 493.54 1019.47
  Q 479.41 999.58 467.44 979.17
  C 456.06 959.77 448.71 939.66 441.99 919.49
  Q 437.75 906.79 433.03 886.78
  Q 419.65 830.09 413.06 771.95
  Q 413.63 765.90 414.57 759.65
  Q 415.87 751.05 417.24 743.02
  C 419.34 730.69 422.09 720.05 425.42 705.69
  Q 426.83 699.64 430.48 687.23
  Z"
/>
<path fill="#bba375" d="
  M 673.56 923.36
  Q 667.43 928.06 661.55 933.31
  C 657.98 936.49 654.76 940.10 655.62 945.15
  C 656.55 950.52 664.86 954.12 669.12 950.36
  Q 671.43 948.32 673.79 946.26
  Q 673.21 947.10 673.18 947.91
  A 0.41 0.41 0.0 0 0 673.71 948.31
  Q 675.48 947.75 677.15 946.34
  Q 685.19 939.54 690.98 936.25
  C 696.25 933.26 701.23 932.27 706.45 930.90
  Q 708.51 930.36 709.04 928.11
  C 724.37 926.58 740.00 929.32 752.26 939.22
  Q 759.86 945.36 764.47 950.36
  C 766.69 952.78 769.31 954.63 772.15 953.65
  Q 778.77 951.38 779.45 944.04
  A 3.81 3.60 -51.1 0 0 779.35 942.77
  Q 778.33 938.71 775.79 936.21
  Q 772.77 933.24 765.82 927.37
  Q 761.22 919.82 758.00 911.82
  C 756.18 907.31 756.81 905.24 758.18 901.35
  A 13.76 13.54 57.6 0 0 758.91 897.97
  C 760.54 879.67 757.82 861.19 755.21 842.13
  C 751.69 816.46 754.40 790.89 765.59 768.55
  Q 777.49 744.81 793.02 722.72
  Q 801.66 710.44 815.29 706.66
  A 1.07 1.05 54.3 0 1 816.15 706.81
  Q 824.42 712.55 826.44 713.82
  Q 828.93 715.40 831.70 714.50
  Q 832.39 714.76 832.72 715.22
  A 0.48 0.48 0.0 0 1 832.56 715.92
  C 819.42 722.91 806.96 734.00 799.45 747.19
  C 791.56 761.05 785.89 778.32 786.77 794.50
  Q 788.19 820.72 797.50 841.27
  Q 804.78 857.35 814.01 867.73
  Q 818.15 872.39 826.51 878.47
  Q 815.05 870.74 808.25 862.25
  C 797.05 848.27 791.02 829.86 785.78 812.00
  Q 784.62 808.03 782.92 805.35
  A 0.84 0.84 0.0 0 0 781.60 805.22
  C 780.27 806.60 780.30 812.53 780.38 814.75
  Q 781.06 833.53 788.61 851.69
  C 791.88 859.55 797.38 872.73 801.30 884.71
  Q 803.44 891.25 814.15 923.09
  Q 817.26 932.34 818.49 942.08
  C 819.46 949.77 818.21 957.34 813.64 963.00
  C 796.64 984.08 765.11 992.83 739.60 995.14
  Q 710.93 997.72 684.79 986.31
  C 676.33 982.61 668.42 978.60 661.26 973.24
  Q 656.05 969.33 654.52 966.60
  Q 651.40 961.06 644.97 949.91
  Q 636.66 935.52 639.18 918.20
  Q 640.03 912.37 641.96 901.45
  C 642.32 899.39 642.78 894.92 640.50 893.61
  C 637.14 891.67 638.23 887.78 639.01 884.58
  Q 640.11 880.09 642.25 874.45
  Q 645.21 866.62 653.61 845.70
  Q 658.04 834.66 659.79 822.39
  C 660.37 818.32 660.57 813.22 656.31 810.99
  C 661.43 785.96 657.89 758.67 643.65 737.63
  Q 634.16 723.59 619.70 713.87
  A 0.38 0.38 0.0 0 1 619.67 713.25
  L 634.60 701.21
  Q 649.47 709.24 659.10 724.08
  C 672.02 743.98 682.99 763.87 690.80 786.44
  Q 695.42 799.79 696.34 814.02
  C 697.46 831.36 692.47 850.82 687.40 869.39
  C 684.36 880.52 681.24 896.68 678.92 906.00
  Q 677.21 912.86 673.56 923.36
  Z"
/>
<path fill="#91774d" d="
  M 1043.89 743.05
  C 1043.81 798.67 1035.63 852.77 1019.91 905.58
  Q 1009.74 939.72 991.02 967.74
  Q 974.77 992.05 955.58 1013.56
  Q 945.33 1025.06 932.98 1035.48
  A 0.08 0.08 0.0 0 1 932.86 1035.38
  L 934.98 1032.08
  A 0.07 0.07 0.0 0 0 934.88 1031.99
  Q 923.06 1041.44 914.52 1047.42
  Q 875.73 1074.64 828.40 1086.29
  C 781.00 1097.95 734.84 1102.38 687.08 1095.17
  C 665.53 1091.92 644.55 1087.47 624.73 1079.72
  C 594.18 1067.78 570.35 1049.89 544.20 1025.40
  Q 524.17 1006.64 510.32 986.55
  Q 495.12 964.51 482.83 941.25
  C 470.54 917.98 459.96 895.18 459.00 870.21
  Q 458.65 860.94 459.07 845.20
  Q 461.67 860.39 464.02 867.09
  Q 471.34 887.99 475.29 899.76
  Q 478.43 909.09 482.81 918.68
  Q 484.97 923.42 487.81 926.92
  A 0.95 0.95 0.0 0 0 489.35 926.83
  Q 489.87 925.99 489.80 924.41
  Q 489.51 918.39 489.50 912.38
  C 489.50 905.06 492.38 901.32 498.05 897.01
  C 502.01 925.33 512.45 946.20 526.08 974.64
  C 529.99 982.78 535.49 991.99 538.78 997.93
  C 539.61 999.44 539.98 1000.75 540.47 1001.90
  A 4.74 4.55 -77.5 0 0 541.14 1003.00
  Q 543.56 1005.99 546.73 1009.09
  Q 564.01 1025.97 583.22 1040.53
  A 0.37 0.37 0.0 0 0 583.71 1039.98
  L 580.61 1036.88
  A 0.40 0.39 -18.3 0 1 580.95 1036.21
  Q 581.97 1036.36 582.56 1036.72
  Q 596.53 1045.05 602.21 1048.32
  C 629.51 1064.00 661.73 1073.14 693.34 1077.14
  C 744.78 1083.65 798.23 1078.62 847.07 1060.89
  Q 890.00 1045.30 922.72 1014.45
  Q 940.68 997.51 956.85 977.59
  Q 970.45 960.83 979.52 943.46
  Q 983.91 935.04 988.05 926.45
  Q 986.16 933.39 984.59 940.40
  Q 983.98 943.11 984.14 943.62
  A 0.42 0.42 0.0 0 0 984.81 943.82
  Q 985.79 942.99 986.47 941.72
  Q 1006.92 903.54 1014.20 885.63
  Q 1025.12 858.79 1028.90 826.46
  Q 1032.32 797.09 1037.42 754.29
  Q 1037.98 749.55 1039.37 734.35
  A 0.35 0.35 0.0 0 1 1039.72 734.03
  L 1039.84 734.04
  A 0.09 0.09 0.0 0 1 1039.93 734.12
  L 1041.36 751.05
  A 0.34 0.33 49.2 0 0 1042.02 751.10
  L 1043.89 743.05
  Z"
/>
<path fill="#44301c" d="
  M 407.19 851.50
  Q 407.47 864.08 408.10 869.38
  C 409.44 880.58 410.11 892.04 412.04 902.98
  Q 414.28 915.64 420.41 939.84
  Q 423.43 951.75 431.78 972.66
  Q 418.30 966.98 404.88 963.50
  A 0.32 0.32 0.0 0 0 404.48 963.84
  L 404.71 966.55
  L 397.73 943.93
  A 1.49 1.47 36.5 0 1 397.66 943.48
  Q 397.67 942.00 396.89 940.86
  A 2.72 2.66 22.5 0 1 396.47 939.88
  Q 395.32 934.79 391.86 920.95
  Q 390.36 914.96 389.57 909.86
  Q 388.93 905.71 387.55 899.10
  A 5.55 5.36 40.2 0 1 387.42 897.83
  Q 387.42 892.35 385.97 886.61
  A 4.28 4.27 35.5 0 1 385.85 885.90
  Q 384.97 872.74 384.26 870.24
  Q 383.43 867.32 383.43 865.25
  Q 383.34 844.16 383.48 841.00
  Q 383.84 832.65 383.68 828.19
  Q 383.46 822.23 383.96 819.81
  C 384.63 816.56 385.11 811.56 385.26 808.70
  Q 385.81 798.46 386.40 788.35
  C 387.49 786.98 391.21 781.86 392.64 786.29
  Q 393.35 788.47 393.63 791.62
  Q 394.77 804.20 395.77 812.64
  Q 398.19 833.09 407.19 851.50
  Z"
/>
<path fill="#7a603b" d="
  M 1068.33 775.44
  Q 1071.96 803.86 1073.01 832.44
  Q 1073.28 839.64 1073.01 847.57
  Q 1072.76 855.14 1072.43 862.68
  Q 1065.37 881.91 1058.55 901.19
  C 1050.84 923.02 1044.46 939.23 1034.01 956.69
  Q 1027.80 967.07 1012.07 993.16
  Q 996.79 1018.50 974.32 1042.81
  Q 959.48 1058.87 956.45 1061.94
  Q 952.21 1066.24 942.55 1073.38
  Q 913.91 1094.56 881.92 1108.54
  C 860.06 1118.10 836.16 1124.62 812.46 1129.02
  Q 770.88 1136.73 730.04 1137.21
  C 705.56 1137.50 682.53 1135.18 658.94 1129.74
  Q 613.13 1119.19 571.27 1095.52
  C 521.87 1067.58 483.41 1023.12 458.40 973.14
  Q 446.73 949.83 437.69 931.30
  C 423.96 903.18 414.17 871.14 407.03 839.70
  Q 407.67 819.34 408.77 807.75
  Q 409.55 799.44 413.06 771.95
  Q 419.65 830.09 433.03 886.78
  Q 437.75 906.79 441.99 919.49
  C 448.71 939.66 456.06 959.77 467.44 979.17
  Q 479.41 999.58 493.54 1019.47
  A 5.98 5.79 88.7 0 0 495.01 1020.92
  L 496.45 1021.92
  A 0.94 0.76 2.0 0 1 496.67 1022.11
  Q 508.91 1035.91 513.06 1040.25
  Q 556.12 1085.15 613.67 1106.78
  C 642.51 1117.62 674.34 1125.89 705.47 1128.19
  C 740.04 1130.75 776.04 1126.97 811.55 1120.15
  Q 837.22 1115.23 858.21 1108.15
  C 887.32 1098.34 913.78 1083.58 938.75 1065.98
  C 964.02 1048.17 983.36 1026.61 1000.08 1001.09
  Q 1019.21 971.91 1033.47 940.08
  C 1042.15 920.70 1046.87 900.05 1051.38 879.42
  Q 1057.99 849.15 1059.86 835.32
  Q 1063.91 805.39 1068.33 775.44
  Z"
/>
<ellipse fill="#c4b596" cx="0.00" cy="0.00" transform="translate(606.88,800.46) rotate(-177.5)" rx="11.10" ry="10.82"/>
<ellipse fill="#c4b596" cx="0.00" cy="0.00" transform="translate(839.13,805.31) rotate(-19.8)" rx="13.41" ry="12.99"/>
<path fill="#b39a6d" d="
  M 826.51 878.47
  L 833.27 882.47
  C 829.90 896.39 839.59 907.77 847.25 919.25
  C 855.11 931.06 859.71 942.79 857.91 956.13
  C 855.88 971.28 845.26 980.41 832.61 987.75
  C 782.41 1016.89 724.28 1027.25 669.84 1003.94
  C 655.63 997.85 640.25 989.84 627.93 981.19
  C 616.38 973.08 605.33 962.01 605.07 947.28
  C 604.84 934.91 610.53 922.56 616.00 911.19
  C 623.55 895.50 629.52 879.58 634.17 862.91
  C 646.19 848.13 653.42 829.72 656.31 810.99
  C 660.57 813.22 660.37 818.32 659.79 822.39
  Q 658.04 834.66 653.61 845.70
  Q 645.21 866.62 642.25 874.45
  Q 640.11 880.09 639.01 884.58
  C 638.23 887.78 637.14 891.67 640.50 893.61
  C 642.78 894.92 642.32 899.39 641.96 901.45
  Q 640.03 912.37 639.18 918.20
  Q 636.66 935.52 644.97 949.91
  Q 651.40 961.06 654.52 966.60
  Q 656.05 969.33 661.26 973.24
  C 668.42 978.60 676.33 982.61 684.79 986.31
  Q 710.93 997.72 739.60 995.14
  C 765.11 992.83 796.64 984.08 813.64 963.00
  C 818.21 957.34 819.46 949.77 818.49 942.08
  Q 817.26 932.34 814.15 923.09
  Q 803.44 891.25 801.30 884.71
  C 797.38 872.73 791.88 859.55 788.61 851.69
  Q 781.06 833.53 780.38 814.75
  C 780.30 812.53 780.27 806.60 781.60 805.22
  A 0.84 0.84 0.0 0 1 782.92 805.35
  Q 784.62 808.03 785.78 812.00
  C 791.02 829.86 797.05 848.27 808.25 862.25
  Q 815.05 870.74 826.51 878.47
  Z"
/>
<path fill="#c4b596" d="
  M 548.82 829.29
  Q 547.20 839.83 538.48 844.05
  C 533.23 846.60 528.11 845.94 523.03 843.39
  Q 514.79 838.93 514.43 829.51
  Q 514.15 822.00 518.97 817.04
  Q 524.12 811.73 531.40 811.49
  C 541.09 811.18 547.89 820.03 548.82 829.29
  Z"
/>
<path fill="#664826" d="
  M 523.03 843.39
  C 528.11 845.94 533.23 846.60 538.48 844.05
  Q 547.20 839.83 548.82 829.29
  Q 557.97 834.17 562.84 835.91
  C 577.28 841.06 590.36 838.23 605.38 835.03
  Q 615.53 832.86 629.59 835.14
  A 0.42 0.42 0.0 0 1 629.90 835.74
  C 627.44 840.83 625.08 845.57 621.69 849.58
  C 618.96 852.82 614.49 855.44 611.44 858.25
  C 605.31 863.91 597.21 866.51 589.56 869.18
  C 576.95 873.59 564.38 874.19 551.03 871.43
  Q 550.33 871.29 542.71 869.03
  C 536.18 867.09 529.33 863.78 525.11 861.05
  Q 523.51 860.02 518.85 855.83
  Q 516.17 853.42 514.69 851.21
  A 0.71 0.70 -42.7 0 1 514.73 850.37
  Q 518.14 846.21 523.03 843.39
  Z"
/>
<path fill="#664826" d="
  M 815.57 840.00
  C 831.51 836.59 843.54 839.40 861.20 843.75
  Q 880.29 848.45 897.04 843.56
  A 1.32 1.29 8.8 0 0 897.74 843.06
  C 900.56 838.99 903.48 835.11 909.16 836.04
  C 913.72 836.78 918.33 838.16 920.22 842.45
  A 1.95 1.93 36.0 0 1 920.38 843.43
  Q 919.71 850.02 914.10 851.96
  A 0.56 0.55 69.3 0 0 913.77 852.70
  Q 916.61 859.49 917.79 867.40
  A 0.68 0.66 74.3 0 1 917.40 868.12
  Q 911.31 870.74 902.90 873.42
  Q 895.86 875.66 888.86 875.82
  C 880.67 876.00 873.02 876.09 865.25 873.80
  Q 856.80 871.31 856.16 871.08
  Q 838.43 864.81 824.97 852.05
  Q 823.59 850.74 815.42 840.42
  A 0.26 0.26 0.0 0 1 815.57 840.00
  Z"
/>
<path fill="#705736" d="
  M 1072.43 862.68
  Q 1071.41 891.89 1065.04 920.33
  Q 1063.14 928.81 1056.04 953.37
  Q 1040.11 998.10 1012.77 1037.23
  C 999.31 1052.95 988.88 1063.45 973.96 1075.06
  C 940.45 1101.12 906.52 1124.27 867.04 1137.57
  Q 842.41 1145.87 804.49 1152.16
  Q 771.44 1157.65 737.58 1158.63
  C 711.89 1159.38 689.10 1159.00 666.50 1154.42
  Q 624.07 1145.82 582.41 1126.33
  C 563.75 1117.60 548.38 1107.78 531.80 1095.08
  C 508.22 1077.01 485.46 1055.77 468.85 1031.51
  Q 446.14 998.37 437.13 986.01
  L 431.78 972.66
  Q 423.43 951.75 420.41 939.84
  Q 414.28 915.64 412.04 902.98
  C 410.11 892.04 409.44 880.58 408.10 869.38
  Q 407.47 864.08 407.19 851.50
  L 407.03 839.70
  C 414.17 871.14 423.96 903.18 437.69 931.30
  Q 446.73 949.83 458.40 973.14
  C 483.41 1023.12 521.87 1067.58 571.27 1095.52
  Q 613.13 1119.19 658.94 1129.74
  C 682.53 1135.18 705.56 1137.50 730.04 1137.21
  Q 770.88 1136.73 812.46 1129.02
  C 836.16 1124.62 860.06 1118.10 881.92 1108.54
  Q 913.91 1094.56 942.55 1073.38
  Q 952.21 1066.24 956.45 1061.94
  Q 959.48 1058.87 974.32 1042.81
  Q 996.79 1018.50 1012.07 993.16
  Q 1027.80 967.07 1034.01 956.69
  C 1044.46 939.23 1050.84 923.02 1058.55 901.19
  Q 1065.37 881.91 1072.43 862.68
  Z"
/>
<path fill="#ab9265" d="
  M 634.17 862.91
  C 629.52 879.58 623.55 895.50 616.00 911.19
  C 610.53 922.56 604.84 934.91 605.07 947.28
  C 605.33 962.01 616.38 973.08 627.93 981.19
  C 640.25 989.84 655.63 997.85 669.84 1003.94
  C 724.28 1027.25 782.41 1016.89 832.61 987.75
  C 845.26 980.41 855.88 971.28 857.91 956.13
  C 859.71 942.79 855.11 931.06 847.25 919.25
  C 839.59 907.77 829.90 896.39 833.27 882.47
  Q 842.41 887.58 852.47 890.75
  C 862.15 902.17 872.06 912.32 883.97 919.35
  Q 892.27 924.25 900.81 928.87
  Q 904.52 930.87 907.88 934.01
  C 916.62 942.18 914.77 955.00 910.38 965.02
  C 902.99 981.90 888.67 993.30 872.03 1003.55
  A 0.20 0.19 -31.2 0 1 871.76 1003.49
  L 871.75 1003.49
  Q 871.75 1003.48 871.75 1003.47
  L 877.10 998.72
  A 0.33 0.33 0.0 0 0 876.72 998.19
  Q 862.55 1006.10 853.55 1010.99
  C 827.32 1025.23 800.01 1033.68 770.33 1038.27
  C 748.59 1041.63 728.92 1043.41 708.13 1041.31
  Q 670.66 1037.53 636.56 1022.19
  C 615.71 1012.81 595.77 998.15 583.68 978.74
  C 574.10 963.36 570.43 941.07 582.60 925.96
  C 587.13 920.33 592.60 914.87 596.38 908.70
  Q 603.25 897.50 605.39 884.26
  Q 622.28 876.95 634.17 862.91
  Z"
/>
<path fill="#997f54" d="
  M 509.09 874.39
  C 517.94 882.10 530.08 887.00 541.37 889.59
  Q 550.61 891.71 560.02 892.40
  Q 558.97 892.47 558.09 892.63
  Q 557.26 892.78 556.43 893.47
  Q 537.34 909.45 534.76 911.64
  Q 519.94 924.19 524.22 943.02
  C 527.22 956.21 533.70 968.71 541.57 979.96
  C 551.51 994.16 565.98 1006.88 580.91 1019.52
  Q 607.23 1041.80 639.01 1053.72
  Q 639.03 1053.73 639.03 1053.66
  A 0.09 0.04 25.1 0 0 638.98 1053.60
  L 615.82 1042.88
  A 1.93 1.93 0.0 0 1 614.91 1042.03
  L 614.88 1041.96
  A 0.25 0.25 0.0 0 1 615.20 1041.83
  Q 629.74 1047.75 636.89 1050.42
  Q 657.42 1058.10 683.96 1062.20
  Q 709.23 1066.10 730.00 1066.02
  Q 776.73 1065.86 824.21 1052.30
  C 852.83 1044.13 880.96 1031.00 903.30 1012.27
  C 927.73 991.77 949.95 967.23 965.18 937.76
  Q 965.90 939.74 967.22 940.65
  A 1.02 1.02 0.0 0 0 968.20 940.75
  C 970.28 939.87 972.83 935.79 973.59 934.47
  Q 981.43 920.84 984.50 915.78
  Q 986.17 913.02 988.26 911.45
  A 1.32 1.32 0.0 0 1 990.26 911.95
  L 992.04 915.75
  L 988.05 926.45
  Q 983.91 935.04 979.52 943.46
  Q 970.45 960.83 956.85 977.59
  Q 940.68 997.51 922.72 1014.45
  Q 890.00 1045.30 847.07 1060.89
  C 798.23 1078.62 744.78 1083.65 693.34 1077.14
  C 661.73 1073.14 629.51 1064.00 602.21 1048.32
  Q 596.53 1045.05 582.56 1036.72
  Q 581.97 1036.36 580.95 1036.21
  A 0.40 0.39 -18.3 0 0 580.61 1036.88
  L 583.71 1039.98
  A 0.37 0.37 0.0 0 1 583.22 1040.53
  Q 564.01 1025.97 546.73 1009.09
  Q 543.56 1005.99 541.14 1003.00
  A 4.74 4.55 -77.5 0 1 540.47 1001.90
  C 539.98 1000.75 539.61 999.44 538.78 997.93
  C 535.49 991.99 529.99 982.78 526.08 974.64
  C 512.45 946.20 502.01 925.33 498.05 897.01
  L 509.09 874.39
  Z"
/>
<path fill="#7c7776" d="
  M 1094.77 881.50
  Q 1094.88 887.70 1094.24 893.25
  Q 1093.17 902.70 1093.16 902.78
  Q 1092.66 909.73 1091.75 912.25
  Q 1089.71 917.92 1088.02 925.28
  Q 1086.84 930.43 1086.00 933.09
  Q 1084.39 938.24 1083.73 940.83
  Q 1083.12 943.20 1081.58 947.44
  Q 1080.40 950.67 1079.90 952.96
  Q 1079.52 954.67 1078.59 956.56
  Q 1077.81 958.14 1077.14 960.13
  Q 1074.05 969.39 1072.81 972.34
  Q 1061.62 999.01 1047.09 1025.24
  C 1038.93 1039.98 1028.72 1054.35 1018.81 1067.29
  Q 1009.94 1078.84 999.66 1089.32
  Q 1007.11 1079.57 1014.78 1070.13
  C 1015.92 1068.73 1016.79 1066.65 1017.75 1065.72
  Q 1022.62 1061.03 1026.09 1055.83
  C 1028.80 1051.77 1032.95 1046.18 1035.91 1040.78
  Q 1037.72 1037.49 1039.93 1034.96
  A 1.99 1.97 -11.0 0 0 1040.23 1034.52
  L 1052.81 1010.35
  A 1.08 0.28 -75.7 0 0 1052.87 1010.24
  C 1054.90 1007.32 1056.22 1003.94 1057.41 1001.64
  Q 1061.42 993.87 1064.62 985.82
  Q 1070.29 973.62 1074.35 960.90
  C 1079.47 944.89 1081.67 937.83 1084.29 930.06
  Q 1088.00 919.10 1089.02 910.25
  A 4.40 4.32 -28.8 0 1 1089.45 908.82
  Q 1090.49 906.74 1091.15 903.23
  Q 1092.12 898.05 1092.41 894.18
  A 9.90 9.70 -35.0 0 1 1092.81 892.04
  Q 1094.25 887.41 1094.77 881.50
  Z"
/>
<path fill="#a2885b" d="
  M 605.39 884.26
  Q 603.25 897.50 596.38 908.70
  C 592.60 914.87 587.13 920.33 582.60 925.96
  C 570.43 941.07 574.10 963.36 583.68 978.74
  C 595.77 998.15 615.71 1012.81 636.56 1022.19
  Q 670.66 1037.53 708.13 1041.31
  C 728.92 1043.41 748.59 1041.63 770.33 1038.27
  C 800.01 1033.68 827.32 1025.23 853.55 1010.99
  Q 862.55 1006.10 876.72 998.19
  A 0.33 0.33 0.0 0 1 877.10 998.72
  L 871.75 1003.47
  Q 871.75 1003.48 871.75 1003.49
  L 871.76 1003.49
  A 0.20 0.19 -31.2 0 0 872.03 1003.55
  C 888.67 993.30 902.99 981.90 910.38 965.02
  C 914.77 955.00 916.62 942.18 907.88 934.01
  Q 904.52 930.87 900.81 928.87
  Q 892.27 924.25 883.97 919.35
  C 872.06 912.32 862.15 902.17 852.47 890.75
  C 871.08 896.60 892.81 897.67 911.63 892.18
  Q 914.93 900.37 922.77 904.94
  Q 936.55 912.97 951.22 917.45
  Q 956.94 919.20 962.58 921.10
  Q 966.05 922.27 966.16 926.62
  Q 966.31 932.40 965.18 937.76
  C 949.95 967.23 927.73 991.77 903.30 1012.27
  C 880.96 1031.00 852.83 1044.13 824.21 1052.30
  Q 776.73 1065.86 730.00 1066.02
  Q 709.23 1066.10 683.96 1062.20
  Q 657.42 1058.10 636.89 1050.42
  Q 629.74 1047.75 615.20 1041.83
  A 0.25 0.25 0.0 0 0 614.88 1041.96
  L 614.91 1042.03
  A 1.93 1.93 0.0 0 0 615.82 1042.88
  L 638.98 1053.60
  A 0.09 0.04 25.1 0 1 639.03 1053.66
  Q 639.03 1053.73 639.01 1053.72
  Q 607.23 1041.80 580.91 1019.52
  C 565.98 1006.88 551.51 994.16 541.57 979.96
  C 533.70 968.71 527.22 956.21 524.22 943.02
  Q 519.94 924.19 534.76 911.64
  Q 537.34 909.45 556.43 893.47
  Q 557.26 892.78 558.09 892.63
  Q 558.97 892.47 560.02 892.40
  Q 583.82 893.95 605.39 884.26
  Z"
/>
<path fill="#3f2f1f" d="
  M 765.82 927.37
  Q 772.77 933.24 775.79 936.21
  Q 778.33 938.71 779.35 942.77
  A 3.81 3.60 -51.1 0 1 779.45 944.04
  Q 778.77 951.38 772.15 953.65
  C 769.31 954.63 766.69 952.78 764.47 950.36
  Q 759.86 945.36 752.26 939.22
  C 740.00 929.32 724.37 926.58 709.04 928.11
  C 694.66 929.34 683.87 936.18 673.79 946.26
  Q 671.43 948.32 669.12 950.36
  C 664.86 954.12 656.55 950.52 655.62 945.15
  C 654.76 940.10 657.98 936.49 661.55 933.31
  Q 667.43 928.06 673.56 923.36
  Q 681.86 917.70 686.60 916.05
  C 713.11 906.81 743.88 908.96 765.82 927.37
  Z"
/>
<path fill="#c6b081" d="
  M 709.04 928.11
  Q 708.51 930.36 706.45 930.90
  C 701.23 932.27 696.25 933.26 690.98 936.25
  Q 685.19 939.54 677.15 946.34
  Q 675.48 947.75 673.71 948.31
  A 0.41 0.41 0.0 0 1 673.18 947.91
  Q 673.21 947.10 673.79 946.26
  C 683.87 936.18 694.66 929.34 709.04 928.11
  Z"
/>
<path fill="#3f2f1f" d="
  M 1064.62 985.82
  Q 1061.42 993.87 1057.41 1001.64
  C 1056.22 1003.94 1054.90 1007.32 1052.87 1010.24
  A 1.08 0.28 -75.7 0 1 1052.81 1010.35
  L 1040.23 1034.52
  A 1.99 1.97 -11.0 0 1 1039.93 1034.96
  Q 1037.72 1037.49 1035.91 1040.78
  C 1032.95 1046.18 1028.80 1051.77 1026.09 1055.83
  Q 1022.62 1061.03 1017.75 1065.72
  C 1016.79 1066.65 1015.92 1068.73 1014.78 1070.13
  Q 1007.11 1079.57 999.66 1089.32
  Q 982.60 1108.12 962.69 1124.17
  Q 957.65 1128.22 943.76 1137.74
  Q 932.09 1145.73 915.11 1154.92
  C 913.14 1155.04 911.53 1156.84 909.44 1157.42
  A 0.87 0.71 17.0 0 0 909.22 1157.51
  L 883.53 1169.61
  A 0.83 0.81 -88.6 0 0 883.14 1169.99
  Q 882.99 1170.26 882.97 1170.55
  Q 882.33 1170.55 881.63 1170.80
  A 0.20 0.20 0.0 0 0 881.62 1171.18
  Q 882.03 1171.33 882.00 1171.19
  A 0.08 0.08 0.0 0 0 881.84 1171.17
  Q 881.72 1171.44 880.87 1171.38
  C 880.48 1171.36 879.92 1171.53 879.83 1171.90
  A 0.17 0.16 87.4 0 1 879.73 1172.02
  L 868.79 1176.42
  Q 865.21 1176.63 862.39 1177.87
  Q 858.74 1179.46 855.52 1180.02
  Q 852.18 1180.60 845.27 1183.81
  L 837.10 1185.60
  A 2.24 2.04 -64.8 0 0 836.40 1185.89
  Q 833.53 1187.73 830.78 1187.64
  A 4.63 4.32 37.0 0 0 829.55 1187.77
  L 824.70 1189.03
  A 2.43 2.15 -48.6 0 1 824.14 1189.10
  Q 821.60 1189.15 817.85 1190.26
  A 5.32 4.94 -54.3 0 1 816.96 1190.44
  Q 806.05 1191.50 802.19 1192.17
  Q 775.52 1196.82 746.50 1196.38
  Q 722.00 1196.01 693.71 1194.59
  Q 690.45 1194.43 685.87 1193.55
  Q 681.99 1192.80 678.03 1192.34
  L 678.87 1192.29
  A 0.13 0.13 0.0 0 0 678.88 1192.04
  L 666.78 1190.07
  A 1.32 1.25 66.4 0 1 666.28 1189.86
  Q 665.49 1189.29 663.99 1189.39
  Q 662.62 1189.48 659.64 1188.59
  Q 658.95 1188.39 656.40 1188.14
  Q 656.35 1188.13 656.30 1188.12
  L 638.94 1183.87
  A 0.20 0.17 49.7 0 1 638.88 1183.86
  Q 633.84 1181.98 626.79 1179.98
  C 622.24 1178.68 618.78 1177.07 614.96 1176.18
  Q 612.70 1175.66 606.28 1172.84
  Q 602.47 1171.17 597.26 1169.64
  A 3.72 3.45 -18.5 0 1 596.40 1169.25
  Q 594.55 1168.06 592.05 1167.48
  A 6.12 5.82 -23.8 0 1 590.88 1167.06
  Q 583.14 1163.22 575.87 1160.71
  C 575.37 1160.53 575.13 1159.94 574.60 1159.62
  Q 568.15 1155.77 561.18 1153.14
  C 528.43 1134.34 498.40 1112.68 472.72 1084.93
  Q 468.21 1080.05 463.10 1073.32
  Q 462.54 1072.59 454.01 1061.27
  Q 433.06 1033.49 418.08 1002.16
  Q 416.97 996.64 414.00 991.46
  A 1.00 0.66 33.7 0 1 413.95 991.34
  L 404.71 966.55
  L 404.48 963.84
  A 0.32 0.32 0.0 0 1 404.88 963.50
  Q 418.30 966.98 431.78 972.66
  L 437.13 986.01
  Q 459.17 1035.01 496.08 1073.79
  Q 500.57 1078.51 503.76 1081.46
  C 510.37 1087.57 517.24 1094.37 523.54 1099.59
  C 540.68 1113.78 559.50 1126.27 579.60 1136.27
  Q 591.45 1142.17 595.53 1143.92
  Q 631.28 1159.17 669.38 1166.61
  Q 679.21 1168.53 694.60 1170.43
  Q 711.70 1172.55 720.01 1172.88
  Q 765.58 1174.70 811.46 1166.23
  C 821.14 1164.44 831.09 1161.82 842.96 1158.64
  Q 867.04 1152.18 891.48 1140.04
  Q 914.10 1128.80 936.13 1113.41
  Q 961.82 1095.46 984.69 1071.69
  Q 991.76 1064.34 1001.46 1052.47
  Q 1007.46 1045.11 1012.77 1037.23
  Q 1040.11 998.10 1056.04 953.37
  C 1065.63 962.49 1065.75 973.51 1064.62 985.82
  Z"
/>
<path fill="#654e31" d="
  M 1012.77 1037.23
  Q 1007.46 1045.11 1001.46 1052.47
  Q 991.76 1064.34 984.69 1071.69
  Q 961.82 1095.46 936.13 1113.41
  Q 914.10 1128.80 891.48 1140.04
  Q 867.04 1152.18 842.96 1158.64
  C 831.09 1161.82 821.14 1164.44 811.46 1166.23
  Q 765.58 1174.70 720.01 1172.88
  Q 711.70 1172.55 694.60 1170.43
  Q 679.21 1168.53 669.38 1166.61
  Q 631.28 1159.17 595.53 1143.92
  Q 591.45 1142.17 579.60 1136.27
  C 559.50 1126.27 540.68 1113.78 523.54 1099.59
  C 517.24 1094.37 510.37 1087.57 503.76 1081.46
  Q 500.57 1078.51 496.08 1073.79
  Q 459.17 1035.01 437.13 986.01
  Q 446.14 998.37 468.85 1031.51
  C 485.46 1055.77 508.22 1077.01 531.80 1095.08
  C 548.38 1107.78 563.75 1117.60 582.41 1126.33
  Q 624.07 1145.82 666.50 1154.42
  C 689.10 1159.00 711.89 1159.38 737.58 1158.63
  Q 771.44 1157.65 804.49 1152.16
  Q 842.41 1145.87 867.04 1137.57
  C 906.52 1124.27 940.45 1101.12 973.96 1075.06
  C 988.88 1063.45 999.31 1052.95 1012.77 1037.23
  Z"
/>
<path fill="#a2a09c" d="
  M 561.18 1153.14
  Q 568.15 1155.77 574.60 1159.62
  C 575.13 1159.94 575.37 1160.53 575.87 1160.71
  Q 583.14 1163.22 590.88 1167.06
  A 6.12 5.82 -23.8 0 0 592.05 1167.48
  Q 594.55 1168.06 596.40 1169.25
  A 3.72 3.45 -18.5 0 0 597.26 1169.64
  Q 602.47 1171.17 606.28 1172.84
  Q 612.70 1175.66 614.96 1176.18
  C 618.78 1177.07 622.24 1178.68 626.79 1179.98
  Q 633.84 1181.98 638.88 1183.86
  A 0.20 0.17 49.7 0 0 638.94 1183.87
  L 656.30 1188.12
  Q 656.35 1188.13 656.40 1188.14
  Q 658.95 1188.39 659.64 1188.59
  Q 662.62 1189.48 663.99 1189.39
  Q 665.49 1189.29 666.28 1189.86
  A 1.32 1.25 66.4 0 0 666.78 1190.07
  L 678.88 1192.04
  A 0.13 0.13 0.0 0 1 678.87 1192.29
  L 678.03 1192.34
  Q 669.76 1190.84 661.25 1190.70
  Q 657.95 1190.64 647.21 1187.11
  A 4.85 4.71 57.1 0 0 646.25 1186.89
  Q 638.85 1185.91 636.61 1184.89
  C 634.63 1183.98 632.94 1184.11 631.02 1183.08
  Q 628.09 1181.51 624.18 1180.85
  A 4.74 4.65 60.8 0 1 623.19 1180.56
  Q 618.53 1178.63 614.01 1177.42
  Q 608.33 1175.90 605.25 1174.45
  Q 601.11 1172.50 596.80 1170.51
  C 591.60 1168.12 586.11 1166.77 581.08 1164.31
  Q 570.83 1159.28 561.18 1153.14
  Z"
/>
<path fill="#a2a09c" d="
  M 915.11 1154.92
  Q 903.20 1162.38 887.09 1169.28
  Q 884.37 1170.44 882.97 1170.55
  Q 882.99 1170.26 883.14 1169.99
  A 0.83 0.81 -88.6 0 1 883.53 1169.61
  L 909.22 1157.51
  A 0.87 0.71 17.0 0 1 909.44 1157.42
  C 911.53 1156.84 913.14 1155.04 915.11 1154.92
  Z"
/>
<path fill="#c6b081" d="
  M 868.79 1176.42
  Q 866.76 1177.83 865.03 1178.51
  Q 855.82 1182.11 845.27 1183.81
  Q 852.18 1180.60 855.52 1180.02
  Q 858.74 1179.46 862.39 1177.87
  Q 865.21 1176.63 868.79 1176.42
  Z"
/>
</svg>
