<?xml version="1.0" encoding="UTF-8" standalone="no"?>
<!DOCTYPE svg PUBLIC "-//W3C//DTD SVG 1.1//EN" "http://www.w3.org/Graphics/SVG/1.1/DTD/svg11.dtd">
<svg xmlns="http://www.w3.org/2000/svg" version="1.1" viewBox="0.00 0.00 1491.00 2109.00">
<g stroke-width="2.00" fill="none" stroke-linecap="butt">
<path stroke="#878787" vector-effect="non-scaling-stroke" d="
  M 766.05 1399.94
  Q 768.77 1399.60 771.58 1399.58
  A 0.01 0.01 0.0 0 0 771.59 1399.56
  Q 771.57 1399.55 771.56 1399.54
  A 0.14 0.05 36.1 0 0 771.43 1399.50
  Q 771.24 1399.66 771.13 1399.63
  A 0.12 0.12 0.0 0 1 771.16 1399.39
  Q 771.19 1399.39 787.52 1398.81
  Q 795.57 1398.53 803.81 1397.46
  Q 825.59 1394.63 836.34 1392.54
  C 856.09 1388.69 877.15 1382.92 897.24 1374.71
  Q 913.90 1367.90 920.73 1364.72
  Q 928.90 1360.91 947.61 1350.37
  C 960.24 1343.26 970.25 1335.26 984.27 1325.26
  Q 990.33 1320.94 1006.90 1306.80
  C 1021.85 1294.05 1033.41 1278.88 1045.94 1263.94
  Q 1049.69 1259.47 1059.22 1243.72
  Q 1066.76 1231.26 1074.15 1217.67
  Q 1084.38 1198.86 1092.87 1175.91
  Q 1100.06 1156.48 1104.97 1131.80
  Q 1110.28 1105.09 1112.27 1078.28
  Q 1113.34 1063.95 1113.09 1051.75
  Q 1112.31 1012.45 1105.34 972.02"
/>
<path stroke="#787878" vector-effect="non-scaling-stroke" d="
  M 1105.34 972.02
  Q 1099.75 943.08 1091.29 914.72
  Q 1076.72 865.92 1055.74 819.78
  C 1050.41 808.05 1045.02 795.74 1039.03 784.86
  Q 1024.54 758.52 1020.51 752.20
  Q 1013.13 740.65 990.82 710.53
  Q 988.34 707.18 973.36 689.08
  Q 970.62 685.76 969.07 684.18
  C 964.91 679.92 962.44 677.05 958.34 673.23
  Q 954.01 669.21 944.55 659.86
  Q 939.86 655.23 929.14 645.99
  Q 920.94 638.93 913.88 634.46
  Q 907.66 630.53 902.63 626.85
  Q 897.97 623.46 891.09 619.36
  C 877.23 611.10 865.60 604.55 852.11 599.88
  Q 842.77 596.64 828.90 592.61
  Q 816.94 589.12 804.72 586.71"
/>
<path stroke="#878787" vector-effect="non-scaling-stroke" d="
  M 804.72 586.71
  Q 791.84 583.69 782.00 582.66
  Q 773.61 581.78 756.75 581.23
  Q 753.85 581.13 745.40 581.86
  Q 741.55 582.19 734.08 582.67
  C 721.66 583.47 712.22 585.89 698.18 589.01
  Q 688.45 591.17 675.61 595.06
  Q 664.33 598.47 653.84 603.45
  Q 640.50 609.78 630.64 615.66
  C 617.44 623.54 612.35 626.19 603.09 632.66
  Q 595.42 638.02 592.86 640.11
  Q 561.07 666.13 542.93 687.17
  Q 524.74 708.26 504.65 736.86
  Q 494.95 750.66 486.70 765.14
  Q 478.40 779.69 471.03 794.76"
/>
<path stroke="#787878" vector-effect="non-scaling-stroke" d="
  M 471.03 794.76
  Q 458.95 817.99 456.13 824.88
  Q 444.90 852.24 441.04 862.24
  Q 429.42 892.39 420.75 923.98
  C 417.13 937.18 413.14 957.89 410.56 968.20
  Q 408.61 975.96 407.42 987.19
  Q 406.71 993.94 404.80 1007.02
  Q 403.55 1015.61 402.34 1045.28"
/>
<path stroke="#878787" vector-effect="non-scaling-stroke" d="
  M 402.34 1045.28
  Q 401.64 1060.74 402.93 1076.28"
/>
<path stroke="#787878" vector-effect="non-scaling-stroke" d="
  M 402.93 1076.28
  Q 404.44 1094.54 405.64 1101.62
  Q 407.81 1114.30 408.98 1121.61
  C 410.37 1130.24 412.81 1139.05 414.50 1147.51
  Q 417.41 1162.16 423.15 1176.64
  Q 429.38 1192.37 437.46 1209.96
  C 446.31 1229.25 456.95 1246.39 468.49 1262.29
  Q 480.61 1278.97 496.07 1295.10
  C 511.13 1310.81 528.86 1323.30 546.11 1336.40
  Q 552.14 1340.99 567.56 1349.81"
/>
<path stroke="#878787" vector-effect="non-scaling-stroke" d="
  M 567.56 1349.81
  Q 582.93 1359.42 601.23 1366.99
  C 620.22 1374.86 637.72 1382.17 655.18 1386.59
  Q 669.15 1390.11 681.55 1392.74
  Q 687.35 1393.97 698.03 1395.26
  Q 706.31 1396.27 714.58 1397.37"
/>
<path stroke="#9a9a9a" vector-effect="non-scaling-stroke" d="
  M 714.58 1397.37
  L 741.55 1399.48"
/>
<path stroke="#878787" vector-effect="non-scaling-stroke" d="
  M 741.55 1399.48
  L 744.54 1399.63"
/>
<path stroke="#3b3b3c" vector-effect="non-scaling-stroke" d="
  M 804.72 586.71
  L 797.04 586.60
  A 0.36 0.36 0.0 0 0 796.70 587.08
  L 796.91 587.66
  A 0.34 0.34 0.0 0 0 797.20 587.89
  C 810.83 589.30 825.22 593.58 837.59 597.93
  Q 841.91 599.44 846.95 600.76
  Q 854.54 602.76 856.31 603.62
  Q 868.64 609.60 878.39 614.77
  C 887.61 619.66 892.56 623.21 903.13 629.89
  C 910.88 634.79 919.46 640.57 925.66 645.66
  C 937.20 655.11 946.72 664.71 957.82 675.17
  Q 963.53 680.55 969.10 686.91
  Q 992.28 713.38 1016.26 748.73
  C 1017.12 750.00 1018.27 751.03 1019.12 752.53
  Q 1026.41 765.43 1037.84 785.85
  C 1043.08 795.22 1046.51 804.22 1050.96 813.30
  C 1058.10 827.85 1064.83 844.63 1070.33 858.38
  Q 1076.36 873.46 1079.07 881.90
  Q 1085.33 901.37 1089.91 914.95
  Q 1090.98 918.13 1091.38 920.15
  C 1092.20 924.43 1093.61 928.46 1094.50 931.89
  Q 1100.49 955.13 1104.63 976.96
  A 0.37 0.37 0.0 0 0 1105.36 976.89
  L 1105.34 972.02"
/>
<path stroke="#5e5e5e" vector-effect="non-scaling-stroke" d="
  M 741.55 1399.48
  Q 728.26 1396.22 714.58 1397.37"
/>
<path stroke="#3b3b3c" vector-effect="non-scaling-stroke" d="
  M 567.56 1349.81
  Q 567.75 1347.73 565.18 1346.23
  C 548.26 1336.39 538.08 1328.12 517.55 1312.11
  Q 510.11 1306.31 504.15 1300.56
  Q 495.15 1291.88 491.37 1287.37
  C 483.00 1277.40 473.79 1267.63 467.02 1256.96
  Q 462.63 1250.05 458.85 1244.68
  Q 453.36 1236.87 450.80 1232.33
  Q 444.71 1221.54 440.26 1211.78
  C 432.46 1194.64 427.14 1183.43 421.85 1168.43
  Q 418.58 1159.14 416.17 1146.97
  Q 414.85 1140.30 414.79 1140.05
  C 413.22 1133.49 412.18 1129.38 411.07 1122.84
  Q 408.27 1106.26 407.46 1101.02
  Q 406.73 1096.31 405.85 1087.87
  Q 405.17 1081.32 404.49 1074.72
  Q 404.42 1073.94 403.66 1073.29
  A 0.31 0.31 0.0 0 0 403.15 1073.50
  L 402.93 1076.28"
/>
<path stroke="#3b3b3c" vector-effect="non-scaling-stroke" d="
  M 402.34 1045.28
  Q 404.40 1042.49 404.55 1037.40
  Q 405.17 1016.64 409.10 986.28
  Q 409.90 980.04 411.27 973.25
  Q 412.93 965.01 413.82 960.26
  Q 417.22 942.24 424.47 916.10
  Q 425.14 913.67 425.69 911.91
  C 428.01 904.58 430.56 895.24 433.68 886.73
  Q 444.41 857.36 446.46 852.45
  Q 452.67 837.52 454.38 833.14
  Q 455.70 829.76 457.43 826.53
  Q 458.33 824.85 460.43 819.89
  C 463.44 812.77 469.27 802.60 471.72 797.25
  Q 472.37 795.84 471.03 794.76"
/>
<path stroke="#515151" vector-effect="non-scaling-stroke" d="
  M 487.07 830.78
  Q 473.46 859.92 462.53 890.14
  Q 455.78 908.80 450.92 927.87
  C 443.64 956.45 437.21 988.36 434.64 1019.03
  C 433.14 1037.01 433.57 1050.85 433.98 1070.78
  C 434.90 1114.60 445.46 1160.33 465.32 1198.69
  Q 467.45 1202.81 480.77 1225.70
  Q 484.89 1232.78 490.42 1240.29
  Q 498.05 1250.66 501.10 1254.45
  Q 510.30 1265.88 520.32 1275.09
  Q 523.90 1278.38 528.42 1283.19
  C 534.39 1289.53 541.47 1295.86 549.61 1301.61
  C 557.45 1307.16 562.57 1311.39 569.10 1315.41
  Q 590.81 1328.76 601.69 1333.83
  Q 636.90 1350.23 675.00 1359.37
  Q 693.97 1363.93 710.32 1365.66
  Q 730.18 1367.76 746.15 1368.41
  Q 788.17 1370.14 830.27 1361.69
  C 837.39 1360.26 851.15 1357.68 861.02 1354.87
  Q 888.07 1347.17 911.29 1334.85
  Q 916.81 1331.92 921.93 1329.49
  C 935.86 1322.87 948.64 1313.71 961.79 1304.28
  C 984.57 1287.94 1002.25 1269.29 1020.42 1246.48
  C 1028.47 1236.37 1035.60 1224.76 1041.89 1214.41
  Q 1052.38 1197.15 1059.88 1177.64
  Q 1063.23 1168.92 1068.75 1150.48
  Q 1072.79 1137.00 1075.14 1123.68
  Q 1079.01 1101.75 1079.45 1096.40
  Q 1081.85 1066.92 1081.89 1060.35
  Q 1082.02 1035.17 1078.17 1000.90
  Q 1074.37 967.01 1066.03 937.70
  C 1063.04 927.19 1061.40 919.64 1058.22 910.30
  Q 1055.07 901.01 1048.94 881.84
  Q 1045.52 871.17 1032.79 841.53"
/>
<path stroke="#5a5a5a" vector-effect="non-scaling-stroke" d="
  M 1032.79 841.53
  Q 1023.25 820.53 1017.03 807.92
  Q 1007.59 788.78 993.97 767.31
  C 981.81 748.13 973.54 735.42 961.67 721.04
  Q 954.54 712.41 948.71 706.06
  Q 913.34 667.49 869.74 641.04
  C 858.48 634.22 843.23 628.43 833.00 624.78
  Q 818.69 619.67 800.37 615.69
  Q 795.32 614.60 787.13 613.64
  Q 778.55 612.64 773.77 612.26
  Q 758.87 611.11 739.26 612.29
  Q 729.25 612.89 721.46 614.47
  C 700.42 618.71 679.68 624.45 660.07 634.08
  Q 645.87 641.05 638.16 645.94
  Q 620.72 656.99 601.85 672.35
  Q 572.35 696.37 549.36 726.69
  Q 547.62 728.98 540.26 738.46
  C 532.53 748.41 527.44 756.90 519.51 769.38
  C 515.40 775.85 511.34 783.45 507.76 789.79
  Q 504.03 796.41 499.60 805.43
  Q 493.36 818.13 487.07 830.78"
/>
<path stroke="#606060" vector-effect="non-scaling-stroke" d="
  M 1032.79 841.53
  Q 1038.51 888.40 1044.08 935.29
  C 1047.02 960.07 1048.10 984.70 1045.42 1009.53
  Q 1042.46 1037.02 1038.26 1065.91
  Q 1036.29 1079.48 1033.98 1089.79
  Q 1029.33 1110.62 1018.96 1132.00
  C 1009.90 1150.70 999.66 1169.39 985.35 1184.69
  Q 971.03 1200.00 954.79 1211.81
  Q 950.69 1214.79 938.62 1222.19
  C 924.00 1231.15 909.94 1240.54 895.08 1249.85
  C 885.97 1255.55 877.68 1262.16 869.29 1267.79
  Q 850.74 1280.23 828.42 1283.61
  Q 797.89 1288.24 775.83 1291.26
  Q 750.77 1294.69 729.05 1294.31
  C 711.32 1294.00 697.38 1291.11 678.01 1287.19
  C 669.87 1285.54 659.47 1283.52 650.58 1280.89
  Q 636.34 1276.67 622.86 1268.11
  Q 612.56 1261.56 585.81 1241.72
  C 569.59 1229.70 556.43 1219.40 545.62 1206.78
  Q 531.19 1189.93 513.12 1165.58
  C 503.67 1152.85 495.05 1138.23 489.33 1125.19
  Q 471.36 1084.21 464.42 1039.35
  Q 461.70 1021.73 460.57 995.74
  Q 459.53 971.78 459.52 951.95
  Q 459.52 927.70 465.01 903.94
  C 471.14 877.46 479.35 855.13 487.07 830.78"
/>
<path stroke="#4b4b4b" vector-effect="non-scaling-stroke" d="
  M 530.93 928.25
  Q 533.18 932.96 534.18 934.31
  Q 537.22 938.39 553.51 953.43
  Q 563.30 962.46 573.92 973.52
  Q 576.00 975.68 574.02 977.78
  C 570.32 981.69 566.92 985.50 563.62 988.71
  Q 551.25 1000.75 540.21 1011.75
  Q 534.01 1017.91 533.47 1018.90
  C 529.50 1026.12 531.86 1033.69 536.27 1039.87
  Q 540.61 1045.95 545.65 1048.18
  Q 552.75 1051.32 560.05 1048.16
  Q 563.33 1046.74 571.26 1038.78
  Q 578.69 1031.33 586.19 1023.97"
/>
<path stroke="#6d6d6d" vector-effect="non-scaling-stroke" d="
  M 586.19 1023.97
  Q 592.91 1034.00 600.03 1043.65
  Q 606.07 1051.82 608.53 1055.57
  C 614.58 1064.81 620.32 1073.70 627.97 1082.06
  Q 644.94 1100.62 664.51 1116.29
  C 672.28 1122.51 681.33 1127.83 690.93 1130.11
  C 699.81 1132.22 708.82 1132.62 718.25 1132.99
  C 733.85 1133.61 745.09 1133.67 758.35 1129.47
  Q 773.04 1124.83 777.58 1123.89
  Q 794.16 1120.44 803.38 1118.19
  Q 822.05 1113.63 837.09 1101.96
  Q 845.46 1095.47 860.07 1083.77
  C 870.89 1075.11 879.33 1066.73 887.17 1056.72
  Q 899.17 1041.39 910.78 1026.29
  Q 914.62 1021.30 919.75 1012.45"
/>
<path stroke="#4b4b4b" vector-effect="non-scaling-stroke" d="
  M 919.75 1012.45
  Q 921.65 1014.09 923.41 1015.83
  Q 933.45 1025.78 945.74 1037.29
  C 952.07 1043.23 957.77 1051.10 967.69 1049.49
  Q 983.96 1046.86 986.53 1030.43
  Q 987.85 1021.99 981.38 1015.61
  Q 967.59 1001.99 945.18 980.29
  C 942.59 977.77 940.27 976.29 943.24 973.23
  C 957.69 958.34 972.77 943.97 982.55 933.80
  C 988.81 927.28 986.55 917.47 981.10 911.44
  C 974.81 904.48 964.49 900.19 955.92 905.92
  Q 953.39 907.62 950.68 910.19
  Q 942.33 918.13 934.06 926.41"
/>
<path stroke="#6d6d6d" vector-effect="non-scaling-stroke" d="
  M 934.06 926.41
  Q 932.23 914.41 930.04 908.43
  C 923.86 891.52 917.30 875.44 913.10 857.24
  C 908.35 836.71 906.42 826.64 900.58 811.67
  Q 893.18 792.73 888.57 782.31
  C 881.85 767.15 872.05 753.12 863.54 740.19
  Q 855.49 727.98 842.52 722.77
  Q 837.02 720.56 828.44 717.48
  C 818.39 713.87 807.18 708.14 797.43 704.43
  Q 782.62 698.81 766.42 697.56
  C 749.19 696.24 730.22 700.73 711.79 705.82
  Q 692.93 711.03 676.88 720.65
  Q 669.58 725.03 651.87 737.21
  Q 619.82 759.25 605.47 794.35
  Q 592.97 824.91 591.55 828.62
  Q 587.44 839.39 585.91 845.04
  C 581.86 860.03 579.24 871.48 574.55 883.60
  Q 569.13 897.62 554.93 900.69
  A 3.23 3.11 -46.1 0 1 553.93 900.73
  Q 549.28 900.11 545.34 901.56
  Q 540.59 903.30 536.38 907.18
  Q 534.10 909.29 532.27 913.24
  Q 529.46 919.31 529.30 920.00
  Q 528.51 923.40 530.93 928.25"
/>
<path stroke="#4f4f4f" vector-effect="non-scaling-stroke" d="
  M 934.06 926.41
  Q 919.35 941.56 914.34 946.11
  C 911.70 948.51 909.66 946.11 907.20 943.67
  Q 884.61 921.26 878.35 915.21
  Q 874.39 911.38 870.81 908.36
  Q 867.59 905.66 862.37 903.87
  C 854.35 901.13 845.54 905.18 840.71 911.77
  C 834.16 920.72 839.07 932.00 846.23 938.52
  Q 869.75 959.92 883.10 974.42
  Q 884.73 976.19 882.98 977.98
  Q 865.66 995.72 846.42 1014.17
  C 841.94 1018.47 837.79 1022.50 837.54 1029.00
  Q 837.23 1036.90 842.20 1042.30
  C 850.42 1051.23 862.55 1053.41 871.89 1044.63
  Q 885.13 1032.18 909.38 1007.87
  Q 911.85 1005.39 914.34 1007.40
  Q 917.25 1009.75 919.75 1012.45"
/>
<path stroke="#4f4f4f" vector-effect="non-scaling-stroke" d="
  M 586.19 1023.97
  Q 593.62 1016.61 601.00 1009.26
  C 603.32 1006.94 604.51 1004.92 607.35 1007.65
  Q 620.73 1020.54 643.23 1042.52
  C 648.81 1047.96 657.37 1051.14 664.94 1047.99
  Q 678.75 1042.24 678.71 1028.03
  C 678.69 1021.18 674.80 1016.45 670.08 1011.82
  Q 658.61 1000.55 637.53 980.11
  Q 635.98 978.61 634.71 976.35
  A 0.92 0.91 46.6 0 1 634.73 975.41
  Q 636.30 972.95 636.89 972.39
  Q 653.56 956.38 673.36 936.38
  Q 678.42 931.27 678.60 924.96
  Q 679.04 909.35 664.45 904.20
  Q 656.60 901.43 650.69 904.98
  Q 645.74 907.96 644.24 909.50
  Q 628.85 925.26 614.43 939.93
  Q 610.55 943.87 607.35 946.06
  C 604.52 948.01 602.08 945.94 600.04 943.85
  Q 592.36 935.98 569.00 912.81
  Q 561.93 905.80 557.86 904.09
  C 545.25 898.80 534.05 909.50 531.03 921.28
  Q 530.37 923.85 530.93 928.25"
/>
<path stroke="#4f4f4f" vector-effect="non-scaling-stroke" d="
  M 703.78 1079.28
  Q 703.77 1083.64 707.09 1087.16
  C 710.71 1090.99 714.73 1091.00 719.68 1091.17
  Q 725.14 1091.35 725.35 1091.35
  Q 764.45 1090.86 800.51 1091.22
  C 806.98 1091.29 813.94 1086.80 813.97 1079.61
  C 813.99 1072.42 807.05 1067.89 800.58 1067.92
  Q 764.52 1068.07 725.42 1067.35
  Q 725.21 1067.34 719.75 1067.49
  C 714.80 1067.63 710.78 1067.62 707.14 1071.42
  Q 703.79 1074.92 703.78 1079.28"
/>
</g>
<path fill="#c3c3c3" d="
  M 766.05 1399.94
  Q 768.77 1399.60 771.58 1399.58
  A 0.01 0.01 0.0 0 0 771.59 1399.56
  Q 771.57 1399.55 771.56 1399.54
  A 0.14 0.05 36.1 0 0 771.43 1399.50
  Q 771.24 1399.66 771.13 1399.63
  A 0.12 0.12 0.0 0 1 771.16 1399.39
  Q 771.19 1399.39 787.52 1398.81
  Q 795.57 1398.53 803.81 1397.46
  Q 825.59 1394.63 836.34 1392.54
  C 856.09 1388.69 877.15 1382.92 897.24 1374.71
  Q 913.90 1367.90 920.73 1364.72
  Q 928.90 1360.91 947.61 1350.37
  C 960.24 1343.26 970.25 1335.26 984.27 1325.26
  Q 990.33 1320.94 1006.90 1306.80
  C 1021.85 1294.05 1033.41 1278.88 1045.94 1263.94
  Q 1049.69 1259.47 1059.22 1243.72
  Q 1066.76 1231.26 1074.15 1217.67
  Q 1084.38 1198.86 1092.87 1175.91
  Q 1100.06 1156.48 1104.97 1131.80
  Q 1110.28 1105.09 1112.27 1078.28
  Q 1113.34 1063.95 1113.09 1051.75
  Q 1112.31 1012.45 1105.34 972.02
  Q 1099.75 943.08 1091.29 914.72
  Q 1076.72 865.92 1055.74 819.78
  C 1050.41 808.05 1045.02 795.74 1039.03 784.86
  Q 1024.54 758.52 1020.51 752.20
  Q 1013.13 740.65 990.82 710.53
  Q 988.34 707.18 973.36 689.08
  Q 970.62 685.76 969.07 684.18
  C 964.91 679.92 962.44 677.05 958.34 673.23
  Q 954.01 669.21 944.55 659.86
  Q 939.86 655.23 929.14 645.99
  Q 920.94 638.93 913.88 634.46
  Q 907.66 630.53 902.63 626.85
  Q 897.97 623.46 891.09 619.36
  C 877.23 611.10 865.60 604.55 852.11 599.88
  Q 842.77 596.64 828.90 592.61
  Q 816.94 589.12 804.72 586.71
  Q 791.84 583.69 782.00 582.66
  Q 773.61 581.78 756.75 581.23
  Q 753.85 581.13 745.40 581.86
  Q 741.55 582.19 734.08 582.67
  C 721.66 583.47 712.22 585.89 698.18 589.01
  Q 688.45 591.17 675.61 595.06
  Q 664.33 598.47 653.84 603.45
  Q 640.50 609.78 630.64 615.66
  C 617.44 623.54 612.35 626.19 603.09 632.66
  Q 595.42 638.02 592.86 640.11
  Q 561.07 666.13 542.93 687.17
  Q 524.74 708.26 504.65 736.86
  Q 494.95 750.66 486.70 765.14
  Q 478.40 779.69 471.03 794.76
  Q 458.95 817.99 456.13 824.88
  Q 444.90 852.24 441.04 862.24
  Q 429.42 892.39 420.75 923.98
  C 417.13 937.18 413.14 957.89 410.56 968.20
  Q 408.61 975.96 407.42 987.19
  Q 406.71 993.94 404.80 1007.02
  Q 403.55 1015.61 402.34 1045.28
  Q 401.64 1060.74 402.93 1076.28
  Q 404.44 1094.54 405.64 1101.62
  Q 407.81 1114.30 408.98 1121.61
  C 410.37 1130.24 412.81 1139.05 414.50 1147.51
  Q 417.41 1162.16 423.15 1176.64
  Q 429.38 1192.37 437.46 1209.96
  C 446.31 1229.25 456.95 1246.39 468.49 1262.29
  Q 480.61 1278.97 496.07 1295.10
  C 511.13 1310.81 528.86 1323.30 546.11 1336.40
  Q 552.14 1340.99 567.56 1349.81
  Q 582.93 1359.42 601.23 1366.99
  C 620.22 1374.86 637.72 1382.17 655.18 1386.59
  Q 669.15 1390.11 681.55 1392.74
  Q 687.35 1393.97 698.03 1395.26
  Q 706.31 1396.27 714.58 1397.37
  L 741.55 1399.48
  L 744.54 1399.63
  Q 741.78 1399.66 739.07 1400.08
  Q 734.93 1400.71 733.63 1400.78
  C 726.22 1401.14 719.69 1401.43 712.07 1400.10
  C 707.89 1399.37 700.67 1400.23 695.68 1399.43
  C 690.92 1398.68 687.09 1398.78 682.17 1397.48
  Q 674.44 1395.43 664.38 1393.72
  Q 661.05 1393.15 648.84 1389.47
  A 2.93 2.81 52.6 0 0 648.13 1389.36
  Q 646.08 1389.33 643.27 1388.11
  Q 639.62 1386.51 633.38 1385.85
  Q 632.19 1385.72 627.04 1382.80
  A 7.44 6.80 -19.3 0 0 625.71 1382.23
  L 619.60 1380.31
  A 1.79 1.18 -1.6 0 1 619.39 1380.22
  Q 614.99 1377.62 608.59 1376.11
  A 4.10 3.86 66.0 0 1 607.40 1375.61
  Q 603.07 1372.94 597.52 1371.54
  A 1.96 1.76 -21.6 0 1 597.25 1371.44
  L 586.39 1366.44
  A 2.23 1.69 66.9 0 1 586.04 1366.24
  Q 583.01 1364.15 580.43 1363.07
  C 576.49 1361.43 573.59 1359.02 569.31 1357.20
  A 5.17 4.94 -12.6 0 1 568.05 1356.44
  Q 566.03 1354.80 563.02 1353.65
  A 4.55 4.49 71.9 0 1 562.13 1353.19
  Q 558.32 1350.67 556.19 1349.64
  C 552.85 1348.03 550.88 1346.34 547.67 1344.54
  Q 546.93 1344.13 544.54 1342.15
  Q 540.36 1338.69 536.37 1335.97
  C 532.04 1333.02 529.01 1330.31 525.60 1327.97
  Q 516.90 1322.02 510.01 1315.59
  C 507.77 1313.50 504.49 1311.20 502.50 1309.23
  Q 488.91 1295.71 484.14 1290.10
  C 478.58 1283.56 471.72 1275.83 466.85 1269.45
  Q 455.21 1254.23 445.70 1238.45
  C 443.29 1234.44 441.33 1229.48 438.68 1226.15
  A 2.01 2.01 0.0 0 1 438.27 1225.29
  Q 437.81 1223.17 436.29 1220.70
  C 434.47 1217.73 433.39 1214.64 431.63 1211.06
  Q 422.81 1193.13 420.13 1185.45
  Q 417.75 1178.64 417.47 1178.00
  C 415.31 1173.12 415.24 1169.45 413.21 1164.69
  Q 410.76 1158.96 410.11 1151.02
  Q 409.95 1149.12 407.61 1142.81
  Q 406.03 1138.55 405.62 1132.22
  A 19.31 19.08 -54.1 0 0 405.10 1128.85
  Q 403.55 1122.57 402.55 1118.60
  C 401.09 1112.81 401.44 1105.14 400.22 1099.53
  Q 397.49 1086.92 397.24 1074.02
  Q 396.91 1056.98 397.10 1037.97
  Q 397.16 1032.17 397.59 1027.05
  Q 398.34 1018.10 398.35 1016.11
  C 398.39 1011.08 400.00 1006.78 400.28 1001.75
  Q 401.03 988.28 402.05 978.64
  Q 402.42 975.18 403.01 973.27
  C 404.68 967.92 405.57 962.93 405.85 957.07
  Q 405.95 955.04 407.17 951.33
  C 408.18 948.26 409.60 944.62 409.96 940.51
  Q 410.40 935.49 410.52 935.11
  A 7.41 4.11 -73.9 0 0 410.80 934.10
  Q 410.89 933.74 413.18 928.55
  A 0.54 0.40 -36.3 0 0 413.23 928.39
  L 415.60 917.95
  A 0.86 0.85 66.6 0 1 415.71 917.67
  Q 419.12 911.62 419.54 905.24
  A 4.21 3.91 58.8 0 1 419.76 904.18
  L 429.83 874.83
  A 1.35 0.84 -46.0 0 1 429.90 874.67
  Q 432.84 869.01 434.02 863.37
  A 1.30 0.20 -81.4 0 1 434.06 863.24
  L 439.37 849.40
  A 0.97 0.82 -22.0 0 1 439.48 849.19
  Q 441.28 846.44 442.53 841.63
  A 9.10 9.02 66.1 0 1 443.28 839.66
  Q 445.51 835.31 445.99 833.84
  Q 446.97 830.83 448.66 828.02
  Q 448.85 827.72 454.91 815.48
  Q 456.08 813.11 456.23 812.28
  C 456.46 810.89 457.16 809.01 457.71 807.93
  Q 461.70 800.13 464.73 794.44
  C 468.67 787.04 474.06 779.10 477.68 771.42
  A 0.24 0.24 0.0 0 0 477.26 771.18
  L 475.05 774.39
  A 0.21 0.21 0.0 0 1 474.80 774.47
  L 474.80 774.46
  A 0.14 0.14 0.0 0 1 474.77 774.25
  C 476.92 771.50 478.63 769.60 480.49 766.27
  C 486.22 756.00 488.89 750.83 494.76 743.52
  Q 496.33 741.57 497.19 740.00
  C 499.08 736.53 500.13 735.26 501.91 731.19
  C 504.15 726.05 508.62 720.61 512.28 716.73
  C 516.89 711.82 521.36 704.40 525.20 699.96
  Q 545.68 676.26 569.25 655.69
  A 0.14 0.14 0.0 0 0 569.10 655.46
  Q 568.90 655.55 568.65 655.89
  Q 567.83 657.00 565.86 658.17
  A 0.13 0.13 0.0 0 1 565.71 657.97
  L 585.26 640.32
  A 0.15 0.15 0.0 0 1 585.47 640.33
  L 585.68 640.56
  A 0.20 0.20 0.0 0 1 585.67 640.83
  L 583.44 643.07
  A 0.02 0.02 0.0 0 0 583.44 643.10
  L 583.64 643.32
  A 0.19 0.18 -41.6 0 0 583.90 643.33
  Q 598.79 630.61 602.84 627.86
  Q 623.92 613.52 645.92 602.68
  C 660.18 595.64 671.48 591.98 689.23 586.17
  C 696.58 583.76 704.02 583.23 711.13 581.13
  C 719.73 578.60 730.76 577.75 738.51 577.29
  Q 762.86 575.86 789.00 578.39
  Q 790.98 578.58 810.72 580.61
  Q 817.81 581.34 824.39 583.82
  A 0.06 0.06 0.0 0 1 824.37 583.93
  L 824.08 583.93
  L 824.07 583.93
  Q 815.81 581.24 807.44 580.63
  A 0.35 0.34 4.3 0 0 807.07 580.94
  L 807.07 580.96
  A 0.33 0.33 0.0 0 0 807.37 581.32
  Q 813.75 581.91 820.17 584.01
  A 0.16 0.01 18.1 0 1 820.30 584.06
  Q 820.32 584.07 820.33 584.09
  A 0.01 0.01 0.0 0 1 820.32 584.11
  L 807.88 581.43
  A 0.22 0.21 -76.9 0 0 807.62 581.60
  L 807.56 581.88
  A 0.19 0.19 0.0 0 0 807.72 582.11
  L 814.20 582.92
  A 0.15 0.15 0.0 0 1 814.32 583.05
  L 814.36 583.24
  A 0.09 0.08 82.1 0 1 814.28 583.35
  L 808.91 583.29
  A 0.03 0.03 0.0 0 0 808.89 583.34
  Q 808.92 583.37 809.24 583.43
  Q 811.52 583.93 814.37 584.20
  A 16.94 16.80 57.0 0 1 818.33 585.06
  C 824.44 587.20 831.27 587.95 837.43 590.55
  C 839.00 591.21 842.66 592.91 844.59 592.88
  C 843.30 592.44 842.11 592.03 840.89 591.74
  A 0.06 0.04 38.0 0 1 840.86 591.64
  Q 840.97 591.62 840.98 591.63
  C 842.61 591.66 846.27 592.50 848.08 593.30
  C 854.31 596.04 860.05 597.72 866.78 600.89
  Q 878.81 606.57 888.36 612.02
  Q 889.13 612.47 890.94 613.88
  C 893.72 616.06 897.40 617.75 900.52 619.42
  Q 902.74 620.60 907.08 623.68
  Q 913.29 628.07 928.75 639.03
  Q 937.82 645.47 944.23 651.86
  C 952.01 659.62 955.96 664.06 962.51 670.12
  Q 963.60 671.13 970.70 678.47
  Q 975.78 683.74 989.12 699.21
  Q 992.04 702.61 992.76 704.70
  C 992.88 705.04 993.31 705.41 993.65 705.48
  A 1.82 1.80 -10.6 0 1 994.70 706.19
  L 1016.71 736.72
  A 0.07 0.07 0.0 0 0 1016.74 736.75
  Q 1018.22 737.80 1019.54 741.08
  Q 1020.02 742.26 1022.53 745.61
  Q 1023.90 747.45 1025.52 750.30
  Q 1033.10 763.71 1033.12 763.75
  Q 1042.53 780.51 1043.97 783.53
  Q 1045.11 785.93 1046.99 788.70
  C 1048.38 790.76 1048.87 793.35 1050.49 795.73
  C 1052.41 798.56 1052.37 801.84 1054.24 804.48
  C 1056.40 807.54 1057.90 813.34 1059.53 816.19
  C 1061.05 818.84 1061.83 821.30 1063.28 823.88
  C 1067.02 830.51 1070.43 837.03 1071.82 844.71
  A 6.28 5.96 28.3 0 0 1072.34 846.29
  C 1073.98 849.60 1074.88 851.17 1075.63 854.01
  Q 1076.75 858.23 1079.23 862.55
  A 2.42 2.22 78.4 0 1 1079.37 862.86
  L 1086.74 883.54
  A 0.35 0.23 34.1 0 0 1086.78 883.64
  Q 1089.43 889.13 1090.48 895.25
  A 2.12 1.79 -66.6 0 0 1090.60 895.65
  L 1094.11 904.34
  A 3.04 2.93 -59.8 0 1 1094.33 905.24
  Q 1094.81 910.79 1097.86 916.08
  A 3.90 3.90 0.0 0 1 1098.32 917.34
  C 1099.45 923.58 1100.19 928.07 1102.29 932.83
  A 1.66 1.42 -67.2 0 1 1102.37 933.08
  L 1105.27 949.14
  A 1.81 1.73 27.0 0 0 1105.47 949.71
  C 1108.28 954.71 1108.31 958.58 1108.72 965.21
  Q 1108.89 968.02 1110.10 971.96
  Q 1111.96 977.97 1112.56 985.03
  Q 1113.11 991.39 1113.54 994.45
  Q 1114.77 1003.20 1115.46 1006.71
  C 1116.30 1010.98 1116.87 1014.18 1116.84 1017.48
  Q 1116.78 1023.39 1117.17 1033.12
  Q 1117.83 1049.64 1117.12 1071.24
  C 1116.88 1078.53 1117.74 1086.44 1116.20 1093.22
  Q 1112.96 1107.46 1112.70 1116.02
  Q 1112.57 1120.58 1112.02 1122.07
  C 1109.63 1128.66 1108.94 1133.71 1107.77 1142.19
  A 0.36 0.18 -53.1 0 1 1107.75 1142.30
  L 1102.29 1163.02
  A 1.45 0.88 -53.4 0 1 1102.22 1163.20
  Q 1099.70 1169.30 1099.01 1172.50
  Q 1098.32 1175.66 1096.57 1178.94
  Q 1095.16 1181.59 1094.10 1185.91
  A 10.78 10.66 -24.9 0 1 1093.27 1188.14
  Q 1090.35 1193.92 1089.45 1196.48
  Q 1088.58 1198.94 1086.97 1201.59
  C 1085.93 1203.30 1085.31 1206.35 1084.08 1208.61
  C 1081.90 1212.57 1080.51 1216.32 1078.29 1220.22
  Q 1073.25 1229.08 1071.56 1231.89
  Q 1066.99 1239.47 1063.51 1245.52
  C 1060.68 1250.43 1057.16 1255.46 1054.02 1260.45
  C 1050.26 1266.42 1043.99 1272.60 1040.85 1277.08
  Q 1038.83 1279.97 1038.44 1280.44
  Q 1038.02 1280.93 1020.27 1301.77
  C 1016.64 1306.02 1012.22 1310.07 1008.64 1313.37
  Q 1006.37 1315.48 1001.38 1318.35
  A 1.70 0.74 -47.7 0 0 1001.20 1318.48
  L 988.38 1328.64
  A 1.74 1.72 -3.6 0 0 987.98 1329.09
  C 987.07 1330.51 984.84 1331.34 983.51 1332.44
  C 979.58 1335.68 975.24 1339.31 970.63 1341.36
  A 24.70 24.45 14.9 0 0 966.20 1343.90
  Q 959.45 1348.80 955.17 1351.15
  C 942.64 1358.05 934.84 1362.84 923.62 1368.01
  C 906.36 1375.96 887.53 1383.72 867.82 1389.46
  C 863.93 1390.59 860.66 1391.14 857.17 1392.28
  Q 850.57 1394.44 843.42 1395.35
  C 834.57 1396.46 827.60 1398.98 818.26 1399.42
  Q 800.87 1400.23 783.73 1401.69
  Q 779.80 1402.02 766.05 1399.94
  Z"
/>
<path fill="#4a4a4a" d="
  M 804.72 586.71
  L 797.04 586.60
  A 0.36 0.36 0.0 0 0 796.70 587.08
  L 796.91 587.66
  A 0.34 0.34 0.0 0 0 797.20 587.89
  C 810.83 589.30 825.22 593.58 837.59 597.93
  Q 841.91 599.44 846.95 600.76
  Q 854.54 602.76 856.31 603.62
  Q 868.64 609.60 878.39 614.77
  C 887.61 619.66 892.56 623.21 903.13 629.89
  C 910.88 634.79 919.46 640.57 925.66 645.66
  C 937.20 655.11 946.72 664.71 957.82 675.17
  Q 963.53 680.55 969.10 686.91
  Q 992.28 713.38 1016.26 748.73
  C 1017.12 750.00 1018.27 751.03 1019.12 752.53
  Q 1026.41 765.43 1037.84 785.85
  C 1043.08 795.22 1046.51 804.22 1050.96 813.30
  C 1058.10 827.85 1064.83 844.63 1070.33 858.38
  Q 1076.36 873.46 1079.07 881.90
  Q 1085.33 901.37 1089.91 914.95
  Q 1090.98 918.13 1091.38 920.15
  C 1092.20 924.43 1093.61 928.46 1094.50 931.89
  Q 1100.49 955.13 1104.63 976.96
  A 0.37 0.37 0.0 0 0 1105.36 976.89
  L 1105.34 972.02
  Q 1112.31 1012.45 1113.09 1051.75
  Q 1113.34 1063.95 1112.27 1078.28
  Q 1110.28 1105.09 1104.97 1131.80
  Q 1100.06 1156.48 1092.87 1175.91
  Q 1084.38 1198.86 1074.15 1217.67
  Q 1066.76 1231.26 1059.22 1243.72
  Q 1049.69 1259.47 1045.94 1263.94
  C 1033.41 1278.88 1021.85 1294.05 1006.90 1306.80
  Q 990.33 1320.94 984.27 1325.26
  C 970.25 1335.26 960.24 1343.26 947.61 1350.37
  Q 928.90 1360.91 920.73 1364.72
  Q 913.90 1367.90 897.24 1374.71
  C 877.15 1382.92 856.09 1388.69 836.34 1392.54
  Q 825.59 1394.63 803.81 1397.46
  Q 795.57 1398.53 787.52 1398.81
  Q 771.19 1399.39 771.16 1399.39
  A 0.12 0.12 0.0 0 0 771.13 1399.63
  Q 771.24 1399.66 771.43 1399.50
  A 0.14 0.05 36.1 0 1 771.56 1399.54
  Q 771.57 1399.55 771.59 1399.56
  A 0.01 0.01 0.0 0 1 771.58 1399.58
  Q 768.77 1399.60 766.05 1399.94
  L 744.54 1399.63
  L 741.55 1399.48
  Q 728.26 1396.22 714.58 1397.37
  Q 706.31 1396.27 698.03 1395.26
  Q 687.35 1393.97 681.55 1392.74
  Q 669.15 1390.11 655.18 1386.59
  C 637.72 1382.17 620.22 1374.86 601.23 1366.99
  Q 582.93 1359.42 567.56 1349.81
  Q 567.75 1347.73 565.18 1346.23
  C 548.26 1336.39 538.08 1328.12 517.55 1312.11
  Q 510.11 1306.31 504.15 1300.56
  Q 495.15 1291.88 491.37 1287.37
  C 483.00 1277.40 473.79 1267.63 467.02 1256.96
  Q 462.63 1250.05 458.85 1244.68
  Q 453.36 1236.87 450.80 1232.33
  Q 444.71 1221.54 440.26 1211.78
  C 432.46 1194.64 427.14 1183.43 421.85 1168.43
  Q 418.58 1159.14 416.17 1146.97
  Q 414.85 1140.30 414.79 1140.05
  C 413.22 1133.49 412.18 1129.38 411.07 1122.84
  Q 408.27 1106.26 407.46 1101.02
  Q 406.73 1096.31 405.85 1087.87
  Q 405.17 1081.32 404.49 1074.72
  Q 404.42 1073.94 403.66 1073.29
  A 0.31 0.31 0.0 0 0 403.15 1073.50
  L 402.93 1076.28
  Q 401.64 1060.74 402.34 1045.28
  Q 404.40 1042.49 404.55 1037.40
  Q 405.17 1016.64 409.10 986.28
  Q 409.90 980.04 411.27 973.25
  Q 412.93 965.01 413.82 960.26
  Q 417.22 942.24 424.47 916.10
  Q 425.14 913.67 425.69 911.91
  C 428.01 904.58 430.56 895.24 433.68 886.73
  Q 444.41 857.36 446.46 852.45
  Q 452.67 837.52 454.38 833.14
  Q 455.70 829.76 457.43 826.53
  Q 458.33 824.85 460.43 819.89
  C 463.44 812.77 469.27 802.60 471.72 797.25
  Q 472.37 795.84 471.03 794.76
  Q 478.40 779.69 486.70 765.14
  Q 494.95 750.66 504.65 736.86
  Q 524.74 708.26 542.93 687.17
  Q 561.07 666.13 592.86 640.11
  Q 595.42 638.02 603.09 632.66
  C 612.35 626.19 617.44 623.54 630.64 615.66
  Q 640.50 609.78 653.84 603.45
  Q 664.33 598.47 675.61 595.06
  Q 688.45 591.17 698.18 589.01
  C 712.22 585.89 721.66 583.47 734.08 582.67
  Q 741.55 582.19 745.40 581.86
  Q 753.85 581.13 756.75 581.23
  Q 773.61 581.78 782.00 582.66
  Q 791.84 583.69 804.72 586.71
  Z
  M 487.07 830.78
  Q 473.46 859.92 462.53 890.14
  Q 455.78 908.80 450.92 927.87
  C 443.64 956.45 437.21 988.36 434.64 1019.03
  C 433.14 1037.01 433.57 1050.85 433.98 1070.78
  C 434.90 1114.60 445.46 1160.33 465.32 1198.69
  Q 467.45 1202.81 480.77 1225.70
  Q 484.89 1232.78 490.42 1240.29
  Q 498.05 1250.66 501.10 1254.45
  Q 510.30 1265.88 520.32 1275.09
  Q 523.90 1278.38 528.42 1283.19
  C 534.39 1289.53 541.47 1295.86 549.61 1301.61
  C 557.45 1307.16 562.57 1311.39 569.10 1315.41
  Q 590.81 1328.76 601.69 1333.83
  Q 636.90 1350.23 675.00 1359.37
  Q 693.97 1363.93 710.32 1365.66
  Q 730.18 1367.76 746.15 1368.41
  Q 788.17 1370.14 830.27 1361.69
  C 837.39 1360.26 851.15 1357.68 861.02 1354.87
  Q 888.07 1347.17 911.29 1334.85
  Q 916.81 1331.92 921.93 1329.49
  C 935.86 1322.87 948.64 1313.71 961.79 1304.28
  C 984.57 1287.94 1002.25 1269.29 1020.42 1246.48
  C 1028.47 1236.37 1035.60 1224.76 1041.89 1214.41
  Q 1052.38 1197.15 1059.88 1177.64
  Q 1063.23 1168.92 1068.75 1150.48
  Q 1072.79 1137.00 1075.14 1123.68
  Q 1079.01 1101.75 1079.45 1096.40
  Q 1081.85 1066.92 1081.89 1060.35
  Q 1082.02 1035.17 1078.17 1000.90
  Q 1074.37 967.01 1066.03 937.70
  C 1063.04 927.19 1061.40 919.64 1058.22 910.30
  Q 1055.07 901.01 1048.94 881.84
  Q 1045.52 871.17 1032.79 841.53
  Q 1023.25 820.53 1017.03 807.92
  Q 1007.59 788.78 993.97 767.31
  C 981.81 748.13 973.54 735.42 961.67 721.04
  Q 954.54 712.41 948.71 706.06
  Q 913.34 667.49 869.74 641.04
  C 858.48 634.22 843.23 628.43 833.00 624.78
  Q 818.69 619.67 800.37 615.69
  Q 795.32 614.60 787.13 613.64
  Q 778.55 612.64 773.77 612.26
  Q 758.87 611.11 739.26 612.29
  Q 729.25 612.89 721.46 614.47
  C 700.42 618.71 679.68 624.45 660.07 634.08
  Q 645.87 641.05 638.16 645.94
  Q 620.72 656.99 601.85 672.35
  Q 572.35 696.37 549.36 726.69
  Q 547.62 728.98 540.26 738.46
  C 532.53 748.41 527.44 756.90 519.51 769.38
  C 515.40 775.85 511.34 783.45 507.76 789.79
  Q 504.03 796.41 499.60 805.43
  Q 493.36 818.13 487.07 830.78
  Z"
/>
<path fill="#2c2c2d" d="
  M 804.72 586.71
  Q 816.94 589.12 828.90 592.61
  Q 842.77 596.64 852.11 599.88
  C 865.60 604.55 877.23 611.10 891.09 619.36
  Q 897.97 623.46 902.63 626.85
  Q 907.66 630.53 913.88 634.46
  Q 920.94 638.93 929.14 645.99
  Q 939.86 655.23 944.55 659.86
  Q 954.01 669.21 958.34 673.23
  C 962.44 677.05 964.91 679.92 969.07 684.18
  Q 970.62 685.76 973.36 689.08
  Q 988.34 707.18 990.82 710.53
  Q 1013.13 740.65 1020.51 752.20
  Q 1024.54 758.52 1039.03 784.86
  C 1045.02 795.74 1050.41 808.05 1055.74 819.78
  Q 1076.72 865.92 1091.29 914.72
  Q 1099.75 943.08 1105.34 972.02
  L 1105.36 976.89
  A 0.37 0.37 0.0 0 1 1104.63 976.96
  Q 1100.49 955.13 1094.50 931.89
  C 1093.61 928.46 1092.20 924.43 1091.38 920.15
  Q 1090.98 918.13 1089.91 914.95
  Q 1085.33 901.37 1079.07 881.90
  Q 1076.36 873.46 1070.33 858.38
  C 1064.83 844.63 1058.10 827.85 1050.96 813.30
  C 1046.51 804.22 1043.08 795.22 1037.84 785.85
  Q 1026.41 765.43 1019.12 752.53
  C 1018.27 751.03 1017.12 750.00 1016.26 748.73
  Q 992.28 713.38 969.10 686.91
  Q 963.53 680.55 957.82 675.17
  C 946.72 664.71 937.20 655.11 925.66 645.66
  C 919.46 640.57 910.88 634.79 903.13 629.89
  C 892.56 623.21 887.61 619.66 878.39 614.77
  Q 868.64 609.60 856.31 603.62
  Q 854.54 602.76 846.95 600.76
  Q 841.91 599.44 837.59 597.93
  C 825.22 593.58 810.83 589.30 797.20 587.89
  A 0.34 0.34 0.0 0 1 796.91 587.66
  L 796.70 587.08
  A 0.36 0.36 0.0 0 1 797.04 586.60
  L 804.72 586.71
  Z"
/>
<path fill="#696969" d="
  M 1032.79 841.53
  Q 1038.51 888.40 1044.08 935.29
  C 1047.02 960.07 1048.10 984.70 1045.42 1009.53
  Q 1042.46 1037.02 1038.26 1065.91
  Q 1036.29 1079.48 1033.98 1089.79
  Q 1029.33 1110.62 1018.96 1132.00
  C 1009.90 1150.70 999.66 1169.39 985.35 1184.69
  Q 971.03 1200.00 954.79 1211.81
  Q 950.69 1214.79 938.62 1222.19
  C 924.00 1231.15 909.94 1240.54 895.08 1249.85
  C 885.97 1255.55 877.68 1262.16 869.29 1267.79
  Q 850.74 1280.23 828.42 1283.61
  Q 797.89 1288.24 775.83 1291.26
  Q 750.77 1294.69 729.05 1294.31
  C 711.32 1294.00 697.38 1291.11 678.01 1287.19
  C 669.87 1285.54 659.47 1283.52 650.58 1280.89
  Q 636.34 1276.67 622.86 1268.11
  Q 612.56 1261.56 585.81 1241.72
  C 569.59 1229.70 556.43 1219.40 545.62 1206.78
  Q 531.19 1189.93 513.12 1165.58
  C 503.67 1152.85 495.05 1138.23 489.33 1125.19
  Q 471.36 1084.21 464.42 1039.35
  Q 461.70 1021.73 460.57 995.74
  Q 459.53 971.78 459.52 951.95
  Q 459.52 927.70 465.01 903.94
  C 471.14 877.46 479.35 855.13 487.07 830.78
  Q 493.36 818.13 499.60 805.43
  Q 504.03 796.41 507.76 789.79
  C 511.34 783.45 515.40 775.85 519.51 769.38
  C 527.44 756.90 532.53 748.41 540.26 738.46
  Q 547.62 728.98 549.36 726.69
  Q 572.35 696.37 601.85 672.35
  Q 620.72 656.99 638.16 645.94
  Q 645.87 641.05 660.07 634.08
  C 679.68 624.45 700.42 618.71 721.46 614.47
  Q 729.25 612.89 739.26 612.29
  Q 758.87 611.11 773.77 612.26
  Q 778.55 612.64 787.13 613.64
  Q 795.32 614.60 800.37 615.69
  Q 818.69 619.67 833.00 624.78
  C 843.23 628.43 858.48 634.22 869.74 641.04
  Q 913.34 667.49 948.71 706.06
  Q 954.54 712.41 961.67 721.04
  C 973.54 735.42 981.81 748.13 993.97 767.31
  Q 1007.59 788.78 1017.03 807.92
  Q 1023.25 820.53 1032.79 841.53
  Z
  M 530.93 928.25
  Q 533.18 932.96 534.18 934.31
  Q 537.22 938.39 553.51 953.43
  Q 563.30 962.46 573.92 973.52
  Q 576.00 975.68 574.02 977.78
  C 570.32 981.69 566.92 985.50 563.62 988.71
  Q 551.25 1000.75 540.21 1011.75
  Q 534.01 1017.91 533.47 1018.90
  C 529.50 1026.12 531.86 1033.69 536.27 1039.87
  Q 540.61 1045.95 545.65 1048.18
  Q 552.75 1051.32 560.05 1048.16
  Q 563.33 1046.74 571.26 1038.78
  Q 578.69 1031.33 586.19 1023.97
  Q 592.91 1034.00 600.03 1043.65
  Q 606.07 1051.82 608.53 1055.57
  C 614.58 1064.81 620.32 1073.70 627.97 1082.06
  Q 644.94 1100.62 664.51 1116.29
  C 672.28 1122.51 681.33 1127.83 690.93 1130.11
  C 699.81 1132.22 708.82 1132.62 718.25 1132.99
  C 733.85 1133.61 745.09 1133.67 758.35 1129.47
  Q 773.04 1124.83 777.58 1123.89
  Q 794.16 1120.44 803.38 1118.19
  Q 822.05 1113.63 837.09 1101.96
  Q 845.46 1095.47 860.07 1083.77
  C 870.89 1075.11 879.33 1066.73 887.17 1056.72
  Q 899.17 1041.39 910.78 1026.29
  Q 914.62 1021.30 919.75 1012.45
  Q 921.65 1014.09 923.41 1015.83
  Q 933.45 1025.78 945.74 1037.29
  C 952.07 1043.23 957.77 1051.10 967.69 1049.49
  Q 983.96 1046.86 986.53 1030.43
  Q 987.85 1021.99 981.38 1015.61
  Q 967.59 1001.99 945.18 980.29
  C 942.59 977.77 940.27 976.29 943.24 973.23
  C 957.69 958.34 972.77 943.97 982.55 933.80
  C 988.81 927.28 986.55 917.47 981.10 911.44
  C 974.81 904.48 964.49 900.19 955.92 905.92
  Q 953.39 907.62 950.68 910.19
  Q 942.33 918.13 934.06 926.41
  Q 932.23 914.41 930.04 908.43
  C 923.86 891.52 917.30 875.44 913.10 857.24
  C 908.35 836.71 906.42 826.64 900.58 811.67
  Q 893.18 792.73 888.57 782.31
  C 881.85 767.15 872.05 753.12 863.54 740.19
  Q 855.49 727.98 842.52 722.77
  Q 837.02 720.56 828.44 717.48
  C 818.39 713.87 807.18 708.14 797.43 704.43
  Q 782.62 698.81 766.42 697.56
  C 749.19 696.24 730.22 700.73 711.79 705.82
  Q 692.93 711.03 676.88 720.65
  Q 669.58 725.03 651.87 737.21
  Q 619.82 759.25 605.47 794.35
  Q 592.97 824.91 591.55 828.62
  Q 587.44 839.39 585.91 845.04
  C 581.86 860.03 579.24 871.48 574.55 883.60
  Q 569.13 897.62 554.93 900.69
  A 3.23 3.11 -46.1 0 1 553.93 900.73
  Q 549.28 900.11 545.34 901.56
  Q 540.59 903.30 536.38 907.18
  Q 534.10 909.29 532.27 913.24
  Q 529.46 919.31 529.30 920.00
  Q 528.51 923.40 530.93 928.25
  Z"
/>
<rect fill="#c3c3c3" x="-6.57" y="-0.24" transform="translate(558.07,664.82) rotate(-42.9)" width="13.14" height="0.48" rx="0.24"/>
<path fill="#717171" d="
  M 934.06 926.41
  Q 919.35 941.56 914.34 946.11
  C 911.70 948.51 909.66 946.11 907.20 943.67
  Q 884.61 921.26 878.35 915.21
  Q 874.39 911.38 870.81 908.36
  Q 867.59 905.66 862.37 903.87
  C 854.35 901.13 845.54 905.18 840.71 911.77
  C 834.16 920.72 839.07 932.00 846.23 938.52
  Q 869.75 959.92 883.10 974.42
  Q 884.73 976.19 882.98 977.98
  Q 865.66 995.72 846.42 1014.17
  C 841.94 1018.47 837.79 1022.50 837.54 1029.00
  Q 837.23 1036.90 842.20 1042.30
  C 850.42 1051.23 862.55 1053.41 871.89 1044.63
  Q 885.13 1032.18 909.38 1007.87
  Q 911.85 1005.39 914.34 1007.40
  Q 917.25 1009.75 919.75 1012.45
  Q 914.62 1021.30 910.78 1026.29
  Q 899.17 1041.39 887.17 1056.72
  C 879.33 1066.73 870.89 1075.11 860.07 1083.77
  Q 845.46 1095.47 837.09 1101.96
  Q 822.05 1113.63 803.38 1118.19
  Q 794.16 1120.44 777.58 1123.89
  Q 773.04 1124.83 758.35 1129.47
  C 745.09 1133.67 733.85 1133.61 718.25 1132.99
  C 708.82 1132.62 699.81 1132.22 690.93 1130.11
  C 681.33 1127.83 672.28 1122.51 664.51 1116.29
  Q 644.94 1100.62 627.97 1082.06
  C 620.32 1073.70 614.58 1064.81 608.53 1055.57
  Q 606.07 1051.82 600.03 1043.65
  Q 592.91 1034.00 586.19 1023.97
  Q 593.62 1016.61 601.00 1009.26
  C 603.32 1006.94 604.51 1004.92 607.35 1007.65
  Q 620.73 1020.54 643.23 1042.52
  C 648.81 1047.96 657.37 1051.14 664.94 1047.99
  Q 678.75 1042.24 678.71 1028.03
  C 678.69 1021.18 674.80 1016.45 670.08 1011.82
  Q 658.61 1000.55 637.53 980.11
  Q 635.98 978.61 634.71 976.35
  A 0.92 0.91 46.6 0 1 634.73 975.41
  Q 636.30 972.95 636.89 972.39
  Q 653.56 956.38 673.36 936.38
  Q 678.42 931.27 678.60 924.96
  Q 679.04 909.35 664.45 904.20
  Q 656.60 901.43 650.69 904.98
  Q 645.74 907.96 644.24 909.50
  Q 628.85 925.26 614.43 939.93
  Q 610.55 943.87 607.35 946.06
  C 604.52 948.01 602.08 945.94 600.04 943.85
  Q 592.36 935.98 569.00 912.81
  Q 561.93 905.80 557.86 904.09
  C 545.25 898.80 534.05 909.50 531.03 921.28
  Q 530.37 923.85 530.93 928.25
  Q 528.51 923.40 529.30 920.00
  Q 529.46 919.31 532.27 913.24
  Q 534.10 909.29 536.38 907.18
  Q 540.59 903.30 545.34 901.56
  Q 549.28 900.11 553.93 900.73
  A 3.23 3.11 -46.1 0 0 554.93 900.69
  Q 569.13 897.62 574.55 883.60
  C 579.24 871.48 581.86 860.03 585.91 845.04
  Q 587.44 839.39 591.55 828.62
  Q 592.97 824.91 605.47 794.35
  Q 619.82 759.25 651.87 737.21
  Q 669.58 725.03 676.88 720.65
  Q 692.93 711.03 711.79 705.82
  C 730.22 700.73 749.19 696.24 766.42 697.56
  Q 782.62 698.81 797.43 704.43
  C 807.18 708.14 818.39 713.87 828.44 717.48
  Q 837.02 720.56 842.52 722.77
  Q 855.49 727.98 863.54 740.19
  C 872.05 753.12 881.85 767.15 888.57 782.31
  Q 893.18 792.73 900.58 811.67
  C 906.42 826.64 908.35 836.71 913.10 857.24
  C 917.30 875.44 923.86 891.52 930.04 908.43
  Q 932.23 914.41 934.06 926.41
  Z
  M 703.78 1079.28
  Q 703.77 1083.64 707.09 1087.16
  C 710.71 1090.99 714.73 1091.00 719.68 1091.17
  Q 725.14 1091.35 725.35 1091.35
  Q 764.45 1090.86 800.51 1091.22
  C 806.98 1091.29 813.94 1086.80 813.97 1079.61
  C 813.99 1072.42 807.05 1067.89 800.58 1067.92
  Q 764.52 1068.07 725.42 1067.35
  Q 725.21 1067.34 719.75 1067.49
  C 714.80 1067.63 710.78 1067.62 707.14 1071.42
  Q 703.79 1074.92 703.78 1079.28
  Z"
/>
<circle fill="#c3c3c3" cx="476.25" cy="773.63" r="0.10"/>
<circle fill="#c3c3c3" cx="475.40" cy="775.15" r="0.03"/>
<path fill="#2c2c2d" d="
  M 402.34 1045.28
  Q 403.55 1015.61 404.80 1007.02
  Q 406.71 993.94 407.42 987.19
  Q 408.61 975.96 410.56 968.20
  C 413.14 957.89 417.13 937.18 420.75 923.98
  Q 429.42 892.39 441.04 862.24
  Q 444.90 852.24 456.13 824.88
  Q 458.95 817.99 471.03 794.76
  Q 472.37 795.84 471.72 797.25
  C 469.27 802.60 463.44 812.77 460.43 819.89
  Q 458.33 824.85 457.43 826.53
  Q 455.70 829.76 454.38 833.14
  Q 452.67 837.52 446.46 852.45
  Q 444.41 857.36 433.68 886.73
  C 430.56 895.24 428.01 904.58 425.69 911.91
  Q 425.14 913.67 424.47 916.10
  Q 417.22 942.24 413.82 960.26
  Q 412.93 965.01 411.27 973.25
  Q 409.90 980.04 409.10 986.28
  Q 405.17 1016.64 404.55 1037.40
  Q 404.40 1042.49 402.34 1045.28
  Z"
/>
<path fill="#575757" d="
  M 1032.79 841.53
  Q 1045.52 871.17 1048.94 881.84
  Q 1055.07 901.01 1058.22 910.30
  C 1061.40 919.64 1063.04 927.19 1066.03 937.70
  Q 1074.37 967.01 1078.17 1000.90
  Q 1082.02 1035.17 1081.89 1060.35
  Q 1081.85 1066.92 1079.45 1096.40
  Q 1079.01 1101.75 1075.14 1123.68
  Q 1072.79 1137.00 1068.75 1150.48
  Q 1063.23 1168.92 1059.88 1177.64
  Q 1052.38 1197.15 1041.89 1214.41
  C 1035.60 1224.76 1028.47 1236.37 1020.42 1246.48
  C 1002.25 1269.29 984.57 1287.94 961.79 1304.28
  C 948.64 1313.71 935.86 1322.87 921.93 1329.49
  Q 916.81 1331.92 911.29 1334.85
  Q 888.07 1347.17 861.02 1354.87
  C 851.15 1357.68 837.39 1360.26 830.27 1361.69
  Q 788.17 1370.14 746.15 1368.41
  Q 730.18 1367.76 710.32 1365.66
  Q 693.97 1363.93 675.00 1359.37
  Q 636.90 1350.23 601.69 1333.83
  Q 590.81 1328.76 569.10 1315.41
  C 562.57 1311.39 557.45 1307.16 549.61 1301.61
  C 541.47 1295.86 534.39 1289.53 528.42 1283.19
  Q 523.90 1278.38 520.32 1275.09
  Q 510.30 1265.88 501.10 1254.45
  Q 498.05 1250.66 490.42 1240.29
  Q 484.89 1232.78 480.77 1225.70
  Q 467.45 1202.81 465.32 1198.69
  C 445.46 1160.33 434.90 1114.60 433.98 1070.78
  C 433.57 1050.85 433.14 1037.01 434.64 1019.03
  C 437.21 988.36 443.64 956.45 450.92 927.87
  Q 455.78 908.80 462.53 890.14
  Q 473.46 859.92 487.07 830.78
  C 479.35 855.13 471.14 877.46 465.01 903.94
  Q 459.52 927.70 459.52 951.95
  Q 459.53 971.78 460.57 995.74
  Q 461.70 1021.73 464.42 1039.35
  Q 471.36 1084.21 489.33 1125.19
  C 495.05 1138.23 503.67 1152.85 513.12 1165.58
  Q 531.19 1189.93 545.62 1206.78
  C 556.43 1219.40 569.59 1229.70 585.81 1241.72
  Q 612.56 1261.56 622.86 1268.11
  Q 636.34 1276.67 650.58 1280.89
  C 659.47 1283.52 669.87 1285.54 678.01 1287.19
  C 697.38 1291.11 711.32 1294.00 729.05 1294.31
  Q 750.77 1294.69 775.83 1291.26
  Q 797.89 1288.24 828.42 1283.61
  Q 850.74 1280.23 869.29 1267.79
  C 877.68 1262.16 885.97 1255.55 895.08 1249.85
  C 909.94 1240.54 924.00 1231.15 938.62 1222.19
  Q 950.69 1214.79 954.79 1211.81
  Q 971.03 1200.00 985.35 1184.69
  C 999.66 1169.39 1009.90 1150.70 1018.96 1132.00
  Q 1029.33 1110.62 1033.98 1089.79
  Q 1036.29 1079.48 1038.26 1065.91
  Q 1042.46 1037.02 1045.42 1009.53
  C 1048.10 984.70 1047.02 960.07 1044.08 935.29
  Q 1038.51 888.40 1032.79 841.53
  Z"
/>
<path fill="#2c2c2d" d="
  M 586.19 1023.97
  Q 578.69 1031.33 571.26 1038.78
  Q 563.33 1046.74 560.05 1048.16
  Q 552.75 1051.32 545.65 1048.18
  Q 540.61 1045.95 536.27 1039.87
  C 531.86 1033.69 529.50 1026.12 533.47 1018.90
  Q 534.01 1017.91 540.21 1011.75
  Q 551.25 1000.75 563.62 988.71
  C 566.92 985.50 570.32 981.69 574.02 977.78
  Q 576.00 975.68 573.92 973.52
  Q 563.30 962.46 553.51 953.43
  Q 537.22 938.39 534.18 934.31
  Q 533.18 932.96 530.93 928.25
  Q 530.37 923.85 531.03 921.28
  C 534.05 909.50 545.25 898.80 557.86 904.09
  Q 561.93 905.80 569.00 912.81
  Q 592.36 935.98 600.04 943.85
  C 602.08 945.94 604.52 948.01 607.35 946.06
  Q 610.55 943.87 614.43 939.93
  Q 628.85 925.26 644.24 909.50
  Q 645.74 907.96 650.69 904.98
  Q 656.60 901.43 664.45 904.20
  Q 679.04 909.35 678.60 924.96
  Q 678.42 931.27 673.36 936.38
  Q 653.56 956.38 636.89 972.39
  Q 636.30 972.95 634.73 975.41
  A 0.92 0.91 46.6 0 0 634.71 976.35
  Q 635.98 978.61 637.53 980.11
  Q 658.61 1000.55 670.08 1011.82
  C 674.80 1016.45 678.69 1021.18 678.71 1028.03
  Q 678.75 1042.24 664.94 1047.99
  C 657.37 1051.14 648.81 1047.96 643.23 1042.52
  Q 620.73 1020.54 607.35 1007.65
  C 604.51 1004.92 603.32 1006.94 601.00 1009.26
  Q 593.62 1016.61 586.19 1023.97
  Z"
/>
<path fill="#2c2c2d" d="
  M 934.06 926.41
  Q 942.33 918.13 950.68 910.19
  Q 953.39 907.62 955.92 905.92
  C 964.49 900.19 974.81 904.48 981.10 911.44
  C 986.55 917.47 988.81 927.28 982.55 933.80
  C 972.77 943.97 957.69 958.34 943.24 973.23
  C 940.27 976.29 942.59 977.77 945.18 980.29
  Q 967.59 1001.99 981.38 1015.61
  Q 987.85 1021.99 986.53 1030.43
  Q 983.96 1046.86 967.69 1049.49
  C 957.77 1051.10 952.07 1043.23 945.74 1037.29
  Q 933.45 1025.78 923.41 1015.83
  Q 921.65 1014.09 919.75 1012.45
  Q 917.25 1009.75 914.34 1007.40
  Q 911.85 1005.39 909.38 1007.87
  Q 885.13 1032.18 871.89 1044.63
  C 862.55 1053.41 850.42 1051.23 842.20 1042.30
  Q 837.23 1036.90 837.54 1029.00
  C 837.79 1022.50 841.94 1018.47 846.42 1014.17
  Q 865.66 995.72 882.98 977.98
  Q 884.73 976.19 883.10 974.42
  Q 869.75 959.92 846.23 938.52
  C 839.07 932.00 834.16 920.72 840.71 911.77
  C 845.54 905.18 854.35 901.13 862.37 903.87
  Q 867.59 905.66 870.81 908.36
  Q 874.39 911.38 878.35 915.21
  Q 884.61 921.26 907.20 943.67
  C 909.66 946.11 911.70 948.51 914.34 946.11
  Q 919.35 941.56 934.06 926.41
  Z"
/>
<path fill="#2c2c2d" d="
  M 813.97 1079.61
  C 813.94 1086.80 806.98 1091.29 800.51 1091.22
  Q 764.45 1090.86 725.35 1091.35
  Q 725.14 1091.35 719.68 1091.17
  C 714.73 1091.00 710.71 1090.99 707.09 1087.16
  Q 703.77 1083.64 703.78 1079.28
  Q 703.79 1074.92 707.14 1071.42
  C 710.78 1067.62 714.80 1067.63 719.75 1067.49
  Q 725.21 1067.34 725.42 1067.35
  Q 764.52 1068.07 800.58 1067.92
  C 807.05 1067.89 813.99 1072.42 813.97 1079.61
  Z"
/>
<path fill="#2c2c2d" d="
  M 567.56 1349.81
  Q 552.14 1340.99 546.11 1336.40
  C 528.86 1323.30 511.13 1310.81 496.07 1295.10
  Q 480.61 1278.97 468.49 1262.29
  C 456.95 1246.39 446.31 1229.25 437.46 1209.96
  Q 429.38 1192.37 423.15 1176.64
  Q 417.41 1162.16 414.50 1147.51
  C 412.81 1139.05 410.37 1130.24 408.98 1121.61
  Q 407.81 1114.30 405.64 1101.62
  Q 404.44 1094.54 402.93 1076.28
  L 403.15 1073.50
  A 0.31 0.31 0.0 0 1 403.66 1073.29
  Q 404.42 1073.94 404.49 1074.72
  Q 405.17 1081.32 405.85 1087.87
  Q 406.73 1096.31 407.46 1101.02
  Q 408.27 1106.26 411.07 1122.84
  C 412.18 1129.38 413.22 1133.49 414.79 1140.05
  Q 414.85 1140.30 416.17 1146.97
  Q 418.58 1159.14 421.85 1168.43
  C 427.14 1183.43 432.46 1194.64 440.26 1211.78
  Q 444.71 1221.54 450.80 1232.33
  Q 453.36 1236.87 458.85 1244.68
  Q 462.63 1250.05 467.02 1256.96
  C 473.79 1267.63 483.00 1277.40 491.37 1287.37
  Q 495.15 1291.88 504.15 1300.56
  Q 510.11 1306.31 517.55 1312.11
  C 538.08 1328.12 548.26 1336.39 565.18 1346.23
  Q 567.75 1347.73 567.56 1349.81
  Z"
/>
<path fill="#717171" d="
  M 741.55 1399.48
  L 714.58 1397.37
  Q 728.26 1396.22 741.55 1399.48
  Z"
/>
</svg>
